<svg width="184" height="91" viewBox="0 0 184 91" fill="none" xmlns="http://www.w3.org/2000/svg">
<path opacity="0.25" d="M37.8667 90.5C30.7 90.5 24.2834 88.75 18.6167 85.25C12.95 81.6667 8.4917 76.5 5.2417 69.75C1.9917 63 0.366699 54.8333 0.366699 45.25C0.366699 35.6667 1.9917 27.5 5.2417 20.75C8.4917 14 12.95 8.875 18.6167 5.375C24.2834 1.79166 30.7 -1.54972e-06 37.8667 -1.54972e-06C45.1167 -1.54972e-06 51.5334 1.79166 57.1167 5.375C62.7834 8.875 67.2417 14 70.4917 20.75C73.7417 27.5 75.3667 35.6667 75.3667 45.25C75.3667 54.8333 73.7417 63 70.4917 69.75C67.2417 76.5 62.7834 81.6667 57.1167 85.25C51.5334 88.75 45.1167 90.5 37.8667 90.5ZM37.8667 73.375C41.2834 73.375 44.2417 72.4167 46.7417 70.5C49.325 68.5833 51.325 65.5417 52.7417 61.375C54.2417 57.2083 54.9917 51.8333 54.9917 45.25C54.9917 38.6667 54.2417 33.2917 52.7417 29.125C51.325 24.9583 49.325 21.9167 46.7417 20C44.2417 18.0833 41.2834 17.125 37.8667 17.125C34.5334 17.125 31.575 18.0833 28.9917 20C26.4917 21.9167 24.4917 24.9583 22.9917 29.125C21.575 33.2917 20.8667 38.6667 20.8667 45.25C20.8667 51.8333 21.575 57.2083 22.9917 61.375C24.4917 65.5417 26.4917 68.5833 28.9917 70.5C31.575 72.4167 34.5334 73.375 37.8667 73.375ZM83.9673 89V75.875L117.717 44C120.384 41.5833 122.342 39.4167 123.592 37.5C124.842 35.5833 125.676 33.8333 126.092 32.25C126.592 30.6667 126.842 29.2083 126.842 27.875C126.842 24.375 125.634 21.7083 123.217 19.875C120.884 17.9583 117.426 17 112.842 17C109.176 17 105.759 17.7083 102.592 19.125C99.509 20.5417 96.884 22.75 94.7173 25.75L79.9673 16.25C83.3006 11.25 87.9673 7.29166 93.9673 4.37499C99.9673 1.45833 106.884 -1.54972e-06 114.717 -1.54972e-06C121.217 -1.54972e-06 126.884 1.08333 131.717 3.24999C136.634 5.33333 140.426 8.29167 143.092 12.125C145.842 15.9583 147.217 20.5417 147.217 25.875C147.217 28.7083 146.842 31.5417 146.092 34.375C145.426 37.125 144.009 40.0417 141.842 43.125C139.759 46.2083 136.676 49.6667 132.592 53.5L104.592 79.875L100.717 72.5H150.092V89H83.9673ZM171.168 90C167.835 90 164.96 88.875 162.543 86.625C160.21 84.2917 159.043 81.3333 159.043 77.75C159.043 74.1667 160.21 71.2917 162.543 69.125C164.96 66.875 167.835 65.75 171.168 65.75C174.585 65.75 177.46 66.875 179.793 69.125C182.127 71.2917 183.293 74.1667 183.293 77.75C183.293 81.3333 182.127 84.2917 179.793 86.625C177.46 88.875 174.585 90 171.168 90Z" fill="white"/>
</svg>
