<svg width="404" height="44" viewBox="0 0 404 44" fill="none" xmlns="http://www.w3.org/2000/svg">
<path d="M395.47 17.4102C395.221 17.4102 394.977 17.4624 394.762 17.5855L387.954 21.5624C387.513 21.8192 387.245 22.3041 387.245 22.82V30.7593C387.245 31.2749 387.513 31.7591 387.954 32.0166L389.732 33.0548C390.596 33.4854 390.914 33.4787 391.307 33.4787C392.586 33.4787 393.317 32.6937 393.317 31.3295V23.4925C393.317 23.3817 393.222 23.3025 393.114 23.3025H392.261C392.152 23.3025 392.059 23.3817 392.059 23.4925V31.3295C392.059 31.9341 391.436 32.5423 390.426 32.0312L388.575 30.9347C388.51 30.8987 388.459 30.8351 388.459 30.7593V22.8198C388.459 22.7447 388.509 22.668 388.575 22.6298L395.369 18.6678C395.4 18.6497 395.435 18.6401 395.471 18.6401C395.506 18.6401 395.541 18.6497 395.572 18.6678L402.366 22.63C402.431 22.6695 402.482 22.7424 402.482 22.8203V30.7595C402.482 30.8353 402.444 30.9129 402.381 30.9495L395.572 34.9117C395.513 34.9469 395.433 34.9469 395.369 34.9117L393.62 33.8591C393.594 33.8445 393.564 33.8368 393.534 33.8368C393.503 33.8368 393.473 33.8445 393.447 33.8591C392.964 34.1359 392.873 34.168 392.42 34.3269C392.309 34.3663 392.139 34.4275 392.478 34.6195L394.762 35.979C394.978 36.1047 395.222 36.1703 395.471 36.1692C395.719 36.1708 395.964 36.1052 396.179 35.9792L402.988 32.0168C403.428 31.7577 403.696 31.2751 403.696 30.7595V22.82C403.696 22.3043 403.428 21.8202 402.988 21.5628L396.179 17.5859C395.966 17.4626 395.721 17.4104 395.471 17.4104L395.47 17.4102Z" fill="#83CD29"/>
<path d="M397.292 23.083C395.353 23.083 394.198 23.9176 394.198 25.3055C394.198 26.8109 395.344 27.2247 397.205 27.4108C399.431 27.6313 399.605 27.9619 399.605 28.4051C399.605 29.1739 398.999 29.5016 397.566 29.5016C395.767 29.5016 395.371 29.0473 395.239 28.142C395.223 28.0448 395.149 27.9664 395.051 27.9664H394.169C394.061 27.9664 393.967 28.0611 393.967 28.1712C393.967 29.3301 394.59 30.7006 397.566 30.7006C399.721 30.7006 400.964 29.8453 400.964 28.3466C400.964 26.8611 399.96 26.4622 397.87 26.1828C395.758 25.9001 395.557 25.7617 395.557 25.2616C395.557 24.8487 395.728 24.2964 397.292 24.2964C398.689 24.2964 399.205 24.6012 399.417 25.5541C399.435 25.6435 399.513 25.7148 399.605 25.7148H400.487C400.541 25.7148 400.593 25.6811 400.631 25.6416C400.668 25.5996 400.694 25.5522 400.689 25.4955C400.552 23.8548 399.471 23.083 397.292 23.083Z" fill="#83CD29"/>
<path d="M355.442 7.00009C355.365 7.00015 355.291 7.02025 355.225 7.05842C355.159 7.09728 355.104 7.15279 355.066 7.21946C355.028 7.28613 355.008 7.36166 355.008 7.43862V18.6238C355.008 18.7335 354.957 18.8319 354.863 18.8869C354.817 18.9141 354.765 18.9284 354.712 18.9284C354.658 18.9284 354.606 18.9141 354.56 18.8869L352.753 17.8343C352.621 17.7572 352.471 17.7166 352.319 17.7166C352.167 17.7166 352.017 17.7572 351.885 17.8343L344.672 22.045C344.402 22.2025 344.238 22.5051 344.238 22.8201V31.2418C344.238 31.5564 344.402 31.8445 344.672 32.002L351.885 36.2129C352.017 36.2903 352.167 36.331 352.319 36.331C352.471 36.331 352.621 36.2903 352.753 36.2129L359.966 32.002C360.098 31.9251 360.208 31.8143 360.284 31.6808C360.36 31.5474 360.4 31.3959 360.4 31.2418V10.246C360.4 10.0883 360.358 9.9334 360.28 9.79724C360.201 9.66107 360.088 9.54848 359.952 9.47094L355.658 7.04378C355.591 7.00578 355.516 6.99908 355.442 7.00009ZM309.038 17.5126C308.9 17.5181 308.771 17.5425 308.647 17.6148L301.434 21.8258C301.301 21.9026 301.192 22.0133 301.116 22.1468C301.039 22.2804 301 22.4319 301 22.586L301.014 33.8884C301.014 34.0455 301.095 34.1916 301.231 34.2684C301.297 34.3082 301.372 34.3293 301.448 34.3293C301.525 34.3293 301.6 34.3082 301.665 34.2684L305.944 31.7829C306.215 31.62 306.392 31.3367 306.392 31.0225V25.7443C306.392 25.4293 306.556 25.1404 306.826 24.9839L308.647 23.9166C308.779 23.8392 308.929 23.7988 309.081 23.7996C309.23 23.7996 309.382 23.8372 309.515 23.9166L311.336 24.9839C311.468 25.0606 311.578 25.1714 311.654 25.3049C311.73 25.4385 311.77 25.5901 311.77 25.7443V31.0223C311.77 31.3365 311.949 31.6218 312.218 31.7827L316.497 34.2684C316.562 34.3082 316.637 34.3293 316.714 34.3293C316.79 34.3293 316.865 34.3082 316.931 34.2684C316.997 34.2298 317.051 34.1744 317.089 34.1077C317.127 34.0409 317.148 33.9653 317.148 33.8882L317.162 22.586C317.163 22.4318 317.123 22.2801 317.047 22.1465C316.97 22.0129 316.86 21.9022 316.728 21.8258L309.515 17.6148C309.393 17.5425 309.263 17.5183 309.124 17.5126H309.038ZM373.858 17.6148C373.708 17.6148 373.56 17.6535 373.425 17.7319L366.211 21.9428C366.079 22.0197 365.97 22.1305 365.893 22.264C365.817 22.3974 365.777 22.5489 365.778 22.703V31.1247C365.778 31.4415 365.954 31.7285 366.226 31.8852L373.382 36.0083C373.646 36.1607 373.968 36.1723 374.234 36.0225L378.571 33.581C378.709 33.5037 378.802 33.3595 378.802 33.2009C378.803 33.1238 378.784 33.0478 378.745 32.9809C378.707 32.9141 378.652 32.8587 378.586 32.8207L371.329 28.6098C371.193 28.5314 371.097 28.3726 371.097 28.215V25.5834C371.097 25.4259 371.194 25.2816 371.329 25.2032L373.584 23.8872C373.65 23.8486 373.725 23.8283 373.801 23.8283C373.877 23.8283 373.952 23.8486 374.018 23.8872L376.273 25.2032C376.339 25.2415 376.393 25.2969 376.432 25.3636C376.47 25.4304 376.49 25.5061 376.49 25.5832V27.6594C376.489 27.7364 376.509 27.8122 376.547 27.8789C376.585 27.9456 376.64 28.001 376.706 28.0394C376.842 28.1184 377.005 28.1186 377.14 28.0394L381.462 25.4958C381.594 25.4186 381.704 25.3077 381.78 25.1743C381.856 25.0408 381.896 24.8894 381.896 24.7354V22.7033C381.896 22.3893 381.731 22.1005 381.462 21.9428L374.292 17.7319C374.16 17.6548 374.011 17.6142 373.858 17.6148ZM352.29 23.902C352.328 23.902 352.372 23.9113 352.406 23.9311L354.878 25.3785C354.945 25.4177 354.994 25.4903 354.994 25.5685V28.4635C354.994 28.5421 354.945 28.6145 354.878 28.6537L352.406 30.1012C352.373 30.1202 352.335 30.1303 352.297 30.1303C352.259 30.1303 352.222 30.1202 352.189 30.1012L349.717 28.6537C349.65 28.6143 349.601 28.5421 349.601 28.4635V25.5685C349.601 25.4901 349.65 25.4182 349.717 25.3785L352.189 23.9313C352.219 23.9121 352.254 23.9021 352.29 23.9022L352.29 23.902Z" fill="#292929"/>
<path d="M330.707 17.5713C330.557 17.5713 330.408 17.6099 330.274 17.6883L323.06 21.8847C322.79 22.0417 322.626 22.3449 322.626 22.6595V31.0812C322.626 31.3962 322.791 31.6839 323.06 31.8416L330.274 36.0523C330.406 36.1297 330.555 36.1705 330.707 36.1705C330.86 36.1705 331.009 36.1297 331.141 36.0523L338.355 31.8416C338.487 31.7647 338.596 31.6539 338.673 31.5203C338.749 31.3868 338.789 31.2353 338.788 31.0812V22.6595C338.788 22.3445 338.624 22.0417 338.355 21.8847L331.141 17.6883C331.009 17.6113 330.86 17.5709 330.707 17.5713ZM373.844 25.0867C373.816 25.0867 373.784 25.0867 373.758 25.1013L372.37 25.92C372.344 25.9346 372.322 25.9557 372.307 25.9814C372.292 26.0071 372.284 26.0364 372.283 26.0663V27.6746C372.283 27.7351 372.318 27.7906 372.37 27.8209L373.758 28.625C373.81 28.6555 373.865 28.6555 373.917 28.625L375.304 27.8207C375.33 27.806 375.352 27.7849 375.367 27.7593C375.382 27.7336 375.39 27.7044 375.391 27.6746V26.0661C375.39 26.0363 375.382 26.0071 375.367 25.9814C375.352 25.9558 375.33 25.9346 375.304 25.92L373.917 25.1011C373.891 25.0858 373.873 25.0867 373.844 25.0867Z" fill="#83CD29"/>
<path d="M79.6982 12.0074V15.0719H73.1337V31.1945H69.8515V15.0719H63.1515V12.0074H79.6982ZM80.4367 29.3663C80.6686 29.3663 80.8709 29.4501 81.0416 29.6176C81.216 29.7852 81.3013 29.9844 81.3051 30.2171C81.3032 30.3754 81.2624 30.5206 81.1826 30.6509C81.101 30.7831 80.9952 30.8855 80.8653 30.9618C80.7354 31.0381 80.5944 31.0791 80.4386 31.0791C80.1974 31.0791 79.9933 30.9953 79.8226 30.8278C79.6519 30.6602 79.5665 30.4591 79.5684 30.219C79.5665 29.9863 79.65 29.7852 79.8226 29.6195C79.9951 29.4538 80.1974 29.3682 80.4386 29.3682L80.4367 29.3663ZM15.3852 31.1945L3.28226 16.1014V31.1871H0V12H4.10236L19.393 31.0512V15.0719V12.0074H35.9397V15.0719H22.6752V20.0018H33.3421V23.0662H22.6752V28.1301H35.9379V31.1945H15.3852ZM46.4563 23.0382L48.6068 25.721L44.2001 31.2169H39.8918L46.4563 23.0364V23.0382ZM44.2001 12.0168L49.7534 18.9368L55.29 12.0372L59.5854 12.0298L51.9039 21.6159L59.5965 31.202H55.2882L39.9048 12.0168H44.2001ZM86.0383 22.9954H87.4929V28.6179C87.4911 29.1354 87.3797 29.5767 87.1608 29.949C86.94 30.3214 86.6357 30.6044 86.2442 30.8036C85.8546 31.0009 85.4 31.1033 84.8805 31.1033C84.4073 31.1033 83.9824 31.0177 83.6039 30.8501C83.2254 30.6826 82.9248 30.4331 82.7059 30.1017C82.4832 29.7722 82.3738 29.3607 82.3738 28.8674H83.8303C83.8321 29.0833 83.8822 29.2695 83.975 29.4259C84.0678 29.5823 84.1977 29.7014 84.3628 29.7852C84.5298 29.869 84.7209 29.9099 84.9361 29.9099C85.1699 29.9099 85.3703 29.8615 85.5317 29.7629C85.6932 29.666 85.8193 29.5208 85.9047 29.3272C85.9882 29.1354 86.0346 28.899 86.0364 28.6179V22.9954H86.0383ZM93.4767 25.1941C93.4414 24.8534 93.2856 24.5872 93.0147 24.3973C92.7419 24.2056 92.3875 24.1106 91.9534 24.1106C91.6491 24.1106 91.3856 24.1572 91.1685 24.2465C90.9514 24.3396 90.7807 24.4625 90.6657 24.6189C90.5507 24.7753 90.4931 24.954 90.4876 25.1532C90.4876 25.3207 90.5284 25.466 90.6063 25.587C90.6843 25.7098 90.7882 25.8141 90.9236 25.8979C91.0572 25.9835 91.2056 26.0543 91.3689 26.112C91.534 26.1697 91.6973 26.2181 91.8625 26.2572L92.6213 26.4434C92.9256 26.5141 93.2225 26.6091 93.5045 26.7301C93.7866 26.8492 94.0426 27 94.2671 27.1825C94.4916 27.3649 94.6697 27.5846 94.8015 27.8415C94.9332 28.0985 95 28.4001 95 28.7482C95 29.2174 94.8794 29.6269 94.6382 29.9844C94.3951 30.3381 94.0463 30.6155 93.588 30.8147C93.1316 31.0121 92.5805 31.1145 91.9311 31.1145C91.2817 31.1145 90.7566 31.0177 90.2965 30.824C89.8345 30.6323 89.4727 30.3512 89.2129 29.9825C88.9531 29.6139 88.8121 29.1615 88.7917 28.6328H90.2334C90.2538 28.9102 90.3429 29.141 90.4932 29.3272C90.6472 29.5115 90.8475 29.6474 91.0906 29.7405C91.3374 29.8299 91.6138 29.8764 91.9181 29.8764C92.2224 29.8764 92.5156 29.828 92.7586 29.7331C92.998 29.6381 93.1872 29.5059 93.3227 29.3347C93.46 29.1652 93.5286 28.966 93.5323 28.737C93.5305 28.5285 93.4674 28.3535 93.3468 28.2176C93.2243 28.0817 93.0555 27.9663 92.8403 27.875C92.6232 27.782 92.369 27.7 92.0795 27.6274L91.1592 27.3947C90.495 27.2253 89.9681 26.9684 89.5821 26.6221C89.1962 26.2777 89.0032 25.8197 89.0032 25.2463C89.0032 24.7753 89.1331 24.3619 89.3929 24.0082C89.6508 23.6545 90.0052 23.3789 90.4505 23.1835C90.8995 22.9861 91.406 22.8893 91.9719 22.8893C92.5378 22.8893 93.0481 22.9861 93.4822 23.1835C93.9164 23.3789 94.256 23.6526 94.5027 23.9989C94.7495 24.3471 94.8794 24.7436 94.885 25.1941H93.4748H93.4767Z" fill="#292929"/>
<mask id="mask0_3001_1582" style="mask-type:luminance" maskUnits="userSpaceOnUse" x="219" y="6" width="54" height="33">
<path d="M219 6H273V38.7698H219V6Z" fill="white"/>
</mask>
<g mask="url(#mask0_3001_1582)">
<path fill-rule="evenodd" clip-rule="evenodd" d="M246 6C238.8 6 234.3 9.64109 232.5 16.9233C235.2 13.2822 238.35 11.9168 241.95 12.827C244.004 13.3459 245.472 14.8539 247.097 16.5217C249.744 19.2394 252.808 22.3849 259.5 22.3849C266.7 22.3849 271.2 18.7438 273 11.4616C270.3 15.1027 267.15 16.4681 263.55 15.5579C261.496 15.039 260.028 13.531 258.403 11.8632C255.756 9.1455 252.692 6 246 6ZM232.5 22.3849C225.3 22.3849 220.8 26.026 219 33.3082C221.7 29.6671 224.85 28.3017 228.45 29.212C230.504 29.7318 231.972 31.2388 233.597 32.9067C236.244 35.6243 239.308 38.7698 246 38.7698C253.2 38.7698 257.7 35.1287 259.5 27.8465C256.8 31.4876 253.65 32.853 250.05 31.9428C247.996 31.4239 246.528 29.9159 244.903 28.2481C242.256 25.5304 239.192 22.3849 232.5 22.3849Z" fill="#38BDF8"/>
</g>
<g clip-path="url(#clip0_3001_1582)">
<path d="M160 12.0098C154.462 12.0098 149.966 16.5053 149.966 22.0433C149.966 27.5813 154.462 32.0769 160 32.0769C165.538 32.0769 170.033 27.5813 170.033 22.0433C170.012 16.4836 165.516 12.0098 160 12.0098Z" fill="#3880FF"/>
<path d="M174.377 12.9002C176.908 12.9002 178.959 10.8486 178.959 8.31778C178.959 5.78697 176.908 3.73535 174.377 3.73535C171.846 3.73535 169.794 5.78697 169.794 8.31778C169.794 10.8486 171.846 12.9002 174.377 12.9002Z" fill="#3880FF"/>
<path d="M180.002 12.9003L179.828 12.4877L179.524 12.8569C178.786 13.7038 177.808 14.3554 176.766 14.7463L176.462 14.8766L176.592 15.1807C177.526 17.3741 177.961 19.6979 177.961 22.0652C177.961 31.9684 169.903 40.0474 159.978 40.0474C150.053 40.0474 142.018 31.9684 142.018 22.0652C142.018 12.1619 150.075 4.08292 160 4.08292C162.693 4.08292 165.256 4.69102 167.688 5.82034L167.949 5.95064L168.079 5.64659C168.535 4.60415 169.208 3.692 170.12 2.97532L170.49 2.67127L170.077 2.4541C166.928 0.846989 163.562 0 160 0C147.882 0 138 9.88154 138 22C138 34.1185 147.882 44 160 44C172.118 44 182 34.1185 182 22C181.978 18.8509 181.305 15.8105 180.002 12.9003Z" fill="#3880FF"/>
</g>
<defs>
<clipPath id="clip0_3001_1582">
<rect width="44" height="44" fill="white" transform="translate(138)"/>
</clipPath>
</defs>
</svg>
