<svg width="427" height="63" viewBox="0 0 427 63" fill="none" xmlns="http://www.w3.org/2000/svg">
<path d="M221.432 52.8228H218.341V49.9708H221.606C222.8 49.9708 223.399 50.4529 223.399 51.4189C223.399 52.3548 222.745 52.8228 221.438 52.8228M223.663 49.9441C223.239 49.5959 222.646 49.4219 221.882 49.4219L217.447 49.4446V56.2732H218.341L218.333 53.3691H221.633C222.46 53.3691 223.113 53.195 223.587 52.8469C224.062 52.4988 224.3 52.0167 224.3 51.3988C224.3 50.7809 224.088 50.2989 223.663 49.9508V49.9441ZM229.448 54.8285C229.359 55.056 229.213 55.2562 229.024 55.4089C228.623 55.7664 228.013 55.9445 227.192 55.9445C226.45 55.9445 225.881 55.7704 225.484 55.4223C225.087 55.0742 224.888 54.6096 224.888 54.0265C224.888 53.7232 224.94 53.4534 225.044 53.2184C225.146 52.9867 225.301 52.7825 225.495 52.6226C225.907 52.2798 226.471 52.1085 227.192 52.1085C228.787 52.1085 229.585 52.7478 229.585 54.0258C229.585 54.3297 229.538 54.5962 229.449 54.8265M229.611 52.3093C229.067 51.8541 228.26 51.6264 227.192 51.6264C226.184 51.6264 225.403 51.8587 224.854 52.3227C224.357 52.7431 224.109 53.3101 224.109 54.0231C224.109 54.7361 224.365 55.3038 224.879 55.739C225.169 55.9775 225.507 56.1511 225.868 56.2484C226.245 56.3536 226.687 56.4058 227.194 56.4058C228.255 56.4058 229.065 56.1808 229.62 55.7309C230.116 55.3206 230.365 54.7508 230.365 54.0225C230.365 53.2894 230.114 52.717 229.611 52.3066L229.611 52.3093ZM236.37 55.0253C236.37 55.9438 235.471 56.4024 233.674 56.4024C233.124 56.4024 232.662 56.3703 232.286 56.3067C231.909 56.2431 231.604 56.1366 231.37 55.9894C231.189 55.8769 231.038 55.7303 230.939 55.5495C230.826 55.3382 230.755 55.1067 230.731 54.868L231.567 54.8613C231.567 55.2228 231.713 55.4886 232.006 55.66C232.32 55.8655 232.877 55.9679 233.675 55.9679C234.931 55.9679 235.56 55.6801 235.56 55.0976C235.56 54.7609 235.349 54.5286 234.928 54.4014C234.842 54.3766 234.335 54.3123 233.404 54.2005L231.664 53.9194C231.168 53.7386 230.921 53.4139 230.921 52.9446C230.921 52.4854 231.142 52.1433 231.586 51.919C231.805 51.8253 232.078 51.7543 232.406 51.7028C232.735 51.6512 233.115 51.6258 233.548 51.6258C235.278 51.6258 236.136 52.1225 236.136 53.1167H235.339C235.339 52.4184 234.731 52.069 233.515 52.069C232.896 52.069 232.434 52.1399 232.13 52.2812C231.826 52.4224 231.674 52.64 231.674 52.9332C231.674 53.201 231.874 53.4045 232.29 53.5264C232.53 53.59 233.083 53.6636 233.946 53.746C234.72 53.8096 235.25 53.8999 235.539 54.0171C236.088 54.2126 236.363 54.5447 236.363 55.0133L236.37 55.0253ZM239.653 56.2692L239.313 56.3127L239.1 56.3274C238.556 56.3274 238.163 56.2551 237.922 56.1105C237.682 55.9659 237.562 55.7129 237.562 55.3507V52.2377H236.569V51.7797H237.554L237.562 50.3089H238.325V51.7797H239.652V52.245L238.325 52.2383V55.267C238.325 55.4926 238.39 55.6486 238.521 55.7343C238.652 55.82 238.886 55.8628 239.221 55.8628C239.269 55.8675 239.323 55.8662 239.38 55.8581C239.438 55.8501 239.526 55.8314 239.644 55.8032L239.652 56.2705L239.653 56.2692ZM244.926 55.2369C244.711 55.3967 244.47 55.5181 244.214 55.5957C243.948 55.6787 243.641 55.7202 243.295 55.7202C241.7 55.7202 240.903 55.1177 240.903 53.9127C240.903 53.3517 241.107 52.9118 241.515 52.5952C241.923 52.2785 242.497 52.1265 243.238 52.1265C243.985 52.1265 244.552 52.2872 244.937 52.6059C245.322 52.9245 245.517 53.3537 245.517 53.8912C245.517 54.477 245.32 54.9289 244.925 55.2456M246.279 51.7911H245.519L245.511 52.561C245.175 52.2484 244.935 52.0509 244.791 51.9679C244.364 51.7536 243.812 51.6465 243.135 51.6465C242.142 51.6465 241.385 51.8474 240.862 52.2691C240.366 52.6507 240.118 53.2017 240.118 53.9241C240.118 54.2802 240.181 54.5989 240.306 54.8794C240.43 55.158 240.618 55.4027 240.855 55.593C241.386 55.9934 242.118 56.1935 243.075 56.1935C244.223 56.1935 245.039 55.9057 245.519 55.3232V56.1266C245.519 56.6354 245.344 57.0277 244.989 57.3062C244.633 57.5847 244.064 57.724 243.263 57.724C242.511 57.724 241.975 57.6289 241.655 57.4394C241.415 57.2935 241.257 57.0404 241.159 56.6809H240.374C240.461 57.183 240.693 57.5472 241.071 57.7722C241.509 58.0306 242.248 58.1604 243.289 58.1604C245.279 58.1604 246.275 57.4829 246.275 56.1279V51.7764L246.279 51.7911ZM250.404 52.243C250.192 52.2104 249.978 52.1934 249.764 52.1921C248.511 52.1921 247.885 52.8214 247.885 54.08V56.2679H247.131L247.123 51.7911L247.886 51.7978V52.5965H247.926C248.043 52.2953 248.257 52.043 248.534 51.8808C248.838 51.7235 249.29 51.6445 249.894 51.6445H250.405V52.2437L250.404 52.243ZM251.113 53.7386C251.209 53.2298 251.424 52.8362 251.76 52.557C251.979 52.3963 252.227 52.2745 252.503 52.1935C252.78 52.1125 253.093 52.073 253.432 52.073C254.109 52.073 254.663 52.243 255.091 52.5831C255.52 52.9232 255.735 53.3081 255.735 53.7393H251.103M255.809 52.3582C255.542 52.1131 255.212 51.9317 254.816 51.8146C254.421 51.6974 253.954 51.6378 253.432 51.6378C252.436 51.6378 251.678 51.848 251.133 52.2685C250.588 52.6889 250.317 53.2606 250.317 53.9843C250.317 54.708 250.578 55.2817 251.101 55.7068C251.667 56.1755 252.465 56.4098 253.495 56.4098C253.906 56.4098 254.286 56.3669 254.636 56.2759C254.986 56.1848 255.291 56.0704 255.552 55.9144C256.011 55.6131 256.302 55.2402 256.424 54.7977H255.6C255.317 55.5629 254.613 55.9458 253.488 55.9458C252.693 55.9458 252.081 55.7584 251.657 55.3835C251.288 55.0621 251.105 54.6471 251.105 54.1363H256.546C256.546 53.3771 256.303 52.7813 255.817 52.3501L255.809 52.3582Z" fill="#292929"/>
<path d="M264.601 54.4308C264.601 55.7597 263.43 56.4245 261.088 56.4245C259.685 56.4245 258.661 56.1955 258.016 55.7376C257.488 55.3614 257.224 54.787 257.224 54.0157H258.166C258.166 55.2562 259.139 55.8768 261.087 55.8768C262.021 55.8768 262.697 55.743 263.113 55.4952C263.465 55.271 263.641 54.9195 263.641 54.4408C263.641 53.9675 263.401 53.6355 262.921 53.4453C262.655 53.3429 261.984 53.2137 260.928 53.057C259.598 52.8716 258.738 52.6862 258.342 52.5014C257.771 52.2282 257.479 51.765 257.479 51.1102C257.479 50.5077 257.722 50.0391 258.208 49.7485C258.731 49.4218 259.628 49.2578 260.898 49.2578C263.194 49.2578 264.34 49.9554 264.34 51.3512H263.389C263.389 50.3055 262.537 49.7833 260.833 49.7833C259.979 49.7833 259.354 49.8885 258.958 50.098C258.584 50.3229 258.397 50.6523 258.397 51.0875C258.397 51.5427 258.638 51.862 259.118 52.0475C259.374 52.1546 260.127 52.3039 261.375 52.4947C262.55 52.6554 263.342 52.8442 263.754 53.0591C264.314 53.3228 264.594 53.7801 264.594 54.4301L264.601 54.4308ZM272.258 55.109C271.897 55.3717 271.493 55.5686 271.065 55.6907C270.621 55.8199 270.124 55.8916 269.574 55.8916C268.446 55.8916 267.546 55.6151 266.854 55.0614C266.162 54.5078 265.823 53.7627 265.823 52.8408C265.823 51.8801 266.166 51.1317 266.852 50.5947C267.537 50.0578 268.448 49.79 269.58 49.79C270.728 49.79 271.632 50.0712 272.289 50.6316C272.617 50.885 272.881 51.2136 273.059 51.5902C273.231 51.9564 273.307 52.3735 273.307 52.8421C273.307 53.7981 272.96 54.554 272.265 55.1096M272.766 55.5622C273.257 55.2449 273.621 54.8606 273.856 54.4094C274.09 53.9582 274.209 53.4366 274.209 52.8462C274.209 51.7871 273.824 50.9382 273.055 50.2982C272.644 49.9467 272.148 49.6856 271.566 49.5149C270.985 49.3442 270.319 49.2585 269.573 49.2585C268.121 49.2585 266.982 49.5798 266.154 50.2252C265.327 50.8706 264.914 51.7429 264.914 52.8462C264.901 53.3489 265.008 53.8473 265.226 54.2996C265.444 54.7518 265.766 55.1447 266.166 55.445C267 56.1038 268.142 56.4332 269.588 56.4332C270.083 56.4385 270.578 56.4033 271.067 56.3281C271.488 56.2578 271.846 56.1507 272.14 56.0054L273.534 56.8891L274.115 56.4004L272.767 55.5635L272.766 55.5622ZM281.262 56.2584H274.821V49.4299L275.706 49.4151V55.6881H281.27L281.262 56.2584Z" fill="#367FAF"/>
<path d="M258.82 33.2426C259.074 31.1103 258.998 30.7977 260.572 31.1432L260.972 31.1786C262.182 31.2342 263.758 30.9825 264.695 30.546C266.698 29.6087 267.885 28.0435 265.911 28.4546C261.407 29.3918 261.098 27.8534 261.098 27.8534C265.853 20.7343 267.841 11.6964 266.125 9.48317C261.445 3.44925 253.343 6.30319 253.207 6.37683L253.164 6.38486C252.274 6.19875 251.278 6.08762 250.16 6.06888C248.123 6.0354 246.575 6.6078 245.402 7.50556C245.402 7.50556 230.95 1.49774 231.621 15.0612C231.765 17.9399 235.721 36.8939 240.439 31.1706C242.164 29.0778 243.829 27.3078 243.829 27.3078C244.657 27.8634 245.647 28.1446 246.687 28.0442L246.766 27.9752C246.741 28.235 246.753 28.4894 246.798 28.79C245.582 30.1604 245.94 30.4007 243.51 30.9055C241.051 31.417 242.496 32.3268 243.439 32.5644C244.582 32.8523 247.227 33.2607 249.014 30.7368L248.943 31.0247C249.42 31.4096 249.387 33.7909 249.455 35.492C249.523 37.1931 249.635 38.7811 249.986 39.7177C250.336 40.6543 250.736 43.065 253.929 42.3742C256.599 41.7971 258.639 40.9663 258.826 33.2399" fill="#292929"/>
<path d="M258.82 33.2426C259.074 31.1103 258.998 30.7977 260.572 31.1432L260.972 31.1786C262.182 31.2342 263.758 30.9825 264.695 30.546C266.698 29.6087 267.885 28.0435 265.911 28.4546C261.407 29.3918 261.098 27.8534 261.098 27.8534C265.853 20.7343 267.841 11.6964 266.125 9.48317C261.445 3.44925 253.343 6.30319 253.207 6.37683L253.164 6.38486C252.274 6.19875 251.278 6.08762 250.16 6.06888C248.123 6.0354 246.575 6.6078 245.402 7.50556C245.402 7.50556 230.95 1.49774 231.621 15.0612C231.765 17.9399 235.721 36.8939 240.439 31.1706C242.164 29.0778 243.829 27.3078 243.829 27.3078C244.657 27.8634 245.647 28.1446 246.687 28.0442L246.766 27.9752C246.741 28.235 246.753 28.4894 246.798 28.79C245.582 30.1604 245.94 30.4007 243.51 30.9055C241.051 31.417 242.496 32.3268 243.439 32.5644C244.582 32.8523 247.227 33.2607 249.014 30.7368L248.943 31.0247C249.42 31.4096 249.387 33.7909 249.455 35.492C249.523 37.1931 249.635 38.7811 249.986 39.7177C250.336 40.6543 250.736 43.065 253.929 42.3742C256.599 41.7971 258.639 40.9663 258.826 33.2399" stroke="#292929" stroke-width="5.046"/>
<path d="M265.911 28.4543C261.407 29.3916 261.097 27.8531 261.097 27.8531C265.853 20.7333 267.841 11.6955 266.126 9.48292C261.445 3.44967 253.343 6.30294 253.208 6.37659L253.164 6.38462C252.273 6.19851 251.278 6.08738 250.158 6.06863C248.121 6.03516 246.575 6.60755 245.4 7.50531C245.4 7.50531 230.947 1.49817 231.618 15.0609C231.761 17.9396 235.717 36.8936 240.436 31.171C242.161 29.0783 243.82 27.3082 243.82 27.3082C244.647 27.8639 245.638 28.145 246.677 28.0446L246.758 27.9757C246.733 28.2354 246.745 28.4898 246.791 28.7904C245.576 30.1608 245.933 30.4011 243.503 30.9059C241.043 31.4174 242.487 32.3272 243.431 32.5649C244.574 32.8527 247.22 33.2611 249.006 30.7372L248.935 31.0251C249.412 31.41 249.746 33.5289 249.69 35.4489C249.633 37.369 249.597 38.6878 249.972 39.7181C250.346 40.7484 250.721 43.0655 253.916 42.3746C256.585 41.7975 257.968 40.3019 258.16 37.8075C258.297 36.0334 258.605 36.2958 258.625 34.7105L258.873 33.9607C259.158 31.5573 258.918 30.7807 260.563 31.1422L260.963 31.1777C262.173 31.2333 263.756 30.9816 264.687 30.5451C266.689 29.6078 267.877 28.0426 265.903 28.4537L265.911 28.4543Z" fill="#417BA2"/>
<path d="M249.208 29.8325C249.084 34.3059 249.239 38.8034 249.673 39.9054C250.106 41.0073 251.036 43.1295 254.231 42.4393C256.9 41.8622 257.871 40.7455 258.292 38.2792C258.603 36.4716 259.201 31.4265 259.278 30.3942M245.386 7.406C245.386 7.406 230.923 1.44773 231.596 15.0045C231.739 17.8832 235.695 36.8378 240.421 31.1146C242.146 29.0218 243.705 27.3803 243.705 27.3803M253.192 6.31745C252.691 6.47611 261.238 3.16559 266.094 9.42646C267.81 11.6384 265.829 20.6762 261.066 27.7967" stroke="#292929" stroke-width="1.682" stroke-linecap="round" stroke-linejoin="round"/>
<path d="M261.066 27.7963C261.066 27.7963 261.376 29.3361 265.88 28.3975C267.853 27.9864 266.665 29.5516 264.664 30.4896C263.021 31.2595 259.338 31.4556 259.278 30.3932C259.123 27.651 261.216 28.4832 261.066 27.7963ZM261.066 27.7963C260.929 27.1777 259.993 26.5705 259.374 25.0562C258.833 23.734 251.96 13.5949 261.28 15.1012C261.622 15.0302 258.849 6.15706 250.127 6.01312C241.405 5.86919 241.7 16.8331 241.7 16.8331" stroke="#292929" stroke-width="1.682" stroke-linecap="round" stroke-linejoin="bevel"/>
<path d="M246.768 28.7352C245.553 30.1056 245.91 30.3459 243.48 30.8507C241.021 31.3622 242.466 32.272 243.408 32.5096C244.551 32.7975 247.197 33.2072 248.983 30.682C249.527 29.9134 248.98 28.687 248.234 28.3737C247.873 28.223 247.389 28.0336 246.768 28.7352Z" stroke="#292929" stroke-width="1.682" stroke-linejoin="round"/>
<path d="M246.688 28.7108C246.566 27.9054 246.951 26.9468 247.363 25.8254C247.983 24.143 249.413 22.4593 248.269 17.1223C247.416 13.1443 241.697 16.2942 241.693 16.8344C241.689 17.3747 241.958 19.5685 241.597 22.1232C241.135 25.4572 243.701 28.2783 246.655 27.9898" stroke="#292929" stroke-width="1.682" stroke-linecap="round" stroke-linejoin="round"/>
<path d="M245.328 16.7521C245.301 16.9362 245.662 17.4282 246.13 17.4938C246.599 17.5595 247 17.1758 247.026 16.9917C247.053 16.8076 246.692 16.6048 246.223 16.5385C245.755 16.4722 245.353 16.568 245.328 16.7521Z" fill="#292929" stroke="#292929" stroke-width="0.561"/>
<path d="M259.602 16.3761C259.628 16.5602 259.268 17.0456 258.8 17.1179C258.331 17.1902 257.93 16.7999 257.904 16.6158C257.877 16.4317 258.239 16.2288 258.708 16.1625C259.177 16.0963 259.577 16.1927 259.604 16.3768L259.602 16.3761Z" fill="#292929" stroke="#292929" stroke-width="0.28"/>
<path d="M261.28 15.1016C261.357 16.5463 260.971 17.5317 260.923 19.0695C260.85 21.3055 261.979 23.8642 260.279 26.427" stroke="#292929" stroke-width="1.682" stroke-linecap="round" stroke-linejoin="round"/>
<g clip-path="url(#clip0_3001_1571)">
<path d="M164.124 52.615C147.59 52.615 143.624 48.5891 143.624 31.8075C143.624 15.0259 147.59 11 164.124 11C180.658 11 184.624 15.0259 184.624 31.8075C184.624 48.5891 180.658 52.615 164.124 52.615ZM158.321 21.2978L151.891 36.1301C151.599 36.8506 151.348 37.7827 151.348 38.588C151.348 42.2748 153.895 44.86 157.527 44.86C158.718 44.86 159.706 44.5425 160.711 44.2199L160.712 44.2194C161.751 43.8856 162.808 43.5462 164.124 43.5462C165.455 43.5462 166.487 43.8827 167.506 44.215L167.507 44.2151C168.501 44.5394 169.484 44.86 170.721 44.86C174.353 44.86 176.9 42.2748 176.9 38.588C176.9 37.7827 176.649 36.8506 176.357 36.1301L169.928 21.2978C168.842 18.7976 166.754 17.4414 164.124 17.4414C161.494 17.4414 159.406 18.7975 158.321 21.2978ZM157.778 38.4609L164.124 23.8829L170.387 38.4609C168.591 37.571 166.337 37.1472 164.124 37.1472C161.828 37.1472 159.656 37.571 157.778 38.4609Z" fill="#292929"/>
</g>
<path d="M107.204 20.1178C107.671 20.5938 108.224 20.8318 108.86 20.8318C109.497 20.8318 110.079 20.5938 110.546 20.1178C111.013 19.6418 111.248 19.0789 111.248 18.431C111.248 17.7831 111.013 17.2146 110.546 16.7291C110.079 16.2418 109.517 16 108.86 16C108.203 16 107.671 16.2437 107.204 16.7291C106.737 17.2165 106.502 17.7831 106.502 18.431C106.502 19.0789 106.737 19.6418 107.204 20.1178ZM56.8456 26.3361C56.8456 26.3852 56.8065 26.4268 56.7562 26.4268H53.4716V32.7508C53.4716 33.2778 53.6019 33.6632 53.8605 33.9068C54.1192 34.1505 54.497 34.2865 54.9957 34.3167C55.4275 34.3432 55.9486 34.3432 56.559 34.3167L56.7079 34.3092H56.7525C56.8028 34.3035 56.8456 34.3451 56.8456 34.3961V37.7772C56.8456 37.8226 56.8121 37.8622 56.7674 37.866L56.7079 37.8736C54.1341 38.1531 52.3159 37.8943 51.2496 37.0972C50.1646 36.2869 49.6231 34.8381 49.6231 32.7489V26.4268H47.1144C47.0661 26.4268 47.0251 26.3871 47.0251 26.3361V22.7472C47.0251 22.6981 47.0642 22.6565 47.1144 22.6565H49.6231V20.1462C49.6231 20.0744 49.664 20.0102 49.7291 19.9818L53.3488 18.3592C53.4083 18.3328 53.4734 18.3762 53.4734 18.4424V22.6584H56.7581C56.8065 22.6584 56.8474 22.6981 56.8474 22.7491V26.338L56.8456 26.3361ZM63.828 25.2708C64.1853 24.298 64.779 23.5689 65.6034 23.0815C66.359 22.6357 67.1945 22.3958 68.1083 22.3581H68.1697C68.2032 22.3562 68.2423 22.3543 68.2739 22.3543C68.3242 22.3543 68.3632 22.394 68.3632 22.445V26.5703C68.3632 26.6572 68.2888 26.7233 68.2051 26.7158C67.094 26.6138 66.0984 26.8631 65.2144 27.4619C64.2895 28.0909 63.8261 29.1336 63.8261 30.5937V37.7697C63.8261 37.8188 63.7871 37.8603 63.7368 37.8603H60.0632C60.0148 37.8603 59.9739 37.8207 59.9739 37.7697V22.7472C59.9739 22.6981 60.013 22.6565 60.0632 22.6565H63.7368C63.7852 22.6565 63.8261 22.6962 63.8261 22.7472V25.2708H63.828ZM77.082 22.2296C79.1719 22.2296 80.7928 22.9701 81.9485 24.4491V22.7453C81.9485 22.6962 81.9876 22.6546 82.0378 22.6546H85.7114C85.7598 22.6546 85.8007 22.6943 85.8007 22.7453V37.7659C85.8007 37.815 85.7617 37.8566 85.7114 37.8566H82.0378C81.9894 37.8566 81.9485 37.8169 81.9485 37.7659V36.0621C80.7947 37.5411 79.1719 38.2816 77.082 38.2816C74.9921 38.2816 73.3861 37.5071 71.9624 35.9563C70.5387 34.4055 69.8278 32.5053 69.8278 30.2556C69.8278 28.0059 70.5387 26.1057 71.9624 24.5549C73.3861 23.0041 75.0926 22.2296 77.082 22.2296ZM77.7985 25.9697C76.6037 25.9697 75.6193 26.3701 74.8432 27.171C74.0672 27.9719 73.6782 28.9995 73.6782 30.2575C73.6782 31.5155 74.0672 32.5487 74.8432 33.3591C75.6193 34.1486 76.6037 34.5453 77.7985 34.5453C78.9932 34.5453 79.9833 34.1449 80.7686 33.344C81.554 32.5431 81.9485 31.5155 81.9485 30.2575C81.9485 28.9995 81.5558 27.9719 80.7686 27.171C79.9833 26.3701 78.9932 25.9697 77.7985 25.9697ZM97.3742 22.2296C99.3841 22.2296 101.1 23.0041 102.524 24.5549C103.947 26.1057 104.658 28.0059 104.658 30.2556C104.658 32.5053 103.947 34.4055 102.524 35.9563C101.1 37.5071 99.3841 38.2816 97.3742 38.2816C95.3644 38.2816 93.6727 37.5411 92.5375 36.0621V43.8463C92.5375 43.8954 92.4984 43.937 92.4482 43.937H88.7746C88.7262 43.937 88.6853 43.8973 88.6853 43.8463V22.7453C88.6853 22.6962 88.7243 22.6546 88.7746 22.6546H92.4482C92.4966 22.6546 92.5375 22.6943 92.5375 22.7453V24.4491C93.6727 22.9701 95.2843 22.2296 97.3742 22.2296ZM96.6578 25.9697C95.463 25.9697 94.4785 26.3701 93.7025 27.171C92.9265 27.9719 92.5375 28.9995 92.5375 30.2575C92.5375 31.5155 92.9246 32.5487 93.7025 33.3591C94.4785 34.1486 95.463 34.5453 96.6578 34.5453C97.8525 34.5453 98.8426 34.1449 99.6279 33.344C100.413 32.5431 100.808 31.5155 100.808 30.2575C100.808 28.9995 100.415 27.9719 99.6279 27.171C98.8426 26.3701 97.8525 25.9697 96.6578 25.9697ZM107.04 37.8566C106.992 37.8566 106.951 37.8169 106.951 37.7659V22.7472C106.951 22.6981 106.99 22.6565 107.04 22.6565H110.714C110.762 22.6565 110.803 22.6962 110.803 22.7472V37.7678C110.803 37.8169 110.764 37.8584 110.714 37.8584H107.04V37.8566ZM38.3026 27.9606C37.776 27.7075 37.5117 27.3788 37.5117 26.9727C37.5117 26.5666 37.6755 26.2832 38.0049 26.0603C38.3324 25.8374 38.7456 25.726 39.2443 25.726C40.199 25.726 40.9192 26.1057 41.4068 26.8631C41.4403 26.916 41.5073 26.9368 41.5631 26.9122L44.8124 25.4483C44.8608 25.4257 44.8794 25.3671 44.8533 25.3199L44.7863 25.2046C44.7696 25.1763 44.7528 25.1499 44.7398 25.1272C44.1834 24.2356 43.4632 23.5707 42.5587 23.0664C41.5631 22.5092 40.4595 22.2296 39.2443 22.2296C37.6327 22.2296 36.2835 22.6603 35.2004 23.5216C34.1154 24.383 33.5739 25.5635 33.5739 27.0633C33.5739 28.0569 33.8381 28.8824 34.3648 29.5416C34.8914 30.2008 35.5335 30.6825 36.2909 30.9866C36.9888 31.268 37.6867 31.5042 38.3845 31.6987L38.5595 31.7459C39.315 31.9481 39.9571 32.1766 40.4856 32.4297C41.0122 32.6828 41.2765 33.0134 41.2765 33.4176C41.2765 34.2884 40.5898 34.7247 39.2164 34.7247C37.843 34.7247 37.0037 34.2336 36.4993 33.2495C36.4565 33.1645 36.356 33.1267 36.2704 33.1645L33.0305 34.6265C32.9839 34.6473 32.9653 34.7021 32.9858 34.7474L33.023 34.8249C34.1545 37.1293 36.2202 38.2816 39.2145 38.2816C40.9266 38.2816 42.354 37.8603 43.4985 37.0198C44.643 36.1792 45.2144 34.9779 45.2144 33.4176C45.2144 32.3844 44.9501 31.523 44.4234 30.8336C43.8968 30.1441 43.2547 29.653 42.4973 29.3584C41.7995 29.0864 41.1016 28.8597 40.4037 28.6746L40.2288 28.6292C39.4732 28.4366 38.8312 28.2137 38.3026 27.9606Z" fill="#292929"/>
<path d="M24.5461 20.832H8.1377V29.3246H16.5047V37.8152H24.8699V21.1626C24.8699 20.9813 24.7247 20.832 24.5442 20.832H24.5461Z" fill="#8B74F9"/>
<path d="M16.5719 29.3252H16.1792V29.7238H16.5719V29.3252Z" fill="#8B74F9"/>
<path d="M8.1377 29.3252H16.179C16.3577 29.3252 16.5047 29.4725 16.5047 29.6558V37.8177H8.46337C8.28471 37.8177 8.1377 37.6704 8.1377 37.4872V29.3252Z" fill="#433884"/>
<path d="M16.5049 37.8154H24.87L16.7822 46.0246C16.6798 46.1285 16.5049 46.0548 16.5049 45.9074V37.8135V37.8154Z" fill="#433884"/>
<path d="M8.13761 29.3246H0.16326C0.018103 29.3246 -0.0544756 29.147 0.0478789 29.0431L8.13761 20.832V29.3246Z" fill="#433884"/>
<path d="M319.685 5.40527L320.812 7.55538C321.057 7.94323 321.342 8.30329 321.663 8.62939C322.606 9.58698 323.504 10.5907 324.308 11.6658C326.218 14.2113 327.507 17.0379 328.427 20.0984C328.979 21.9674 329.279 23.8826 329.301 25.8208C329.394 31.6135 327.437 36.5882 323.48 40.7227C322.838 41.378 322.146 41.9796 321.409 42.5214C321.016 42.5214 320.833 42.2068 320.672 41.9372C320.362 41.4128 320.188 40.8391 320.097 40.2559C319.958 39.5553 319.866 38.8547 319.913 38.13V37.8027C319.89 37.7324 319.545 5.56994 319.682 5.40632L319.685 5.40527Z" fill="#599636"/>
<path d="M319.685 5.33646C319.639 5.24207 319.592 5.31339 319.547 5.35954C319.57 5.82627 319.408 6.24685 319.154 6.64436C318.878 7.04292 318.509 7.34498 318.141 7.67222C316.093 9.47097 314.483 11.6431 313.194 14.0722C311.491 17.3425 310.594 20.8456 310.342 24.5364C310.228 25.8684 310.755 30.563 311.171 31.9171C312.297 35.5146 314.322 38.5268 316.957 41.1426C317.602 41.7719 318.292 42.3572 319.005 42.9172C319.212 42.9172 319.236 42.7305 319.281 42.59C319.372 42.2917 319.441 41.9871 319.488 41.6786C319.695 40.5112 319.81 39.3428 319.948 38.1755L319.695 5.33646H319.685Z" fill="#6CAC48"/>
<path d="M320.815 43.9457C320.861 43.4087 321.125 42.965 321.39 42.5214C321.114 42.406 320.907 42.171 320.745 41.913C320.607 41.6791 320.492 41.3886 320.4 41.1421C320.078 40.1615 320.008 39.1336 319.917 38.1288V37.5205C319.803 37.6149 319.778 38.4078 319.778 38.5253C319.709 39.5993 319.572 40.6513 319.365 41.6781C319.296 42.0976 319.251 42.5193 318.997 42.8926C318.997 42.9398 318.997 42.987 319.02 43.0563C319.433 44.2939 319.549 45.5556 319.619 46.8404V47.3072C319.619 47.8673 319.596 47.7508 320.056 47.9365C320.24 48.0068 320.449 48.0309 320.632 48.1704C320.77 48.1704 320.793 48.055 320.793 47.9606L320.724 47.1897V45.0396C320.701 44.6662 320.77 44.2918 320.817 43.9415L320.815 43.9457Z" fill="#C2BFBF"/>
<path d="M338.289 34.1775V36.402C338.287 36.4901 338.292 36.5782 338.304 36.6654C338.332 36.9289 338.492 37.0895 338.726 37.1634C338.945 37.2218 339.167 37.2658 339.391 37.2952C339.521 37.3102 339.564 37.368 339.579 37.5094C339.593 38.0074 339.55 38.0663 339.074 38.0363C337.964 37.9774 336.853 37.9635 335.743 38.0363H335.638C335.292 38.0513 335.263 38.0213 335.263 37.67C335.263 37.6111 335.278 37.5383 335.278 37.4794C335.278 37.3723 335.35 37.3187 335.451 37.3187C335.683 37.2898 335.898 37.2309 336.116 37.187C336.418 37.1142 336.59 36.9235 336.62 36.6162C336.662 36.2799 336.662 35.9286 336.662 35.5912L336.677 31.6693C336.682 31.5555 336.654 31.4427 336.598 31.3441C336.542 31.2455 336.46 31.1651 336.36 31.1123C336.099 30.9652 335.823 30.8474 335.537 30.7611C335.451 30.7321 335.364 30.7182 335.293 30.6732C335.082 30.5704 335.076 30.3809 335.278 30.2631C335.35 30.2202 335.436 30.1902 335.523 30.1752C336.398 30.0441 337.257 29.8235 338.089 29.5166C338.262 29.4577 338.305 29.4737 338.321 29.6483C338.336 29.7554 338.321 29.8839 338.306 29.9846C338.278 30.1752 338.278 30.3648 338.278 30.5415C338.278 30.6143 338.292 30.6882 338.364 30.7321C338.436 30.7761 338.509 30.7321 338.575 30.6893C338.878 30.4537 339.181 30.2352 339.512 30.0467C339.987 29.7833 340.493 29.5487 341.042 29.4759C341.707 29.3881 342.282 29.5637 342.787 30.0028C342.996 30.1926 343.18 30.409 343.335 30.6465C343.48 30.8607 343.493 30.866 343.681 30.7193C344.23 30.3091 344.806 29.9439 345.426 29.6804C346.075 29.402 346.739 29.3591 347.402 29.5926C348.079 29.8411 348.541 30.3241 348.816 30.9828C349.048 31.5097 349.147 32.0537 349.147 32.6214V36.5433C349.147 36.8068 349.252 36.9717 349.508 37.1003C349.782 37.2074 350.085 37.2609 350.373 37.3198C350.561 37.3626 350.561 37.3626 350.561 37.5554C350.532 38.0374 350.489 38.0674 350.027 38.0374C348.87 37.9715 347.709 37.9715 346.552 38.0374C346.32 38.0524 346.32 38.0524 346.307 37.8178V37.745C346.293 37.3487 346.293 37.3487 346.668 37.263L347.043 37.1602C347.17 37.1299 347.283 37.0571 347.364 36.9536C347.445 36.85 347.49 36.7217 347.49 36.5894L347.532 35.4916L347.504 32.6235C347.493 32.3674 347.439 32.1151 347.346 31.877C346.985 30.9838 346.192 30.6625 345.427 30.7504C344.85 30.8093 344.346 31.0427 343.87 31.3801C343.769 31.4529 343.697 31.5407 343.712 31.6875C343.841 32.6246 343.754 33.5617 343.77 34.4977V36.5326C343.77 36.8989 343.914 37.0745 344.26 37.1624L344.925 37.3091C345.026 37.3241 345.083 37.368 345.083 37.4847V37.5918C345.069 38.002 345.041 38.0202 344.636 38.0159C343.483 37.957 342.328 37.9731 341.19 38.0159C340.799 38.0309 340.768 37.987 340.786 37.5876C340.801 37.3519 340.828 37.3391 341.045 37.2952L341.52 37.2074C341.942 37.1195 342.097 36.9589 342.126 36.5048L342.168 35.5238L342.14 32.5817C342.111 32.2155 342.034 31.8642 341.837 31.5279C341.549 30.986 341.098 30.7086 340.481 30.6786C339.86 30.6358 339.313 30.8692 338.793 31.1605C338.432 31.3747 338.273 31.6286 338.302 32.0537V34.1904L338.289 34.1775ZM365.456 34.2664V36.3302C365.459 36.477 365.468 36.6235 365.485 36.7693C365.491 36.8665 365.528 36.959 365.591 37.033C365.653 37.107 365.737 37.1584 365.831 37.1795C366.08 37.2531 366.336 37.2973 366.595 37.3112C366.74 37.3262 366.768 37.3841 366.783 37.5019V37.6047C366.768 38.1166 366.711 38.1755 366.22 38.1466C365.123 38.0738 364.029 38.0877 362.933 38.1466L362.51 38.1616C362.424 38.1616 362.405 38.1188 362.381 38.0588C362.339 37.8561 362.339 37.6467 362.381 37.444C362.395 37.3562 362.452 37.3369 362.539 37.3123C362.75 37.2834 362.929 37.2395 363.13 37.2052C363.491 37.1174 363.62 36.9696 363.634 36.5905L363.676 35.361V31.7603C363.676 31.4968 363.575 31.3362 363.345 31.2184C363.086 31.0717 362.811 30.9699 362.522 30.8671C362.436 30.8382 362.349 30.8082 362.277 30.7643C362.089 30.6325 362.066 30.443 362.249 30.2963C362.331 30.228 362.431 30.1868 362.537 30.1784C363.46 30.0317 364.354 29.8272 365.219 29.4759C365.32 29.433 365.364 29.4609 365.407 29.5487C365.45 29.6365 365.465 29.7393 365.449 29.8411L365.407 30.5287C365.407 30.6165 365.365 30.7429 365.435 30.7771C365.522 30.836 365.58 30.7043 365.652 30.67C366.077 30.3075 366.548 30.0026 367.051 29.7629C367.498 29.5487 367.958 29.4116 368.478 29.4416C369.445 29.5005 370.137 29.9985 370.583 30.8617C370.816 31.3158 370.915 31.8128 370.958 32.3258L371 33.3968L371.015 36.6312C371.03 36.8796 371.116 37.0413 371.361 37.1292C371.615 37.215 371.875 37.2788 372.14 37.3198C372.372 37.3487 372.385 37.3926 372.399 37.6122V37.685C372.371 38.183 372.341 38.1969 371.851 38.167C370.775 38.1084 369.697 38.1084 368.621 38.167C368.476 38.182 368.333 38.167 368.199 38.182C368.112 38.182 368.054 38.167 368.041 38.0791C368.012 37.8885 367.983 37.6989 368.026 37.4933C368.041 37.4055 368.084 37.3616 368.184 37.3466L368.849 37.2395C369.081 37.1806 369.21 37.0253 369.239 36.8111L369.268 36.4009L369.253 33.3421C369.253 32.9909 369.238 32.6396 369.166 32.2883C368.993 31.5386 368.431 31.0031 367.668 30.9281C367.003 30.8553 366.402 31.031 365.851 31.3962C365.577 31.5718 365.461 31.8203 365.461 32.1276V34.3382C365.461 34.2953 365.461 34.2953 365.475 34.2953L365.456 34.2664Z" fill="#292929"/>
<path d="M407.691 30.1237C407.532 29.0549 407.142 28.1038 406.464 27.2695C405.874 26.5325 405.11 25.9586 404.243 25.6009C403.336 25.2207 402.368 25.1029 401.388 25.074C400.984 25.059 395.476 25.1468 395.072 25.074C394.971 25.059 394.899 25.089 394.84 25.1768C394.768 25.2839 394.695 25.3964 394.652 25.5131C394.479 25.9094 394.479 25.8794 394.897 25.9372C395.243 25.9961 395.574 26.025 395.907 26.1279C396.209 26.2307 396.426 26.4063 396.497 26.7426C396.526 26.9033 396.555 32.0547 396.555 34.4559L396.497 36.1695C396.483 36.3012 396.469 36.4329 396.426 36.5497C396.368 36.7253 396.267 36.871 396.094 36.9459C395.904 37.0369 395.699 37.0913 395.489 37.1066C395.098 37.1494 395.041 37.1655 394.912 37.6046L394.869 37.7652C394.841 37.9559 394.855 37.9848 395.042 37.9848L399.354 38.0276L401.042 37.9987L402.21 37.852C403.536 37.6035 404.719 37.0466 405.728 36.1545C406.304 35.6379 406.775 35.0112 407.112 34.3102C407.516 33.4909 407.69 32.5966 407.733 31.6906C407.805 31.1786 407.775 30.6517 407.691 30.1248V30.1237ZM405.599 32.2014C405.541 33.1386 405.354 34.0457 404.879 34.865C404.273 35.9338 403.408 36.6803 402.211 36.9427C401.692 37.0498 401.173 37.1034 400.628 37.0305C400.238 36.9877 399.864 36.9427 399.504 36.811C398.855 36.5754 398.624 36.1684 398.61 35.5258L398.595 26.7008C398.595 26.1739 398.827 26.0582 399.201 26.0422C399.763 25.9993 400.34 26.0133 400.903 26.0711C401.501 26.1299 402.089 26.2741 402.648 26.4995C403.063 26.6752 403.448 26.9175 403.788 27.2171C404.566 27.8918 405.085 28.7379 405.37 29.7339C405.602 30.5393 405.645 31.3586 405.602 32.1779L405.599 32.2014ZM419.675 33.6366C419.675 33.5487 419.675 33.4759 419.66 33.3881C419.531 32.5827 419.112 31.968 418.464 31.4999C418.046 31.1926 417.57 30.988 417.079 30.8413C416.993 30.8124 416.921 30.7824 416.835 30.7685C416.849 30.6956 416.893 30.6806 416.936 30.6656C417.224 30.5189 417.498 30.3583 417.743 30.1387C418.19 29.7585 418.482 29.2894 418.637 28.7186C418.723 28.4112 418.723 28.1038 418.695 27.7815C418.671 27.4044 418.564 27.0375 418.382 26.708C418.2 26.3785 417.947 26.095 417.642 25.8783C416.977 25.3803 416.199 25.1757 415.392 25.1608C413.835 25.1318 412.264 25.1608 410.707 25.1608C410.26 25.1608 409.814 25.1897 409.351 25.1179C409.265 25.1029 409.14 25.0751 409.077 25.1768C408.972 25.3675 408.845 25.557 408.803 25.7766C408.788 25.8794 408.817 25.9372 408.933 25.9522L409.928 26.0989C410.318 26.1578 410.592 26.3774 410.62 26.7287C410.648 26.9715 410.662 27.2157 410.662 27.4602L410.633 30.1965L410.619 35.6115C410.619 35.9328 410.576 36.2412 410.517 36.5625C410.503 36.6645 410.46 36.7602 410.394 36.8381C410.327 36.916 410.24 36.9728 410.143 37.0016C409.855 37.0894 409.58 37.1773 409.278 37.1773C409.197 37.1695 409.115 37.1898 409.047 37.235C408.979 37.2801 408.928 37.3474 408.903 37.4257C408.845 37.5575 408.797 37.7042 408.773 37.8359C408.745 38.0116 408.788 38.0715 408.961 38.0501C409.091 38.0351 413.85 38.1529 414.743 38.0651C415.277 38.0062 415.798 37.9334 416.329 37.7727C417.237 37.4803 418.074 37.0552 418.737 36.3376C419.286 35.7518 419.602 35.0492 419.631 34.2299C419.673 34.0393 419.673 33.8497 419.673 33.6441L419.675 33.6366ZM412.681 27.639L412.724 26.4684C412.724 26.2489 412.81 26.1471 413.027 26.1022C413.373 26.0293 413.719 26.0593 414.065 26.0732C414.411 26.1022 414.742 26.1461 415.088 26.2489C415.721 26.4395 416.213 26.8058 416.502 27.4195C416.633 27.6985 416.702 28.0035 416.704 28.3127C416.719 28.7229 416.689 29.1181 416.531 29.5122C416.286 30.0541 415.898 30.4054 415.334 30.5082C414.771 30.611 413.171 30.5671 412.926 30.5671C412.71 30.5671 412.694 30.5382 412.694 30.3186V28.9403C412.66 28.5117 412.655 28.0812 412.679 27.6519L412.681 27.639ZM417.366 35.5129C417.122 36.1716 416.674 36.6268 416.04 36.8731C415.694 37.0048 415.348 37.0873 414.985 37.0637C414.538 37.0487 414.091 37.0637 413.645 36.9759C413.039 36.8442 412.765 36.2583 412.722 35.8342C412.65 35.0878 412.693 34.3263 412.679 33.7704V31.8384C412.679 31.6028 412.708 31.531 412.954 31.531L414.31 31.546L415.233 31.6531C415.882 31.7998 416.473 32.0494 416.935 32.5602C417.309 32.9704 417.512 33.4674 417.555 34.0093C417.597 34.5212 417.57 35.0192 417.382 35.5022L417.366 35.5129Z" fill="#C2BFBF"/>
<path d="M380.728 31.1041L381.102 31.163C381.506 31.178 381.982 31.0312 382.126 30.4604C382.205 30.1877 382.205 29.8977 382.126 29.625C382.039 29.625 381.996 29.6979 381.953 29.7279C381.736 29.9035 381.492 30.0063 381.232 30.0352C380.713 30.0941 380.194 30.0641 379.689 29.8746L378.982 29.6261C378.489 29.4622 377.97 29.3932 377.452 29.4226C376.717 29.4815 376.025 29.73 375.376 30.0813C374.684 30.4615 374.194 31.0323 373.962 31.8088C373.832 32.2629 373.817 32.7298 373.875 33.1989C374.02 34.2678 374.568 35.0143 375.548 35.4095C375.606 35.4244 375.649 35.4523 375.706 35.4684C375.836 35.5412 375.851 35.6151 375.735 35.7168L375.374 35.9653L374.509 36.5072C374.292 36.639 374.264 36.7428 374.336 36.9752C374.421 37.2487 374.581 37.4921 374.797 37.6778C374.994 37.8501 375.219 37.9887 375.46 38.088C375.619 38.1608 375.619 38.1951 375.475 38.3236L374.652 38.9234C374.378 39.1376 374.103 39.3518 373.873 39.6259C373.713 39.7997 373.598 40.0108 373.538 40.2406C373.477 40.4704 373.474 40.7117 373.527 40.9433C373.634 41.4513 373.897 41.9122 374.276 42.2606C374.651 42.613 375.107 42.8645 375.603 42.9921C376.41 43.2277 377.247 43.2405 378.069 43.0799C379.25 42.8603 380.285 42.3302 381.097 41.4263C381.659 40.8265 381.991 40.124 382.02 39.2843C382.052 38.7987 381.913 38.3175 381.627 37.9263C381.342 37.535 380.93 37.2592 380.463 37.1477L379.684 37.0009L377.305 36.7867C377.045 36.7718 376.786 36.7278 376.569 36.5961C376.295 36.4205 376.223 36.0842 376.396 35.8646C376.526 35.704 376.684 35.6012 376.887 35.5862L377.348 35.5433C378.26 35.4492 379.116 35.0533 379.784 34.4166C380.141 34.0814 380.396 33.6496 380.52 33.1722C380.693 32.5424 380.693 31.887 380.548 31.2444C380.506 31.0837 380.52 31.0687 380.721 31.0976L380.728 31.1041ZM377.193 38.3943C377.279 38.4093 377.366 38.3943 377.452 38.3943C378.058 38.4232 378.679 38.4671 379.269 38.6299C379.462 38.6878 379.65 38.7612 379.832 38.8495C380.409 39.1708 380.625 39.7277 380.553 40.3274C380.466 40.9861 380.105 41.4541 379.543 41.7626C379.168 41.9768 378.749 42.0699 378.317 42.1139C378.158 42.1288 378.014 42.1139 377.856 42.1139C377.351 42.1288 376.861 42.071 376.385 41.8654C376.053 41.7336 375.779 41.5441 375.534 41.2796C375.03 40.7676 374.796 39.8305 375.549 39.069C376.01 38.6406 376.53 38.3375 377.193 38.3943ZM378.837 33.8276C378.534 34.603 377.87 34.8375 377.208 34.7347C376.602 34.6469 376.155 34.3106 375.868 33.7537C375.493 33.0072 375.393 32.2329 375.608 31.4264C375.766 30.8267 376.127 30.3726 376.761 30.2698C377.569 30.123 378.344 30.4165 378.751 31.2358C378.962 31.6321 379.054 32.114 379.054 32.8016C379.039 33.0801 378.982 33.4603 378.838 33.8265L378.837 33.8276ZM360.669 32.8316C360.539 32.0412 360.251 31.3236 359.717 30.7239C358.924 29.8307 357.915 29.4387 356.776 29.4355C355.78 29.4205 354.845 29.7139 354.007 30.2409C353.183 30.7411 352.579 31.5424 352.32 32.4803C352.075 33.3296 352.087 34.1939 352.277 35.056C352.782 37.3694 354.542 38.3632 356.646 38.2176C357.266 38.1748 357.857 37.9691 358.418 37.6907C359.255 37.2944 359.861 36.6657 360.279 35.8314C360.61 35.1438 360.753 34.4113 360.74 33.577L360.668 32.8305L360.669 32.8316ZM358.622 36.081C358.519 36.4103 358.323 36.7019 358.06 36.9203C357.796 37.1387 357.475 37.2742 357.136 37.3105C356.503 37.3983 355.91 37.2376 355.377 36.8564C354.993 36.5691 354.681 36.1928 354.469 35.7586C353.878 34.5291 353.777 33.2418 354.079 31.9245C354.176 31.5168 354.386 31.1459 354.684 30.8556C355.218 30.3576 355.837 30.2409 356.531 30.3876C357.195 30.5343 357.699 30.8995 358.113 31.4564C358.528 32.0133 358.719 32.6559 358.834 33.3307C358.892 33.667 358.892 34.0182 358.906 34.2378C358.906 34.9404 358.848 35.523 358.632 36.082L358.622 36.081ZM392.176 32.9494C392.071 32.1001 391.758 31.3247 391.166 30.681C390.388 29.8178 389.378 29.4515 388.254 29.4365C387.288 29.4216 386.394 29.7 385.572 30.183C384.649 30.7399 384.015 31.5293 383.77 32.5981C383.477 33.7642 383.6 34.9976 384.116 36.081C384.591 37.1059 385.399 37.7646 386.467 38.0569C387.648 38.3782 388.774 38.2326 389.87 37.6907C390.821 37.2226 391.499 36.4912 391.888 35.4951C392.12 34.9093 392.205 34.2806 392.219 33.5481C392.234 33.4163 392.205 33.1818 392.177 32.9483L392.176 32.9494ZM390.186 35.8914C389.954 36.6818 389.465 37.1937 388.644 37.3115C388.038 37.3994 387.462 37.2526 386.942 36.9013C386.494 36.594 386.178 36.1838 385.947 35.7018C385.687 35.1899 385.542 34.648 385.485 34.0921C385.399 33.4046 385.399 32.732 385.557 32.0433C385.587 31.9075 385.631 31.7752 385.687 31.6481C386.091 30.6232 386.985 30.1552 388.038 30.3897C388.745 30.5504 389.278 30.9466 389.682 31.5464C390.072 32.1322 390.259 32.7759 390.347 33.4742C390.389 33.7526 390.405 34.045 390.389 34.2935C390.389 34.8643 390.347 35.3912 390.178 35.9032L390.186 35.8914Z" fill="#292929"/>
<defs>
<clipPath id="clip0_3001_1571">
<rect width="41" height="41.615" fill="white" transform="translate(143.624 11)"/>
</clipPath>
</defs>
</svg>
