<svg width="340" height="48" viewBox="0 0 340 48" fill="none" xmlns="http://www.w3.org/2000/svg">
<path d="M14.3831 43.067C17.8898 43.067 20.7365 40.2204 20.7365 36.7137V30.3604H14.3831C10.8765 30.3604 8.02979 33.207 8.02979 36.7137C8.02979 40.2204 10.8765 43.067 14.3831 43.067Z" fill="#0ACF83"/>
<path d="M8.02344 23.9998C8.02344 20.4931 10.8701 17.6465 14.3768 17.6465H20.7301V30.3598H14.3768C10.8701 30.3598 8.02344 27.5132 8.02344 24.0065V23.9998Z" fill="#A259FF"/>
<path d="M8.02344 11.2869C8.02344 7.78026 10.8701 4.93359 14.3768 4.93359H20.7301V17.6469H14.3768C10.8701 17.6469 8.02344 14.8003 8.02344 11.2936V11.2869Z" fill="#F24E1E"/>
<path d="M20.6768 4.93359H27.0301C30.5368 4.93359 33.3834 7.78026 33.3834 11.2869C33.3834 14.7936 30.5368 17.6403 27.0301 17.6403H20.6768V4.93359Z" fill="#FF7262"/>
<path d="M33.4501 23.9998C33.4501 27.5065 30.6034 30.3532 27.0968 30.3532C23.5901 30.3532 20.6768 27.5065 20.6768 23.9998C20.6768 20.4931 23.5234 17.6465 27.0301 17.6465C30.5368 17.6465 33.3834 20.4931 33.3834 23.9998H33.4501Z" fill="#1ABCFE"/>
<path d="M40.3965 15.4668V28.7868H42.1098V22.4268H46.2298V20.7735H42.1098V17.1335H47.4632V15.4668H40.3965ZM50.5632 18.1735C51.1832 18.1735 51.6831 17.6735 51.6831 17.0535C51.6831 16.4335 51.1765 16.0001 50.5632 16.0001C49.9498 16.0001 49.4431 16.5001 49.4431 17.1201C49.4431 17.4201 49.5632 17.7001 49.7765 17.9201C49.9898 18.1401 50.2698 18.2535 50.5765 18.2535L50.5632 18.1735ZM49.6965 19.8535V28.7868H51.3431V19.8535H49.6432H49.6965ZM57.7765 19.5868C55.4965 19.5868 53.9098 21.5868 53.9098 23.8001C53.9098 26.0135 55.5098 28.0001 57.7765 28.0001C58.2481 28.0084 58.7163 27.9184 59.1513 27.7359C59.5863 27.5534 59.9786 27.2824 60.3031 26.9401V28.1268C60.2984 28.8398 60.0218 29.5241 59.5298 30.0401C59.2813 30.2937 58.9846 30.4951 58.6572 30.6324C58.3298 30.7698 57.9782 30.8404 57.6232 30.8401C57.0779 30.8229 56.5496 30.6468 56.1031 30.3335L55.2365 31.8201C55.902 32.2482 56.6707 32.4888 57.4615 32.5167C58.2524 32.5445 59.0361 32.3586 59.7301 31.9785C60.4241 31.5984 61.0028 31.0381 61.4052 30.3568C61.8076 29.6754 62.0187 28.8981 62.0165 28.1068V19.8401H60.3031V20.6401C59.9786 20.2978 59.5863 20.0268 59.1513 19.8443C58.7163 19.6618 58.2481 19.5785 57.7765 19.5868ZM55.6298 23.8001C55.5908 23.3667 55.6737 22.931 55.8693 22.5422C56.0648 22.1535 56.3652 21.8272 56.7365 21.6001C57.4965 21.1335 58.4498 21.1335 59.2031 21.6001C59.9565 22.0668 60.3832 22.9201 60.3098 23.8001C60.3489 24.2336 60.2659 24.6693 60.0704 25.058C59.8748 25.4468 59.5744 25.7731 59.2031 26.0001C58.4431 26.4668 57.4898 26.4668 56.7365 26.0001C55.9831 25.5335 55.5565 24.6801 55.6298 23.8001Z" fill="white"/>
<path d="M68.1969 21.3335C67.7041 21.3352 67.232 21.5318 66.8836 21.8802C66.5352 22.2286 66.3386 22.7007 66.3369 23.1935V28.8468H64.6235V19.9135H66.3369V20.6668C66.8569 19.9735 67.6835 19.5735 68.5502 19.5868C69.6435 19.5601 70.6635 20.1468 71.2035 21.1001C71.8702 20.1668 72.8302 19.6001 73.8702 19.5868C75.8235 19.5868 77.0369 21.1601 77.0435 23.1068V28.7935H75.3302V23.1268C75.3804 22.7738 75.3285 22.4138 75.1806 22.0894C75.0326 21.765 74.7949 21.4898 74.4954 21.2962C74.196 21.1027 73.8474 20.9989 73.4909 20.9973C73.1343 20.9956 72.7848 21.0961 72.4835 21.2868C72.184 21.4821 71.9468 21.7593 71.8003 22.0855C71.6537 22.4117 71.6039 22.7731 71.6569 23.1268V28.7801H70.0102V23.1335C70.0084 22.6407 69.8119 22.1686 69.4635 21.8202C69.115 21.4718 68.643 21.2752 68.1502 21.2735L68.1969 21.3335ZM86.1969 20.8668C85.8069 20.4599 85.3378 20.137 84.8185 19.918C84.2991 19.699 83.7405 19.5886 83.1769 19.5935C80.6235 19.5935 78.8435 21.7535 78.8435 24.2601C78.8435 26.7668 80.6435 28.9268 83.1769 28.9268C83.7405 28.9317 84.2991 28.8212 84.8185 28.6023C85.3378 28.3833 85.8069 28.0604 86.1969 27.6535V28.6668H87.9102V19.7335H86.1969V20.8668ZM80.5302 24.3335C80.4435 23.2668 80.9635 22.2401 81.8769 21.6801C82.7902 21.1201 83.8769 21.1201 84.8502 21.6801C85.296 21.9568 85.6573 22.3505 85.8947 22.8184C86.1322 23.2863 86.2367 23.8103 86.1969 24.3335C86.2835 25.4001 85.7635 26.4268 84.8502 26.9868C83.9369 27.5468 82.8502 27.5468 81.8769 26.9868C81.4311 26.7101 81.0698 26.3164 80.8323 25.8485C80.5949 25.3807 80.4904 24.8566 80.5302 24.3335Z" fill="white"/>
<path d="M140.792 4H169.208C173.517 4 177 7.24786 177 11.265V36.735C177 40.7521 173.517 44 169.208 44H140.792C136.483 44 133 40.7521 133 36.735V11.265C133 7.24786 136.483 4 140.792 4Z" fill="#470137"/>
<path d="M156.137 13.0388L150.637 21.9234L156.504 31.3465C156.54 31.4182 156.559 31.49 156.54 31.5618C156.522 31.6336 156.449 31.5798 156.339 31.5977H152.14C151.847 31.5977 151.645 31.5798 151.517 31.4003C151.132 30.6465 150.729 29.9106 150.344 29.1567C149.959 28.4208 149.537 27.667 149.097 26.8952C148.657 26.1234 148.217 25.3516 147.777 24.5618H147.74C147.355 25.3336 146.934 26.1054 146.512 26.8772C146.09 27.649 145.669 28.4208 145.265 29.1747C144.844 29.9285 144.422 30.7003 144 31.4362C143.927 31.6157 143.78 31.6336 143.579 31.6336H139.545C139.472 31.6336 139.417 31.6695 139.417 31.5798C139.399 31.508 139.417 31.4362 139.454 31.3824L145.155 22.2285L139.6 13.0208C139.545 12.949 139.527 12.8772 139.564 12.8413C139.6 12.7875 139.674 12.7695 139.747 12.7695H143.909C144 12.7695 144.092 12.7875 144.165 12.8054C144.239 12.8413 144.294 12.8952 144.349 12.967C144.697 13.7388 145.1 14.5106 145.522 15.2824C145.962 16.0541 146.384 16.808 146.842 17.5618C147.282 18.3157 147.685 19.0695 148.07 19.8413H148.107C148.492 19.0516 148.895 18.2798 149.299 17.5259C149.702 16.7721 150.124 16.0182 150.545 15.2644C150.967 14.5106 151.37 13.7388 151.774 13.0029C151.792 12.9311 151.829 12.8593 151.884 12.8234C151.957 12.7875 152.03 12.7695 152.122 12.7875H155.99C156.082 12.7695 156.174 12.8234 156.192 12.9131C156.21 12.9311 156.174 13.0029 156.137 13.0388Z" fill="#FF61F6"/>
<path d="M164.607 31.9745C163.25 31.9925 161.893 31.7233 160.665 31.1668C159.51 30.6463 158.557 29.7848 157.897 28.7258C157.218 27.6309 156.888 26.2668 156.888 24.6335C156.87 23.3053 157.218 21.995 157.897 20.8463C158.593 19.6797 159.602 18.7104 160.812 18.0643C162.095 17.3643 163.635 17.0233 165.45 17.0233C165.542 17.0233 165.67 17.0233 165.835 17.0412C166 17.0592 166.183 17.0591 166.403 17.0771V11.4053C166.403 11.2797 166.458 11.2079 166.587 11.2079H170.308C170.4 11.1899 170.473 11.2617 170.492 11.3335C170.492 11.3515 170.492 11.3694 170.492 11.3694V28.4566C170.492 28.7797 170.51 29.1386 170.528 29.5335C170.565 29.9104 170.583 30.2694 170.602 30.5745C170.602 30.7002 170.547 30.8079 170.418 30.8617C169.465 31.2566 168.457 31.5438 167.43 31.7233C166.495 31.8848 165.56 31.9745 164.607 31.9745ZM166.403 28.3848V20.4874C166.238 20.4515 166.073 20.4156 165.908 20.3976C165.707 20.3797 165.505 20.3617 165.303 20.3617C164.588 20.3617 163.873 20.5053 163.232 20.8284C162.608 21.1335 162.077 21.5822 161.673 22.1566C161.27 22.7309 161.068 23.5027 161.068 24.4361C161.05 25.0643 161.16 25.6925 161.38 26.2848C161.563 26.7694 161.838 27.2002 162.205 27.5591C162.553 27.8822 162.975 28.1335 163.452 28.2771C163.947 28.4386 164.46 28.5104 164.973 28.5104C165.248 28.5104 165.505 28.4925 165.743 28.4745C165.982 28.4925 166.183 28.4566 166.403 28.3848Z" fill="#FF61F6"/>
<g clip-path="url(#clip0_3001_1572)">
<path d="M224.437 4H251.562C255.675 4 259 7.24786 259 11.265V36.735C259 40.7521 255.675 44 251.562 44H224.437C220.325 44 217 40.7521 217 36.735V11.265C217 7.24786 220.325 4 224.437 4Z" fill="#001E36"/>
<path d="M226.45 32.0512V14.4615C226.45 14.3418 226.503 14.2735 226.625 14.2735C226.923 14.2735 227.203 14.2735 227.605 14.2564C228.025 14.2393 228.463 14.2393 228.935 14.2222C229.408 14.2051 229.915 14.2051 230.458 14.188C231 14.1709 231.525 14.1709 232.05 14.1709C233.485 14.1709 234.675 14.3418 235.655 14.7008C236.53 14.9914 237.335 15.47 238 16.1025C238.56 16.6495 238.998 17.3162 239.278 18.0512C239.54 18.7692 239.68 19.5042 239.68 20.2735C239.68 21.7435 239.33 22.9572 238.63 23.9145C237.93 24.8718 236.95 25.5897 235.813 26C234.623 26.4273 233.31 26.5812 231.875 26.5812C231.455 26.5812 231.175 26.5812 231 26.5641C230.825 26.547 230.58 26.547 230.248 26.547V32.0341C230.265 32.1538 230.178 32.2564 230.055 32.2735C230.038 32.2735 230.02 32.2735 229.985 32.2735H226.66C226.52 32.2735 226.45 32.2051 226.45 32.0512ZM230.265 17.5726V23.3162C230.51 23.3333 230.738 23.3504 230.948 23.3504H231.875C232.558 23.3504 233.24 23.2478 233.888 23.0427C234.448 22.8888 234.938 22.5641 235.323 22.1367C235.69 21.7094 235.865 21.1282 235.865 20.376C235.883 19.8461 235.743 19.3162 235.463 18.8547C235.165 18.4102 234.745 18.0683 234.238 17.8803C233.59 17.6239 232.89 17.5213 232.173 17.5384C231.718 17.5384 231.315 17.5384 230.983 17.5555C230.633 17.5384 230.388 17.5555 230.265 17.5726Z" fill="#31A8FF"/>
<path d="M250.601 22.2734C250.076 21.9999 249.516 21.8119 248.921 21.6922C248.273 21.5555 247.626 21.47 246.961 21.47C246.611 21.4529 246.243 21.5042 245.911 21.5896C245.683 21.6409 245.491 21.7606 245.368 21.9315C245.281 22.0683 245.228 22.2392 245.228 22.3931C245.228 22.5469 245.298 22.7008 245.403 22.8375C245.561 23.0255 245.771 23.1794 245.998 23.299C246.401 23.5042 246.821 23.6922 247.241 23.8631C248.186 24.1708 249.096 24.5982 249.936 25.111C250.513 25.47 250.986 25.9486 251.318 26.5298C251.598 27.0768 251.738 27.6751 251.721 28.2905C251.738 29.0939 251.493 29.8973 251.038 30.564C250.548 31.2478 249.866 31.7777 249.078 32.0854C248.221 32.4443 247.171 32.6324 245.911 32.6324C245.106 32.6324 244.318 32.564 243.531 32.4102C242.918 32.3076 242.306 32.1196 241.746 31.8631C241.623 31.7948 241.536 31.6751 241.553 31.5384V28.564C241.553 28.5127 241.571 28.4443 241.623 28.4102C241.676 28.376 241.728 28.3931 241.781 28.4272C242.463 28.8204 243.181 29.0939 243.951 29.2649C244.616 29.4358 245.316 29.5213 246.016 29.5213C246.681 29.5213 247.153 29.4358 247.468 29.2819C247.748 29.1623 247.941 28.8717 247.941 28.564C247.941 28.3247 247.801 28.1025 247.521 27.8802C247.241 27.658 246.663 27.4016 245.806 27.0768C244.913 26.7691 244.091 26.3589 243.321 25.8461C242.778 25.47 242.323 24.9743 241.991 24.3931C241.711 23.8461 241.571 23.2478 241.588 22.6495C241.588 21.9144 241.798 21.2136 242.183 20.5811C242.621 19.8973 243.268 19.3503 244.021 19.0084C244.843 18.5982 245.876 18.4102 247.118 18.4102C247.836 18.4102 248.571 18.4614 249.288 18.564C249.813 18.6324 250.321 18.7691 250.793 18.9572C250.863 18.9743 250.933 19.0426 250.968 19.111C250.986 19.1794 251.003 19.2478 251.003 19.3161V22.1025C251.003 22.1708 250.968 22.2392 250.916 22.2734C250.758 22.3076 250.671 22.3076 250.601 22.2734Z" fill="#31A8FF"/>
</g>
<g clip-path="url(#clip1_3001_1572)">
<path d="M297.392 34.0524C297.11 33.4292 296.847 32.8059 296.604 32.176C296.355 31.5527 296.151 30.9161 296 30.2727H317.777C318.63 30.2727 319.438 30.1052 320.193 29.7634C320.962 29.4082 321.625 28.9324 322.19 28.3427C322.748 27.7596 323.188 27.0761 323.503 26.3054C323.832 25.5213 324.002 24.6836 324.002 23.7856C324.002 22.8808 323.838 22.0364 323.53 21.2657C323.214 20.5018 322.774 19.8316 322.216 19.2552C321.671 18.6856 321.021 18.2366 320.272 17.9149C319.537 17.5999 318.736 17.4324 317.882 17.4324H296.053C296.223 16.7957 296.433 16.1457 296.683 15.5023C296.939 14.8657 297.215 14.2424 297.497 13.6527H317.882C319.281 13.6527 320.574 13.9274 321.77 14.4569C322.958 14.9796 323.989 15.6967 324.869 16.6014C325.756 17.4994 326.452 18.565 326.944 19.7914C327.45 21.0245 327.706 22.3581 327.706 23.7856C327.706 25.2197 327.437 26.5533 326.918 27.7797C326.406 29.0128 325.703 30.1052 324.817 31.0501C323.937 31.9816 322.893 32.7188 321.691 33.2483C320.482 33.7844 319.176 34.0524 317.777 34.0524H297.392ZM333.932 23.9732C333.932 26.2249 333.505 28.3561 332.671 30.3532C331.844 32.3368 330.707 34.0725 329.256 35.5536C327.798 37.0414 326.097 38.2209 324.16 39.0921C322.229 39.9499 320.161 40.3788 317.961 40.3788H301.937C301.359 39.8628 300.801 39.2797 300.282 38.6364C299.756 37.9997 299.27 37.3228 298.837 36.6259H317.961C319.635 36.6259 321.224 36.2975 322.715 35.634C324.199 34.9572 325.5 34.0457 326.603 32.8998C327.7 31.7605 328.573 30.4202 329.204 28.8788C329.847 27.3441 330.176 25.7089 330.176 23.9732C330.176 22.1705 329.867 20.4883 329.256 18.9336C328.639 17.3654 327.792 16.005 326.708 14.859C325.638 13.7197 324.364 12.8217 322.899 12.1783C321.428 11.5216 319.859 11.1865 318.197 11.1865H298.942C299.395 10.5096 299.888 9.83946 300.413 9.17599C300.932 8.51923 301.503 7.92949 302.121 7.40676H318.197C320.397 7.40676 322.459 7.84237 324.37 8.69348C326.294 9.55129 327.969 10.7375 329.387 12.2319C330.799 13.7197 331.916 15.4688 332.724 17.486C333.525 19.4898 333.932 21.6544 333.932 23.9732ZM318.118 1C320.042 1 321.914 1.28147 323.74 1.831C325.572 2.36713 327.299 3.13783 328.915 4.13637C330.524 5.14161 332.014 6.34121 333.38 7.72844C334.74 9.12238 335.915 10.6839 336.9 12.3928C337.879 14.095 338.641 15.9379 339.186 17.9149C339.724 19.8852 340 21.9225 340 24.0268C340 26.0842 339.731 28.0813 339.212 30.0047C338.687 31.9347 337.938 33.7509 336.979 35.4464C336.033 37.1486 334.884 38.7101 333.538 40.1375C332.185 41.5516 330.681 42.7713 329.02 43.7832C327.371 44.8019 325.592 45.5994 323.687 46.169C321.776 46.7185 319.786 47 317.724 47C315.393 47 313.186 46.6716 311.104 46.035C309.036 45.3782 307.099 44.4467 305.299 43.2471H317.829C320.312 43.2471 322.669 42.7512 324.896 41.7459C327.115 40.734 329.072 39.3534 330.753 37.6177C332.448 35.8887 333.787 33.8581 334.773 31.5326C335.751 29.1938 336.244 26.6941 336.244 24.0268C336.244 21.3529 335.764 18.8465 334.825 16.521C333.893 14.1821 332.605 12.1448 330.964 10.4091C329.335 8.68007 327.411 7.31294 325.211 6.3077C323.004 5.30915 320.633 4.80653 318.118 4.80653H305.115C306.737 3.74097 308.464 2.87646 310.29 2.2331C312.109 1.57634 314.027 1.16084 316.043 1H318.118ZM321.77 24.0268C321.77 24.5294 321.671 25.0254 321.481 25.5012C321.284 25.9703 321.014 26.3925 320.666 26.7611C320.331 27.123 319.937 27.4111 319.484 27.6189C319.024 27.8199 318.532 27.9138 318.013 27.9138C317.488 27.9138 316.982 27.8199 316.516 27.6189C316.056 27.4111 315.656 27.123 315.307 26.7611C314.953 26.3925 314.684 25.9703 314.493 25.5012C314.296 25.0254 314.204 24.5294 314.204 24.0268C314.204 23.4974 314.296 22.9813 314.493 22.4988C314.684 22.023 314.953 21.5874 315.307 21.2121C315.656 20.8435 316.056 20.542 316.516 20.3275C316.982 20.1198 317.488 20.0058 318.013 20.0058C318.532 20.0058 319.024 20.1198 319.484 20.3275C319.937 20.542 320.331 20.8435 320.666 21.2121C321.014 21.5874 321.284 22.023 321.481 22.4988C321.671 22.9813 321.77 23.4974 321.77 24.0268Z" fill="white"/>
</g>
<defs>
<clipPath id="clip0_3001_1572">
<rect width="42" height="40" fill="white" transform="translate(217 4)"/>
</clipPath>
<clipPath id="clip1_3001_1572">
<rect width="44" height="46" fill="white" transform="translate(296 1)"/>
</clipPath>
</defs>
</svg>
