<svg width="397" height="53" viewBox="0 0 397 53" fill="none" xmlns="http://www.w3.org/2000/svg">
<g clip-path="url(#clip0_3001_1599)">
<path d="M14.0143 12.4214L22.4127 12.4121L8.32245 26.5099L4.65028 30.1653L0.472168 25.9777L14.0143 12.4214ZM13.9361 25.009C14.0451 24.8649 14.2456 24.9359 14.3978 24.9174L22.4055 24.9195L15.1074 32.218L10.9077 28.0396L13.9361 25.009Z" fill="#44D1FD"/>
<path d="M34.2166 18.3008L43.3719 18.3039L43.3709 20.1084C40.9759 20.1084 38.5799 20.1012 36.1838 20.1115C36.0008 20.1723 36.0872 20.4018 36.0666 20.5428L36.0738 25.3965C36.1345 25.5787 36.3648 25.4912 36.5067 25.5139L42.6521 25.5108V27.3133C40.7414 27.3123 38.8318 27.3123 36.9212 27.3133C36.6373 27.3123 36.3504 27.2948 36.0697 27.3431L36.0481 34.1949C35.4321 34.1702 34.8172 34.1928 34.2012 34.1795L34.2002 18.5921L34.2166 18.3008ZM45.5921 18.3039H47.4718L47.4729 29.088L47.4523 34.1661C46.8405 34.1548 46.2286 34.1517 45.6178 34.1681C45.5705 33.917 45.59 33.6617 45.59 33.4084L45.5921 18.3039ZM63.991 19.6411L65.8769 19.6421L65.88 22.8333C66.8024 22.8559 67.73 22.7921 68.6503 22.8652C68.6246 23.4375 68.6462 24.0099 68.6359 24.5823C67.7187 24.5843 66.8024 24.5915 65.8862 24.5781L65.879 30.9337C65.8985 31.5225 66.024 32.2339 66.5957 32.5375C67.2487 32.9092 68.0508 32.7342 68.6688 32.3759V34.2248C67.9881 34.5336 67.2117 34.5706 66.4806 34.4708C65.4502 34.3133 64.463 33.6102 64.1514 32.588C63.9447 32.028 63.992 31.4237 63.9879 30.839L63.9838 24.6492L63.9375 24.5967C63.2866 24.5617 62.6336 24.6018 61.9816 24.5792C61.9857 23.9965 61.959 23.4139 61.996 22.8323C62.6582 22.8209 63.3236 22.8621 63.9848 22.8117L63.991 19.6411ZM71.9585 19.6349C72.5858 19.6565 73.213 19.6277 73.8393 19.6493L73.8825 19.6967C73.9061 20.7446 73.8506 21.7956 73.9072 22.8415C74.8008 22.825 75.6944 22.8384 76.587 22.8333L76.5932 24.5689C75.6944 24.6028 74.7926 24.5823 73.8938 24.5771L73.8835 31.0428C73.8825 31.6059 74.045 32.272 74.589 32.5489C75.2563 32.9133 76.0656 32.7259 76.6857 32.3533L76.6837 34.2124C76.0224 34.5109 75.2769 34.5686 74.5632 34.4862C73.6367 34.3627 72.7297 33.8387 72.2947 32.9895C72.085 32.5448 71.9677 32.0527 71.9482 31.5617V24.5843C71.2973 24.5833 70.6474 24.5864 69.9974 24.5843L70.0016 22.8271C70.6422 22.8446 71.2829 22.822 71.9235 22.8436C71.9914 21.7771 71.9184 20.7034 71.9585 19.6349ZM81.1127 22.893C82.4146 22.3525 83.9169 22.3423 85.2466 22.7952C86.7695 23.3212 87.948 24.6512 88.3799 26.1943C88.6627 27.0498 88.6514 27.9587 88.6113 28.8481L79.6597 28.8574C79.7337 29.8117 80.0185 30.7845 80.6808 31.5009C81.6217 32.5993 83.2413 33.007 84.609 32.5756C85.5684 32.2925 86.3171 31.5534 86.8096 30.7042C87.3547 30.9481 87.8842 31.2261 88.4272 31.4762C87.6847 32.8927 86.3346 34.0178 84.7478 34.3225C83.4449 34.5665 82.0197 34.5727 80.8247 33.9283C79.274 33.1573 78.2066 31.5874 77.9022 29.8992C77.6811 28.6021 77.75 27.2299 78.2375 25.9987C78.7486 24.6471 79.782 23.4767 81.1127 22.893ZM81.8212 24.5205C80.726 25.027 80.0206 26.1521 79.8005 27.3133L86.6657 27.2917C86.5567 26.533 86.2873 25.762 85.7319 25.2133C84.7591 24.1695 83.0963 23.9656 81.8212 24.5205ZM92.6866 24.6698C93.4033 22.927 95.605 22.0118 97.3459 22.7417V24.7758C96.6148 24.4875 95.7952 24.3095 95.0229 24.537C93.9679 24.8509 93.1873 25.7928 92.8881 26.8295C92.6824 27.5295 92.7596 28.2603 92.7678 28.9778C92.6876 29.9064 92.8079 30.8359 92.7472 31.7645C92.7966 32.5664 92.704 33.3683 92.7719 34.1712C92.1323 34.2021 91.4927 34.1692 90.8541 34.1908C90.8171 31.7706 90.8489 29.3495 90.8386 26.9283L90.853 22.8528C91.4526 22.8693 92.0531 22.8508 92.6537 22.8652C92.7082 23.4664 92.5868 24.0706 92.6866 24.6698ZM50.1681 22.8302C50.8057 22.857 51.4484 22.7921 52.0829 22.8642L52.0736 29.6109C52.0675 30.4355 52.1847 31.3362 52.7544 31.9765C53.4896 32.7918 54.7349 32.9411 55.7407 32.6189C57.0847 32.1371 58.0225 30.7124 57.968 29.2877L57.9886 22.8302L59.9085 22.8343L59.8972 34.163C59.2884 34.1527 58.6807 34.163 58.0729 34.1558L58.0657 32.5437C57.6719 33.0389 57.2585 33.5402 56.6939 33.8521C55.5381 34.582 54.0717 34.6787 52.777 34.305C51.942 34.0528 51.215 33.4671 50.7964 32.7012C50.2998 31.8592 50.1743 30.8637 50.1455 29.9043L50.1681 22.8302Z" fill="white"/>
<path d="M6.72119 32.2247L10.9075 28.0391L15.1072 32.2174L15.1247 32.236L10.9086 36.4174L6.72119 32.2247Z" fill="#1FBCFD"/>
<path d="M10.9087 36.4178L15.1249 32.2363L22.4085 39.5349C19.6649 39.541 16.9224 39.5328 14.1798 39.539C14.0235 39.574 13.9268 39.4309 13.8271 39.3424L10.9087 36.4178Z" fill="#08589C"/>
</g>
<path d="M349.93 19.166H352.936V25.1067L358.483 19.166H362.112L356.547 24.9023L362.366 32.7251H358.752L354.518 26.9407L352.936 28.5702V32.7251H349.93V19.166ZM360.769 27.6081V27.569C360.769 24.5806 363.189 22.1574 366.455 22.1574C369.698 22.1574 372.099 24.5445 372.099 27.569V27.6081C372.099 30.5965 369.68 33.0197 366.413 33.0197C363.171 33.0197 360.769 30.6326 360.769 27.6081ZM369.165 27.6081V27.569C369.165 26.0658 368.052 24.6949 366.443 24.6949C364.744 24.6949 363.727 25.9967 363.727 27.5299V27.569C363.727 29.0722 364.84 30.4432 366.449 30.4432C368.149 30.4432 369.162 29.1414 369.162 27.6081H369.165Z" fill="white"/>
<path d="M372.915 29.8031V24.9026H371.666V22.3771H372.915V19.7164H375.879V22.3771H378.341V24.9026H375.879V29.3521C375.879 30.0315 376.172 30.3623 376.835 30.3623C377.346 30.3643 377.85 30.237 378.299 29.9925V32.3615C377.673 32.7313 376.953 32.9628 375.955 32.9628C374.14 32.9628 372.909 32.2413 372.909 29.8361L372.915 29.8031ZM379.197 18.583H382.161V32.7524H379.197V18.583ZM383.238 18.583H386.362V21.2046H383.241L383.238 18.583ZM383.316 22.3501H386.28V32.7524H383.316V22.3501ZM387.414 22.3501H390.378V23.8232C391.062 22.9514 391.942 22.1547 393.445 22.1547C395.692 22.1547 396.999 23.6278 396.999 26.0179V32.7524H394.035V26.9469C394.035 25.5489 393.37 24.8304 392.238 24.8304C391.107 24.8304 390.384 25.5519 390.384 26.9469V32.7494H387.421L387.414 22.3501Z" fill="white"/>
<path d="M332.915 13.006L320 26.4959V38.5608L332.89 25.7233L345.714 13L332.915 13.006Z" fill="url(#paint0_linear_3001_1599)"/>
<path d="M320 38.5641L332.89 25.7266L345.714 38.5641H320Z" fill="url(#paint1_linear_3001_1599)"/>
<path d="M320 13.0059H332.915L320 26.4958V13.0059Z" fill="url(#paint2_linear_3001_1599)"/>
<path d="M220.566 14.7441C219.424 13.0045 219.153 12.7734 216.829 12.7734C216.815 12.7734 216.815 12.7734 216.801 12.7734C216.788 12.7734 216.788 12.7734 216.774 12.7734C214.45 12.7734 214.192 13.0045 213.037 14.7441C211.963 16.3751 201.308 35.8918 201.308 36.4354C201.308 37.2237 201.511 37.9712 202.245 39.0313C202.993 40.105 204.284 40.703 205.222 39.7516C205.861 39.1129 212.697 27.3294 216 22.8716C216.394 22.3143 217.209 22.3143 217.617 22.8716C220.919 27.3294 227.756 39.1129 228.395 39.7516C229.332 40.703 230.623 40.105 231.371 39.0313C232.105 37.9712 232.309 37.2237 232.309 36.4354C232.295 35.8918 221.64 16.3615 220.566 14.7441Z" fill="#1173B6"/>
<path d="M236.117 18.7812H244.624V20.895H238.62V24.4987H243.691V26.6197H238.62V30.7885H244.836V32.9023H236.117V18.7812Z" fill="white"/>
<path d="M249.365 27.3606L246.451 22.6707L249.152 22.3037C249.152 22.3037 250.95 25.856 251.09 26.1055L253.211 22.3037H255.779L252.888 27.3606C252.807 27.5 252.814 27.6688 252.895 27.8009L256.022 32.6083L253.284 32.9018L251.097 28.9312C250.935 29.2321 248.829 32.9018 248.829 32.9018H246.025L249.357 27.8156C249.446 27.6762 249.453 27.5 249.365 27.3606Z" fill="white"/>
<path d="M259.948 33.7611V36.7189L257.468 37.0858V22.2969H259.515L259.692 23.4198H259.78C260.227 23.0455 260.719 22.7226 261.27 22.451C261.82 22.1795 262.385 22.04 262.972 22.04C263.633 22.04 264.22 22.1648 264.734 22.4143C265.248 22.6639 265.681 23.0309 266.04 23.5079C266.4 23.985 266.671 24.5501 266.862 25.2107C267.046 25.8712 267.141 26.6125 267.141 27.4345C267.141 28.3446 267.016 29.1519 266.767 29.8639C266.517 30.5758 266.18 31.1703 265.761 31.6547C265.343 32.1391 264.859 32.506 264.315 32.7629C263.765 33.0198 263.2 33.1519 262.613 33.1519C262.15 33.1519 261.695 33.0492 261.233 32.851C260.771 32.6528 260.323 32.3593 259.897 31.9849L259.948 33.7611ZM259.948 30.2235C260.337 30.5538 260.712 30.7886 261.071 30.9134C261.431 31.0455 261.769 31.1042 262.084 31.1042C262.789 31.1042 263.376 30.796 263.853 30.1868C264.33 29.5776 264.565 28.6675 264.565 27.4565C264.565 26.3923 264.382 25.563 264.022 24.9758C263.662 24.3887 263.082 24.0877 262.275 24.0877C261.526 24.0877 260.748 24.4841 259.941 25.2767V30.2235H259.948Z" fill="white"/>
<path d="M268.623 27.6107C268.623 26.7299 268.762 25.9519 269.034 25.2547C269.306 24.5648 269.68 23.9776 270.142 23.5079C270.612 23.0309 271.148 22.6712 271.75 22.4143C272.351 22.1648 272.99 22.04 273.651 22.04C274.311 22.04 274.95 22.1648 275.559 22.4143C276.168 22.6639 276.704 23.0309 277.166 23.5079C277.629 23.985 277.995 24.5648 278.274 25.2547C278.553 25.9446 278.693 26.7299 278.693 27.6107C278.693 28.4914 278.553 29.2694 278.274 29.9666C277.995 30.6565 277.621 31.2437 277.166 31.7134C276.704 32.1904 276.168 32.5501 275.559 32.7923C274.95 33.0345 274.311 33.1593 273.651 33.1593C272.99 33.1593 272.359 33.0345 271.75 32.7923C271.14 32.5501 270.612 32.1904 270.142 31.7134C269.673 31.2363 269.306 30.6565 269.034 29.9666C268.762 29.2694 268.623 28.4914 268.623 27.6107ZM271.17 27.6107C271.17 28.6749 271.39 29.5262 271.83 30.1721C272.271 30.8106 272.88 31.1336 273.658 31.1336C274.436 31.1336 275.045 30.8106 275.493 30.1721C275.94 29.5336 276.161 28.6822 276.161 27.6107C276.161 26.5318 275.94 25.673 275.493 25.0345C275.045 24.396 274.436 24.0731 273.658 24.0731C272.88 24.0731 272.271 24.396 271.83 25.0345C271.39 25.673 271.17 26.5318 271.17 27.6107Z" fill="white"/>
<g clip-path="url(#clip1_3001_1599)">
<path d="M150 16.0098C144.462 16.0098 139.966 20.5053 139.966 26.0433C139.966 31.5813 144.462 36.0769 150 36.0769C155.538 36.0769 160.033 31.5813 160.033 26.0433C160.012 20.4836 155.516 16.0098 150 16.0098Z" fill="#3880FF"/>
<path d="M164.377 16.9002C166.908 16.9002 168.959 14.8486 168.959 12.3178C168.959 9.78697 166.908 7.73535 164.377 7.73535C161.846 7.73535 159.794 9.78697 159.794 12.3178C159.794 14.8486 161.846 16.9002 164.377 16.9002Z" fill="#3880FF"/>
<path d="M170.002 16.9003L169.828 16.4877L169.524 16.8569C168.786 17.7038 167.808 18.3554 166.766 18.7463L166.462 18.8766L166.592 19.1807C167.526 21.3741 167.961 23.6979 167.961 26.0652C167.961 35.9684 159.903 44.0474 149.978 44.0474C140.053 44.0474 132.018 35.9684 132.018 26.0652C132.018 16.1619 140.075 8.08292 150 8.08292C152.693 8.08292 155.256 8.69102 157.688 9.82034L157.949 9.95064L158.079 9.64659C158.535 8.60415 159.208 7.692 160.12 6.97532L160.49 6.67127L160.077 6.4541C156.928 4.84699 153.562 4 150 4C137.882 4 128 13.8815 128 26C128 38.1185 137.882 48 150 48C162.118 48 172 38.1185 172 26C171.978 22.8509 171.305 19.8105 170.002 16.9003Z" fill="#3880FF"/>
</g>
<defs>
<linearGradient id="paint0_linear_3001_1599" x1="315.675" y1="36.5044" x2="339.459" y2="12.5782" gradientUnits="userSpaceOnUse">
<stop offset="0.108" stop-color="#C757BC"/>
<stop offset="0.173" stop-color="#CD5CA9"/>
<stop offset="0.492" stop-color="#E8744F"/>
<stop offset="0.716" stop-color="#F88316"/>
<stop offset="0.823" stop-color="#FF8900"/>
</linearGradient>
<linearGradient id="paint1_linear_3001_1599" x1="328.208" y1="43.176" x2="339.801" y2="31.5138" gradientUnits="userSpaceOnUse">
<stop offset="0.296" stop-color="#00AFFF"/>
<stop offset="0.694" stop-color="#5282FF"/>
<stop offset="1" stop-color="#945DFF"/>
</linearGradient>
<linearGradient id="paint2_linear_3001_1599" x1="319.695" y1="20.059" x2="327.827" y2="11.8779" gradientUnits="userSpaceOnUse">
<stop offset="0.296" stop-color="#00AFFF"/>
<stop offset="0.694" stop-color="#5282FF"/>
<stop offset="1" stop-color="#945DFF"/>
</linearGradient>
<clipPath id="clip0_3001_1599">
<rect width="98" height="28" fill="white" transform="translate(0 12)"/>
</clipPath>
<clipPath id="clip1_3001_1599">
<rect width="44" height="44" fill="white" transform="translate(128 4)"/>
</clipPath>
</defs>
</svg>
