<svg width="44" height="42" viewBox="0 0 44 42" fill="none" xmlns="http://www.w3.org/2000/svg">
<g clip-path="url(#clip0_1449_759)">
<path d="M7.79167 0H36.2083C40.5167 0 44 3.41026 44 7.62821V34.3718C44 38.5897 40.5167 42 36.2083 42H7.79167C3.48333 42 0 38.5897 0 34.3718V7.62821C0 3.41026 3.48333 0 7.79167 0Z" fill="#470137"/>
<path d="M23.1366 11.0388L17.6366 19.9234L23.5033 29.3465C23.5399 29.4182 23.5583 29.49 23.5399 29.5618C23.5216 29.6336 23.4483 29.5798 23.3383 29.5977H19.1399C18.8466 29.5977 18.6449 29.5798 18.5166 29.4003C18.1316 28.6465 17.7283 27.9106 17.3433 27.1567C16.9583 26.4208 16.5366 25.667 16.0966 24.8952C15.6566 24.1234 15.2166 23.3516 14.7766 22.5618H14.7399C14.3549 23.3336 13.9333 24.1054 13.5116 24.8772C13.0899 25.649 12.6683 26.4208 12.2649 27.1747C11.8433 27.9285 11.4216 28.7003 10.9999 29.4362C10.9266 29.6157 10.7799 29.6336 10.5783 29.6336H6.54495C6.47162 29.6336 6.41662 29.6695 6.41662 29.5798C6.39828 29.508 6.41662 29.4362 6.45328 29.3824L12.1549 20.2285L6.59995 11.0208C6.54495 10.949 6.52662 10.8772 6.56328 10.8413C6.59995 10.7875 6.67328 10.7695 6.74662 10.7695H10.9083C10.9999 10.7695 11.0916 10.7875 11.1649 10.8054C11.2383 10.8413 11.2933 10.8952 11.3483 10.967C11.6966 11.7388 12.0999 12.5106 12.5216 13.2824C12.9616 14.0541 13.3833 14.808 13.8416 15.5618C14.2816 16.3157 14.6849 17.0695 15.0699 17.8413H15.1066C15.4916 17.0516 15.8949 16.2798 16.2983 15.5259C16.7016 14.7721 17.1233 14.0182 17.5449 13.2644C17.9666 12.5106 18.3699 11.7388 18.7733 11.0029C18.7916 10.9311 18.8283 10.8593 18.8833 10.8234C18.9566 10.7875 19.0299 10.7695 19.1216 10.7875H22.9899C23.0816 10.7695 23.1733 10.8234 23.1916 10.9131C23.2099 10.9311 23.1733 11.0029 23.1366 11.0388Z" fill="#FF61F6"/>
<path d="M31.6067 29.9745C30.25 29.9925 28.8934 29.7233 27.665 29.1668C26.51 28.6463 25.5567 27.7848 24.8967 26.7258C24.2184 25.6309 23.8884 24.2668 23.8884 22.6335C23.8701 21.3053 24.2184 19.995 24.8967 18.8463C25.5934 17.6797 26.6017 16.7104 27.8117 16.0643C29.095 15.3643 30.635 15.0233 32.45 15.0233C32.5417 15.0233 32.6701 15.0233 32.8351 15.0412C33.0001 15.0592 33.1834 15.0591 33.4034 15.0771V9.4053C33.4034 9.27966 33.4584 9.20787 33.5867 9.20787H37.3084C37.4001 9.18992 37.4734 9.26171 37.4917 9.33351C37.4917 9.35146 37.4917 9.36941 37.4917 9.36941V26.4566C37.4917 26.7797 37.51 27.1386 37.5284 27.5335C37.565 27.9104 37.5834 28.2694 37.6017 28.5745C37.6017 28.7002 37.5467 28.8079 37.4184 28.8617C36.4651 29.2566 35.4567 29.5438 34.4301 29.7233C33.4951 29.8848 32.56 29.9745 31.6067 29.9745ZM33.4034 26.3848V18.4874C33.2384 18.4515 33.0734 18.4156 32.9084 18.3976C32.7067 18.3797 32.505 18.3617 32.3034 18.3617C31.5884 18.3617 30.8734 18.5053 30.2317 18.8284C29.6084 19.1335 29.0767 19.5822 28.6734 20.1566C28.27 20.7309 28.0684 21.5027 28.0684 22.4361C28.0501 23.0643 28.1601 23.6925 28.3801 24.2848C28.5634 24.7694 28.8384 25.2002 29.2051 25.5591C29.5534 25.8822 29.9751 26.1335 30.4517 26.2771C30.9467 26.4386 31.46 26.5104 31.9734 26.5104C32.2484 26.5104 32.5051 26.4925 32.7434 26.4745C32.9817 26.4925 33.1834 26.4566 33.4034 26.3848Z" fill="#FF61F6"/>
</g>
<defs>
<clipPath id="clip0_1449_759">
<rect width="44" height="42" fill="white"/>
</clipPath>
</defs>
</svg>
