<?xml version="1.0" encoding="utf-8"?>
<!-- Generator: Adobe Illustrator 26.5.0, SVG Export Plug-In . SVG Version: 6.00 Build 0)  -->
<svg version="1.1" id="Calque_1" xmlns="http://www.w3.org/2000/svg" xmlns:xlink="http://www.w3.org/1999/xlink" x="0px" y="0px"
	 viewBox="0 0 42 41" style="enable-background:new 0 0 42 41;" xml:space="preserve">
<style type="text/css">
	.st0{fill:#050A11;}
</style>
<g>
	<path class="st0" d="M21.1,41C4.6,41,0.6,37,0.6,20.5C0.6,4,4.6,0,21.1,0c16.5,0,20.5,4,20.5,20.5C41.6,37,37.7,41,21.1,41z
		 M15.3,10.1L8.9,24.8c-0.3,0.7-0.5,1.6-0.5,2.4c0,3.6,2.5,6.2,6.2,6.2c1.2,0,2.2-0.3,3.2-0.6l0,0c1-0.3,2.1-0.7,3.4-0.7
		c1.3,0,2.4,0.3,3.4,0.7l0,0c1,0.3,2,0.6,3.2,0.6c3.6,0,6.2-2.5,6.2-6.2c0-0.8-0.3-1.7-0.5-2.4l-6.4-14.6c-1.1-2.5-3.2-3.8-5.8-3.8
		S16.4,7.7,15.3,10.1z M14.8,27.1l6.3-14.4l6.3,14.4c-1.8-0.9-4-1.3-6.3-1.3C18.8,25.8,16.7,26.2,14.8,27.1z"/>
</g>
</svg>
