<svg width="86" height="43" viewBox="0 0 86 43" fill="none" xmlns="http://www.w3.org/2000/svg">
<path d="M23.5659 9.74365C22.4242 8.004 22.1524 7.77295 19.8283 7.77295C19.8147 7.77295 19.8147 7.77295 19.8011 7.77295C19.7875 7.77295 19.7875 7.77295 19.774 7.77295C17.4499 7.77295 17.1917 8.004 16.0364 9.74365C14.9627 11.3746 4.30737 30.8913 4.30737 31.4349C4.30737 32.2232 4.51124 32.9707 5.24515 34.0308C5.99266 35.1045 7.28381 35.7025 8.22159 34.7511C8.86037 34.1124 15.6967 22.3289 18.9993 17.8711C19.3934 17.3139 20.2089 17.3139 20.6166 17.8711C23.9192 22.3289 30.7555 34.1124 31.3943 34.7511C32.3321 35.7025 33.6232 35.1045 34.3707 34.0308C35.1046 32.9707 35.3085 32.2232 35.3085 31.4349C35.2949 30.8913 24.6396 11.361 23.5659 9.74365Z" fill="#1173B6"/>
<path d="M39.1167 13.7808H47.6231V15.8945H41.6194V19.4982H46.691V21.6193H41.6194V25.788H47.8359V27.9018H39.1167V13.7808Z" fill="white"/>
<path d="M52.3643 22.3606L49.4506 17.6707L52.1515 17.3037C52.1515 17.3037 53.9497 20.856 54.0891 21.1055L56.2102 17.3037H58.779L55.8873 22.3606C55.8065 22.5 55.8139 22.6688 55.8946 22.8009L59.0212 27.6083L56.2836 27.9018L54.0964 23.9312C53.935 24.2321 51.8286 27.9018 51.8286 27.9018H49.0249L52.357 22.8156C52.4451 22.6762 52.4524 22.5 52.3643 22.3606Z" fill="white"/>
<path d="M62.9478 28.7606V31.7184L60.467 32.0854V17.2964H62.5147L62.6909 18.4194H62.779C63.2267 18.0451 63.7184 17.7221 64.2689 17.4506C64.8193 17.179 65.3844 17.0396 65.9716 17.0396C66.6322 17.0396 67.2193 17.1643 67.7331 17.4139C68.2468 17.6634 68.6798 18.0304 69.0395 18.5074C69.3991 18.9845 69.6707 19.5496 69.8615 20.2102C70.045 20.8707 70.1404 21.612 70.1404 22.434C70.1404 23.3441 70.0156 24.1514 69.7661 24.8634C69.5165 25.5753 69.1789 26.1698 68.7606 26.6542C68.3422 27.1386 67.8578 27.5056 67.3147 27.7624C66.7643 28.0193 66.1991 28.1514 65.612 28.1514C65.1496 28.1514 64.6945 28.0487 64.2322 27.8505C63.7698 27.6523 63.3221 27.3588 62.8964 26.9845L62.9478 28.7606ZM62.9478 25.223C63.3368 25.5533 63.7111 25.7881 64.0707 25.9129C64.4303 26.045 64.7679 26.1037 65.0835 26.1037C65.7881 26.1037 66.3753 25.7955 66.8523 25.1863C67.3294 24.5771 67.5643 23.667 67.5643 22.456C67.5643 21.3918 67.3808 20.5625 67.0211 19.9753C66.6615 19.3882 66.0817 19.0872 65.2744 19.0872C64.5257 19.0872 63.7478 19.4836 62.9404 20.2762V25.223H62.9478Z" fill="white"/>
<path d="M71.623 22.6102C71.623 21.7294 71.7625 20.9515 72.0341 20.2542C72.3056 19.5643 72.6799 18.9772 73.1423 18.5074C73.612 18.0304 74.1478 17.6707 74.7496 17.4139C75.3515 17.1643 75.99 17.0396 76.6505 17.0396C77.3111 17.0396 77.9496 17.1643 78.5588 17.4139C79.168 17.6634 79.7037 18.0304 80.1661 18.5074C80.6285 18.9845 80.9955 19.5643 81.2744 20.2542C81.5533 20.9441 81.6927 21.7294 81.6927 22.6102C81.6927 23.4909 81.5533 24.2689 81.2744 24.9661C80.9955 25.656 80.6212 26.2432 80.1661 26.7129C79.7037 27.19 79.168 27.5496 78.5588 27.7918C77.9496 28.034 77.3111 28.1588 76.6505 28.1588C75.99 28.1588 75.3588 28.034 74.7496 27.7918C74.1405 27.5496 73.612 27.19 73.1423 26.7129C72.6726 26.2358 72.3056 25.656 72.0341 24.9661C71.7625 24.2689 71.623 23.4909 71.623 22.6102ZM74.1698 22.6102C74.1698 23.6744 74.39 24.5258 74.8304 25.1716C75.2707 25.8102 75.8799 26.1331 76.6579 26.1331C77.4359 26.1331 78.045 25.8102 78.4927 25.1716C78.9404 24.5331 79.1606 23.6817 79.1606 22.6102C79.1606 21.5313 78.9404 20.6726 78.4927 20.034C78.045 19.3955 77.4359 19.0726 76.6579 19.0726C75.8799 19.0726 75.2707 19.3955 74.8304 20.034C74.39 20.6726 74.1698 21.5313 74.1698 22.6102Z" fill="white"/>
</svg>
