<svg width="1250" height="87" viewBox="0 0 1250 87" fill="none" xmlns="http://www.w3.org/2000/svg">
<mask id="path-1-outside-1_1428_493" maskUnits="userSpaceOnUse" x="-2" y="-2" width="1255" height="91" fill="black">
<rect fill="white" x="-2" y="-2" width="1255" height="91"/>
<path d="M18.5096 39.57H58.1576V54.91H18.5096V39.57ZM19.9256 85H0.809626V2.39999H63.2316V17.74H19.9256V85ZM109.591 85V2.39999H145.345C152.74 2.39999 159.112 3.61933 164.461 6.058C169.81 8.41799 173.94 11.84 176.851 16.324C179.762 20.808 181.217 26.1573 181.217 32.372C181.217 38.508 179.762 43.818 176.851 48.302C173.94 52.7073 169.81 56.09 164.461 58.45C159.112 60.81 152.74 61.99 145.345 61.99H120.211L128.707 53.612V85H109.591ZM162.101 85L141.451 55.028H161.865L182.751 85H162.101ZM128.707 55.736L120.211 46.768H144.283C150.183 46.768 154.588 45.5093 157.499 42.992C160.41 40.396 161.865 36.856 161.865 32.372C161.865 27.8093 160.41 24.2693 157.499 21.752C154.588 19.2347 150.183 17.976 144.283 17.976H120.211L128.707 8.89V55.736ZM247.362 35.676H287.128V50.544H247.362V35.676ZM248.778 69.66H293.736V85H229.78V2.39999H292.202V17.74H248.778V69.66ZM342.364 85V2.39999H358.176L406.91 61.872H399.24V2.39999H418.12V85H402.426L353.574 25.528H361.244V85H342.364ZM510.611 86.416C504.239 86.416 498.3 85.3933 492.793 83.348C487.365 81.224 482.645 78.2347 478.633 74.38C474.621 70.5253 471.474 66.002 469.193 60.81C466.99 55.618 465.889 49.9147 465.889 43.7C465.889 37.4853 466.99 31.782 469.193 26.59C471.474 21.398 474.621 16.8747 478.633 13.02C482.724 9.16533 487.483 6.21533 492.911 4.16999C498.339 2.046 504.278 0.983999 510.729 0.983999C517.888 0.983999 524.338 2.24267 530.081 4.76C535.902 7.19866 540.78 10.8173 544.713 15.616L532.441 26.944C529.609 23.7187 526.462 21.3193 523.001 19.746C519.54 18.094 515.764 17.268 511.673 17.268C507.818 17.268 504.278 17.8973 501.053 19.156C497.828 20.4147 495.035 22.224 492.675 24.584C490.315 26.944 488.466 29.7367 487.129 32.962C485.87 36.1873 485.241 39.7667 485.241 43.7C485.241 47.6333 485.87 51.2127 487.129 54.438C488.466 57.6633 490.315 60.456 492.675 62.816C495.035 65.176 497.828 66.9853 501.053 68.244C504.278 69.5027 507.818 70.132 511.673 70.132C515.764 70.132 519.54 69.3453 523.001 67.772C526.462 66.12 529.609 63.642 532.441 60.338L544.713 71.666C540.78 76.4647 535.902 80.1227 530.081 82.64C524.338 85.1573 517.848 86.416 510.611 86.416ZM647.68 2.39999H666.796V85H647.68V2.39999ZM610.156 85H591.04V2.39999H610.156V85ZM649.096 51.134H608.74V34.968H649.096V51.134ZM713.621 67.654V54.792L752.561 2.39999H772.621L734.507 54.792L725.185 52.078H790.203V67.654H713.621ZM758.107 85V67.654L758.697 52.078V36.62H776.751V85H758.107ZM867.948 85V2.39999H905.472C914.44 2.39999 922.346 4.13066 929.19 7.592C936.034 10.9747 941.384 15.734 945.238 21.87C949.093 28.006 951.02 35.2827 951.02 43.7C951.02 52.0387 949.093 59.3153 945.238 65.53C941.384 71.666 936.034 76.4647 929.19 79.926C922.346 83.3087 914.44 85 905.472 85H867.948ZM887.064 69.306H904.528C910.035 69.306 914.794 68.2833 918.806 66.238C922.897 64.114 926.044 61.1247 928.246 57.27C930.528 53.4153 931.668 48.892 931.668 43.7C931.668 38.4293 930.528 33.906 928.246 30.13C926.044 26.2753 922.897 23.3253 918.806 21.28C914.794 19.156 910.035 18.094 904.528 18.094H887.064V69.306ZM1016.44 35.676H1056.2V50.544H1016.44V35.676ZM1017.85 69.66H1062.81V85H998.855V2.39999H1061.28V17.74H1017.85V69.66ZM1136.22 85L1100.58 2.39999H1121.23L1152.38 75.56H1140.23L1171.85 2.39999H1190.85L1155.1 85H1136.22ZM1238.56 85.944C1235.41 85.944 1232.7 84.882 1230.42 82.758C1228.21 80.5553 1227.11 77.7627 1227.11 74.38C1227.11 70.9973 1228.21 68.2833 1230.42 66.238C1232.7 64.114 1235.41 63.052 1238.56 63.052C1241.78 63.052 1244.5 64.114 1246.7 66.238C1248.9 68.2833 1250.01 70.9973 1250.01 74.38C1250.01 77.7627 1248.9 80.5553 1246.7 82.758C1244.5 84.882 1241.78 85.944 1238.56 85.944Z"/>
</mask>
<path d="M18.5096 39.57V37.57H16.5096V39.57H18.5096ZM58.1576 39.57H60.1576V37.57H58.1576V39.57ZM58.1576 54.91V56.91H60.1576V54.91H58.1576ZM18.5096 54.91H16.5096V56.91H18.5096V54.91ZM19.9256 85V87H21.9256V85H19.9256ZM0.809626 85H-1.19037V87H0.809626V85ZM0.809626 2.39999V0.399994H-1.19037V2.39999H0.809626ZM63.2316 2.39999H65.2316V0.399994H63.2316V2.39999ZM63.2316 17.74V19.74H65.2316V17.74H63.2316ZM19.9256 17.74V15.74H17.9256V17.74H19.9256ZM18.5096 41.57H58.1576V37.57H18.5096V41.57ZM56.1576 39.57V54.91H60.1576V39.57H56.1576ZM58.1576 52.91H18.5096V56.91H58.1576V52.91ZM20.5096 54.91V39.57H16.5096V54.91H20.5096ZM19.9256 83H0.809626V87H19.9256V83ZM2.80963 85V2.39999H-1.19037V85H2.80963ZM0.809626 4.39999H63.2316V0.399994H0.809626V4.39999ZM61.2316 2.39999V17.74H65.2316V2.39999H61.2316ZM63.2316 15.74H19.9256V19.74H63.2316V15.74ZM17.9256 17.74V85H21.9256V17.74H17.9256ZM109.591 85H107.591V87H109.591V85ZM109.591 2.39999V0.399994H107.591V2.39999H109.591ZM164.461 6.05799L163.631 7.87781L163.642 7.88289L163.654 7.88783L164.461 6.05799ZM176.851 16.324L175.173 17.4129L176.851 16.324ZM176.851 48.302L178.52 49.4045L178.524 49.3977L178.528 49.3909L176.851 48.302ZM164.461 58.45L165.268 60.2798L164.461 58.45ZM120.211 61.99L118.807 60.5659L115.334 63.99H120.211V61.99ZM128.707 53.612H130.707V48.8309L127.303 52.1879L128.707 53.612ZM128.707 85V87H130.707V85H128.707ZM162.101 85L160.454 86.1347L161.05 87H162.101V85ZM141.451 55.028V53.028H137.644L139.804 56.1627L141.451 55.028ZM161.865 55.028L163.506 53.8845L162.909 53.028H161.865V55.028ZM182.751 85V87H186.582L184.392 83.8565L182.751 85ZM128.707 55.736L127.255 57.1115L130.707 60.7552V55.736H128.707ZM120.211 46.768V44.768H115.561L118.759 48.1435L120.211 46.768ZM157.499 42.992L158.807 44.5047L158.819 44.4947L158.83 44.4846L157.499 42.992ZM120.211 17.976L118.75 16.61L115.603 19.976H120.211V17.976ZM128.707 8.89H130.707V3.82282L127.246 7.52401L128.707 8.89ZM111.591 85V2.39999H107.591V85H111.591ZM109.591 4.39999H145.345V0.399994H109.591V4.39999ZM145.345 4.39999C152.525 4.39999 158.6 5.58434 163.631 7.87781L165.29 4.23818C159.623 1.65431 152.954 0.399994 145.345 0.399994V4.39999ZM163.654 7.88783C168.682 10.1061 172.494 13.2857 175.173 17.4129L178.528 15.2351C175.386 10.3942 170.939 6.72989 165.268 4.22816L163.654 7.88783ZM175.173 17.4129C177.841 21.5228 179.217 26.4796 179.217 32.372H183.217C183.217 25.835 181.682 20.0932 178.528 15.2351L175.173 17.4129ZM179.217 32.372C179.217 38.1801 177.844 43.0991 175.173 47.2131L178.528 49.3909C181.679 44.5368 183.217 38.8359 183.217 32.372H179.217ZM175.182 47.1995C172.505 51.251 168.691 54.3978 163.654 56.6202L165.268 60.2798C170.929 57.7822 175.375 54.1637 178.52 49.4045L175.182 47.1995ZM163.654 56.6202C158.616 58.8424 152.533 59.99 145.345 59.99V63.99C152.946 63.99 159.607 62.7776 165.268 60.2798L163.654 56.6202ZM145.345 59.99H120.211V63.99H145.345V59.99ZM121.615 63.4141L130.111 55.0361L127.303 52.1879L118.807 60.5659L121.615 63.4141ZM126.707 53.612V85H130.707V53.612H126.707ZM128.707 83H109.591V87H128.707V83ZM163.748 83.8653L143.098 53.8933L139.804 56.1627L160.454 86.1347L163.748 83.8653ZM141.451 57.028H161.865V53.028H141.451V57.028ZM160.224 56.1715L181.11 86.1435L184.392 83.8565L163.506 53.8845L160.224 56.1715ZM182.751 83H162.101V87H182.751V83ZM130.159 54.3605L121.663 45.3925L118.759 48.1435L127.255 57.1115L130.159 54.3605ZM120.211 48.768H144.283V44.768H120.211V48.768ZM144.283 48.768C150.418 48.768 155.383 47.4666 158.807 44.5047L156.191 41.4793C153.794 43.5521 149.948 44.768 144.283 44.768V48.768ZM158.83 44.4846C162.232 41.4506 163.865 37.3318 163.865 32.372H159.865C159.865 36.3802 158.587 39.3414 156.168 41.4994L158.83 44.4846ZM163.865 32.372C163.865 27.3472 162.24 23.2078 158.807 20.2393L156.191 23.2647C158.58 25.3309 159.865 28.2715 159.865 32.372H163.865ZM158.807 20.2393C155.383 17.2774 150.418 15.976 144.283 15.976V19.976C149.948 19.976 153.794 21.1919 156.191 23.2647L158.807 20.2393ZM144.283 15.976H120.211V19.976H144.283V15.976ZM121.672 19.342L130.168 10.256L127.246 7.52401L118.75 16.61L121.672 19.342ZM126.707 8.89V55.736H130.707V8.89H126.707ZM247.362 35.676V33.676H245.362V35.676H247.362ZM287.128 35.676H289.128V33.676H287.128V35.676ZM287.128 50.544V52.544H289.128V50.544H287.128ZM247.362 50.544H245.362V52.544H247.362V50.544ZM248.778 69.66H246.778V71.66H248.778V69.66ZM293.736 69.66H295.736V67.66H293.736V69.66ZM293.736 85V87H295.736V85H293.736ZM229.78 85H227.78V87H229.78V85ZM229.78 2.39999V0.399994H227.78V2.39999H229.78ZM292.202 2.39999H294.202V0.399994H292.202V2.39999ZM292.202 17.74V19.74H294.202V17.74H292.202ZM248.778 17.74V15.74H246.778V17.74H248.778ZM247.362 37.676H287.128V33.676H247.362V37.676ZM285.128 35.676V50.544H289.128V35.676H285.128ZM287.128 48.544H247.362V52.544H287.128V48.544ZM249.362 50.544V35.676H245.362V50.544H249.362ZM248.778 71.66H293.736V67.66H248.778V71.66ZM291.736 69.66V85H295.736V69.66H291.736ZM293.736 83H229.78V87H293.736V83ZM231.78 85V2.39999H227.78V85H231.78ZM229.78 4.39999H292.202V0.399994H229.78V4.39999ZM290.202 2.39999V17.74H294.202V2.39999H290.202ZM292.202 15.74H248.778V19.74H292.202V15.74ZM246.778 17.74V69.66H250.778V17.74H246.778ZM342.364 85H340.364V87H342.364V85ZM342.364 2.39999V0.399994H340.364V2.39999H342.364ZM358.176 2.39999L359.723 1.13235L359.123 0.399994H358.176V2.39999ZM406.91 61.872V63.872H411.135L408.457 60.6044L406.91 61.872ZM399.24 61.872H397.24V63.872H399.24V61.872ZM399.24 2.39999V0.399994H397.24V2.39999H399.24ZM418.12 2.39999H420.12V0.399994H418.12V2.39999ZM418.12 85V87H420.12V85H418.12ZM402.426 85L400.881 86.2695L401.481 87H402.426V85ZM353.574 25.528V23.528H349.343L352.029 26.7975L353.574 25.528ZM361.244 25.528H363.244V23.528H361.244V25.528ZM361.244 85V87H363.244V85H361.244ZM344.364 85V2.39999H340.364V85H344.364ZM342.364 4.39999H358.176V0.399994H342.364V4.39999ZM356.629 3.66764L405.363 63.1396L408.457 60.6044L359.723 1.13235L356.629 3.66764ZM406.91 59.872H399.24V63.872H406.91V59.872ZM401.24 61.872V2.39999H397.24V61.872H401.24ZM399.24 4.39999H418.12V0.399994H399.24V4.39999ZM416.12 2.39999V85H420.12V2.39999H416.12ZM418.12 83H402.426V87H418.12V83ZM403.972 83.7305L355.12 24.2585L352.029 26.7975L400.881 86.2695L403.972 83.7305ZM353.574 27.528H361.244V23.528H353.574V27.528ZM359.244 25.528V85H363.244V25.528H359.244ZM361.244 83H342.364V87H361.244V83ZM492.793 83.348L492.064 85.2105L492.08 85.2168L492.097 85.2228L492.793 83.348ZM478.633 74.38L477.247 75.8222L478.633 74.38ZM469.193 60.81L467.352 61.5911L467.357 61.6029L467.362 61.6145L469.193 60.81ZM469.193 26.59L467.362 25.7854L467.357 25.7971L467.352 25.8089L469.193 26.59ZM478.633 13.02L477.262 11.5644L477.254 11.5711L477.247 11.5778L478.633 13.02ZM492.911 4.16999L493.616 6.04153L493.628 6.03708L493.64 6.03248L492.911 4.16999ZM530.081 4.76L529.278 6.59174L529.293 6.59833L529.308 6.60468L530.081 4.76ZM544.713 15.616L546.07 17.0856L547.455 15.8066L546.26 14.3481L544.713 15.616ZM532.441 26.944L530.938 28.2636L532.291 29.8043L533.798 28.4136L532.441 26.944ZM523.001 19.746L522.14 21.551L522.156 21.559L522.174 21.5667L523.001 19.746ZM492.675 24.584L494.089 25.9982L492.675 24.584ZM487.129 32.962L485.282 32.196L485.274 32.2154L485.266 32.2349L487.129 32.962ZM487.129 54.438L485.266 55.1651L485.274 55.1846L485.282 55.204L487.129 54.438ZM492.675 62.816L491.261 64.2302L492.675 62.816ZM523.001 67.772L523.829 69.5927L523.846 69.585L523.863 69.577L523.001 67.772ZM532.441 60.338L533.798 58.8684L532.273 57.461L530.923 59.0364L532.441 60.338ZM544.713 71.666L546.26 72.9339L547.455 71.4754L546.07 70.1964L544.713 71.666ZM530.081 82.64L529.287 80.8043L529.278 80.8083L530.081 82.64ZM510.611 84.416C504.457 84.416 498.755 83.429 493.489 81.4732L492.097 85.2228C497.844 87.3577 504.022 88.416 510.611 88.416V84.416ZM493.522 81.4855C488.326 79.4525 483.833 76.602 480.019 72.9378L477.247 75.8222C481.458 79.8673 486.404 82.9955 492.064 85.2105L493.522 81.4855ZM480.019 72.9378C476.199 69.268 473.202 64.9625 471.024 60.0054L467.362 61.6145C469.747 67.0415 473.043 71.7826 477.247 75.8222L480.019 72.9378ZM471.034 60.0289C468.947 55.1081 467.889 49.6738 467.889 43.7H463.889C463.889 50.1556 465.034 56.1279 467.352 61.5911L471.034 60.0289ZM467.889 43.7C467.889 37.7262 468.947 32.2919 471.034 27.3711L467.352 25.8089C465.034 31.2721 463.889 37.2444 463.889 43.7H467.889ZM471.024 27.3945C473.202 22.4375 476.199 18.132 480.019 14.4622L477.247 11.5778C473.043 15.6174 469.747 20.3585 467.362 25.7854L471.024 27.3945ZM480.005 14.4756C483.897 10.8081 488.428 7.99668 493.616 6.04153L492.206 2.29845C486.539 4.43398 481.551 7.52257 477.262 11.5644L480.005 14.4756ZM493.64 6.03248C498.812 4.00857 504.501 2.984 510.729 2.984V-1.016C504.056 -1.016 497.866 0.0834255 492.182 2.30751L493.64 6.03248ZM510.729 2.984C517.65 2.984 523.822 4.20004 529.278 6.59174L530.884 2.92826C524.855 0.285295 518.125 -1.016 510.729 -1.016V2.984ZM529.308 6.60468C534.834 8.91941 539.444 12.3423 543.166 16.8839L546.26 14.3481C542.116 9.2924 536.971 5.47792 530.854 2.91532L529.308 6.60468ZM543.357 14.1464L531.085 25.4744L533.798 28.4136L546.07 17.0856L543.357 14.1464ZM533.944 25.6244C530.949 22.2135 527.579 19.6301 523.829 17.9253L522.174 21.5667C525.345 23.0085 528.269 25.2238 530.938 28.2636L533.944 25.6244ZM523.863 17.941C520.115 16.1522 516.042 15.268 511.673 15.268V19.268C515.486 19.268 518.965 20.0358 522.14 21.551L523.863 17.941ZM511.673 15.268C507.598 15.268 503.808 15.9341 500.326 17.2928L501.78 21.0192C504.749 19.8606 508.039 19.268 511.673 19.268V15.268ZM500.326 17.2928C496.853 18.6482 493.824 20.6069 491.261 23.1698L494.089 25.9982C496.246 23.8411 498.803 22.1811 501.78 21.0192L500.326 17.2928ZM491.261 23.1698C488.707 25.7239 486.715 28.7396 485.282 32.196L488.977 33.728C490.218 30.7337 491.923 28.1641 494.089 25.9982L491.261 23.1698ZM485.266 32.2349C483.905 35.7213 483.241 39.5515 483.241 43.7H487.241C487.241 39.9819 487.835 36.6533 488.992 33.6891L485.266 32.2349ZM483.241 43.7C483.241 47.8485 483.905 51.6787 485.266 55.1651L488.992 53.7109C487.835 50.7467 487.241 47.4181 487.241 43.7H483.241ZM485.282 55.204C486.715 58.6604 488.707 61.6761 491.261 64.2302L494.089 61.4018C491.923 59.2359 490.218 56.6663 488.977 53.672L485.282 55.204ZM491.261 64.2302C493.824 66.7931 496.853 68.7518 500.326 70.1072L501.78 66.3808C498.803 65.2189 496.246 63.5589 494.089 61.4018L491.261 64.2302ZM500.326 70.1072C503.808 71.466 507.598 72.132 511.673 72.132V68.132C508.039 68.132 504.749 67.5394 501.78 66.3808L500.326 70.1072ZM511.673 72.132C516.027 72.132 520.088 71.293 523.829 69.5927L522.174 65.9513C518.991 67.3977 515.5 68.132 511.673 68.132V72.132ZM523.863 69.577C527.607 67.7897 530.971 65.1269 533.96 61.6396L530.923 59.0364C528.248 62.1571 525.318 64.4503 522.14 65.967L523.863 69.577ZM531.085 61.8076L543.357 73.1356L546.07 70.1964L533.798 58.8684L531.085 61.8076ZM543.166 70.3981C539.44 74.9446 534.823 78.4106 529.287 80.8043L530.875 84.4757C536.982 81.8347 542.12 77.9847 546.26 72.9339L543.166 70.3981ZM529.278 80.8083C523.825 83.1988 517.614 84.416 510.611 84.416V88.416C518.083 88.416 524.852 87.1159 530.884 84.4717L529.278 80.8083ZM647.68 2.39999V0.399994H645.68V2.39999H647.68ZM666.796 2.39999H668.796V0.399994H666.796V2.39999ZM666.796 85V87H668.796V85H666.796ZM647.68 85H645.68V87H647.68V85ZM610.156 85V87H612.156V85H610.156ZM591.04 85H589.04V87H591.04V85ZM591.04 2.39999V0.399994H589.04V2.39999H591.04ZM610.156 2.39999H612.156V0.399994H610.156V2.39999ZM649.096 51.134V53.134H651.096V51.134H649.096ZM608.74 51.134H606.74V53.134H608.74V51.134ZM608.74 34.968V32.968H606.74V34.968H608.74ZM649.096 34.968H651.096V32.968H649.096V34.968ZM647.68 4.39999H666.796V0.399994H647.68V4.39999ZM664.796 2.39999V85H668.796V2.39999H664.796ZM666.796 83H647.68V87H666.796V83ZM649.68 85V2.39999H645.68V85H649.68ZM610.156 83H591.04V87H610.156V83ZM593.04 85V2.39999H589.04V85H593.04ZM591.04 4.39999H610.156V0.399994H591.04V4.39999ZM608.156 2.39999V85H612.156V2.39999H608.156ZM649.096 49.134H608.74V53.134H649.096V49.134ZM610.74 51.134V34.968H606.74V51.134H610.74ZM608.74 36.968H649.096V32.968H608.74V36.968ZM647.096 34.968V51.134H651.096V34.968H647.096ZM713.621 67.654H711.621V69.654H713.621V67.654ZM713.621 54.792L712.016 53.599L711.621 54.1301V54.792H713.621ZM752.561 2.39999V0.399994H751.555L750.956 1.20695L752.561 2.39999ZM772.621 2.39999L774.238 3.57655L776.549 0.399994H772.621V2.39999ZM734.507 54.792L733.948 56.7123L735.297 57.1052L736.124 55.9686L734.507 54.792ZM725.185 52.078V50.078L724.626 53.9983L725.185 52.078ZM790.203 52.078H792.203V50.078H790.203V52.078ZM790.203 67.654V69.654H792.203V67.654H790.203ZM758.107 85H756.107V87H758.107V85ZM758.107 67.654L756.108 67.5783L756.107 67.6161V67.654H758.107ZM758.697 52.078L760.695 52.1537L760.697 52.1159V52.078H758.697ZM758.697 36.62V34.62H756.697V36.62H758.697ZM776.751 36.62H778.751V34.62H776.751V36.62ZM776.751 85V87H778.751V85H776.751ZM715.621 67.654V54.792H711.621V67.654H715.621ZM715.226 55.985L754.166 3.59304L750.956 1.20695L712.016 53.599L715.226 55.985ZM752.561 4.39999H772.621V0.399994H752.561V4.39999ZM771.004 1.22343L732.89 53.6154L736.124 55.9686L774.238 3.57655L771.004 1.22343ZM735.066 52.8717L725.744 50.1577L724.626 53.9983L733.948 56.7123L735.066 52.8717ZM725.185 54.078H790.203V50.078H725.185V54.078ZM788.203 52.078V67.654H792.203V52.078H788.203ZM790.203 65.654H713.621V69.654H790.203V65.654ZM760.107 85V67.654H756.107V85H760.107ZM760.105 67.7297L760.695 52.1537L756.698 52.0023L756.108 67.5783L760.105 67.7297ZM760.697 52.078V36.62H756.697V52.078H760.697ZM758.697 38.62H776.751V34.62H758.697V38.62ZM774.751 36.62V85H778.751V36.62H774.751ZM776.751 83H758.107V87H776.751V83ZM867.948 85H865.948V87H867.948V85ZM867.948 2.39999V0.399994H865.948V2.39999H867.948ZM929.19 7.592L928.288 9.37673L928.296 9.38088L928.304 9.38496L929.19 7.592ZM945.238 21.87L943.545 22.9339L945.238 21.87ZM945.238 65.53L946.932 66.5939L946.938 66.5842L945.238 65.53ZM929.19 79.926L930.076 81.719L930.085 81.7149L930.093 81.7107L929.19 79.926ZM887.064 69.306H885.064V71.306H887.064V69.306ZM918.806 66.238L919.715 68.0198L919.721 68.0164L919.728 68.013L918.806 66.238ZM928.246 57.27L926.525 56.2514L926.517 56.2645L926.51 56.2777L928.246 57.27ZM928.246 30.13L926.51 31.1223L926.522 31.1434L926.534 31.1642L928.246 30.13ZM918.806 21.28L917.871 23.0476L917.891 23.0585L917.912 23.0689L918.806 21.28ZM887.064 18.094V16.094H885.064V18.094H887.064ZM869.948 85V2.39999H865.948V85H869.948ZM867.948 4.39999H905.472V0.399994H867.948V4.39999ZM905.472 4.39999C914.18 4.39999 921.767 6.07905 928.288 9.37673L930.093 5.80727C922.925 2.18228 914.701 0.399994 905.472 0.399994V4.39999ZM928.304 9.38496C934.835 12.613 939.897 17.1279 943.545 22.9339L946.932 20.8061C942.87 14.3401 937.233 9.3363 930.076 5.79904L928.304 9.38496ZM943.545 22.9339C947.169 28.7025 949.02 35.5971 949.02 43.7H953.02C953.02 34.9682 951.017 27.3095 946.932 20.8061L943.545 22.9339ZM949.02 43.7C949.02 51.7196 947.171 58.6203 943.539 64.4758L946.938 66.5842C951.015 60.0104 953.02 52.3577 953.02 43.7H949.02ZM943.545 64.4661C939.895 70.2762 934.827 74.8339 928.288 78.1413L930.093 81.7107C937.241 78.0954 942.872 73.0558 946.932 66.5939L943.545 64.4661ZM928.304 78.133C921.78 81.3577 914.186 83 905.472 83V87C914.694 87 922.913 85.2597 930.076 81.719L928.304 78.133ZM905.472 83H867.948V87H905.472V83ZM887.064 71.306H904.528V67.306H887.064V71.306ZM904.528 71.306C910.281 71.306 915.365 70.237 919.715 68.0198L917.898 64.4562C914.223 66.3296 909.789 67.306 904.528 67.306V71.306ZM919.728 68.013C924.146 65.719 927.582 62.4639 929.983 58.2623L926.51 56.2777C924.505 59.7854 921.648 62.509 917.885 64.463L919.728 68.013ZM929.967 58.2886C932.459 54.0793 933.668 49.1926 933.668 43.7H929.668C929.668 48.5914 928.597 52.7514 926.525 56.2514L929.967 58.2886ZM933.668 43.7C933.668 38.1362 932.462 33.2398 929.958 29.0958L926.534 31.1642C928.593 34.5722 929.668 38.7225 929.668 43.7H933.668ZM929.983 29.1377C927.578 24.9294 924.133 21.7074 919.701 19.4911L917.912 23.0689C921.661 24.9433 924.509 27.6212 926.51 31.1223L929.983 29.1377ZM919.742 19.5124C915.387 17.2065 910.292 16.094 904.528 16.094V20.094C909.778 20.094 914.202 21.1055 917.871 23.0476L919.742 19.5124ZM904.528 16.094H887.064V20.094H904.528V16.094ZM885.064 18.094V69.306H889.064V18.094H885.064ZM1016.44 35.676V33.676H1014.44V35.676H1016.44ZM1056.2 35.676H1058.2V33.676H1056.2V35.676ZM1056.2 50.544V52.544H1058.2V50.544H1056.2ZM1016.44 50.544H1014.44V52.544H1016.44V50.544ZM1017.85 69.66H1015.85V71.66H1017.85V69.66ZM1062.81 69.66H1064.81V67.66H1062.81V69.66ZM1062.81 85V87H1064.81V85H1062.81ZM998.855 85H996.855V87H998.855V85ZM998.855 2.39999V0.399994H996.855V2.39999H998.855ZM1061.28 2.39999H1063.28V0.399994H1061.28V2.39999ZM1061.28 17.74V19.74H1063.28V17.74H1061.28ZM1017.85 17.74V15.74H1015.85V17.74H1017.85ZM1016.44 37.676H1056.2V33.676H1016.44V37.676ZM1054.2 35.676V50.544H1058.2V35.676H1054.2ZM1056.2 48.544H1016.44V52.544H1056.2V48.544ZM1018.44 50.544V35.676H1014.44V50.544H1018.44ZM1017.85 71.66H1062.81V67.66H1017.85V71.66ZM1060.81 69.66V85H1064.81V69.66H1060.81ZM1062.81 83H998.855V87H1062.81V83ZM1000.85 85V2.39999H996.855V85H1000.85ZM998.855 4.39999H1061.28V0.399994H998.855V4.39999ZM1059.28 2.39999V17.74H1063.28V2.39999H1059.28ZM1061.28 15.74H1017.85V19.74H1061.28V15.74ZM1015.85 17.74V69.66H1019.85V17.74H1015.85ZM1136.22 85L1134.38 85.7923L1134.9 87H1136.22V85ZM1100.58 2.39999V0.399994H1097.54L1098.75 3.19226L1100.58 2.39999ZM1121.23 2.39999L1123.07 1.61646L1122.55 0.399994H1121.23V2.39999ZM1152.38 75.56V77.56H1155.41L1154.22 74.7765L1152.38 75.56ZM1140.23 75.56L1138.39 74.7664L1137.19 77.56H1140.23V75.56ZM1171.85 2.39999V0.399994H1170.54L1170.02 1.60644L1171.85 2.39999ZM1190.85 2.39999L1192.69 3.19447L1193.9 0.399994H1190.85V2.39999ZM1155.1 85V87H1156.41L1156.93 85.7945L1155.1 85ZM1138.05 84.2077L1102.42 1.60773L1098.75 3.19226L1134.38 85.7923L1138.05 84.2077ZM1100.58 4.39999H1121.23V0.399994H1100.58V4.39999ZM1119.39 3.18353L1150.54 76.3435L1154.22 74.7765L1123.07 1.61646L1119.39 3.18353ZM1152.38 73.56H1140.23V77.56H1152.38V73.56ZM1142.07 76.3536L1173.69 3.19355L1170.02 1.60644L1138.39 74.7664L1142.07 76.3536ZM1171.85 4.39999H1190.85V0.399994H1171.85V4.39999ZM1189.02 1.60551L1153.26 84.2055L1156.93 85.7945L1192.69 3.19447L1189.02 1.60551ZM1155.1 83H1136.22V87H1155.1V83ZM1230.42 82.758L1229 84.1722L1229.03 84.1975L1229.05 84.2218L1230.42 82.758ZM1230.42 66.238L1231.78 67.7036L1231.78 67.7018L1230.42 66.238ZM1246.7 66.238L1245.31 67.6777L1245.33 67.6908L1245.34 67.7036L1246.7 66.238ZM1246.7 82.758L1248.09 84.1977L1248.1 84.1851L1248.12 84.1722L1246.7 82.758ZM1238.56 83.944C1235.91 83.944 1233.69 83.07 1231.78 81.2942L1229.05 84.2218C1231.71 86.694 1234.91 87.944 1238.56 87.944V83.944ZM1231.83 81.3438C1230.04 79.5503 1229.11 77.2825 1229.11 74.38H1225.11C1225.11 78.2429 1226.39 81.5604 1229 84.1722L1231.83 81.3438ZM1229.11 74.38C1229.11 71.4765 1230.04 69.3211 1231.78 67.7036L1229.06 64.7724C1226.39 67.2456 1225.11 70.5182 1225.11 74.38H1229.11ZM1231.78 67.7018C1233.69 65.926 1235.91 65.052 1238.56 65.052V61.052C1234.91 61.052 1231.71 62.302 1229.05 64.7742L1231.78 67.7018ZM1238.56 65.052C1241.3 65.052 1243.51 65.9341 1245.31 67.6777L1248.09 64.7983C1245.49 62.2939 1242.27 61.052 1238.56 61.052V65.052ZM1245.34 67.7036C1247.08 69.3211 1248.01 71.4765 1248.01 74.38H1252.01C1252.01 70.5182 1250.73 67.2456 1248.06 64.7724L1245.34 67.7036ZM1248.01 74.38C1248.01 77.2825 1247.08 79.5503 1245.29 81.3438L1248.12 84.1722C1250.73 81.5604 1252.01 78.2429 1252.01 74.38H1248.01ZM1245.31 81.3183C1243.51 83.0619 1241.3 83.944 1238.56 83.944V87.944C1242.27 87.944 1245.49 86.7021 1248.09 84.1977L1245.31 81.3183Z" fill="url(#paint0_linear_1428_493)" mask="url(#path-1-outside-1_1428_493)"/>
<defs>
<linearGradient id="paint0_linear_1428_493" x1="1254" y1="43" x2="-9" y2="43" gradientUnits="userSpaceOnUse">
<stop stop-color="#28C8D3"/>
<stop offset="0.5" stop-color="#9747FF"/>
<stop offset="1" stop-color="#7662F9"/>
</linearGradient>
</defs>
</svg>
