<svg width="96" height="48" viewBox="0 0 96 48" fill="none" xmlns="http://www.w3.org/2000/svg">
<path d="M14.3831 43.0665C17.8898 43.0665 20.7365 40.2199 20.7365 36.7132V30.3599H14.3831C10.8765 30.3599 8.02979 33.2065 8.02979 36.7132C8.02979 40.2199 10.8765 43.0665 14.3831 43.0665Z" fill="#0ACF83"/>
<path d="M8.02319 23.9998C8.02319 20.4931 10.8699 17.6465 14.3765 17.6465H20.7299V30.3598H14.3765C10.8699 30.3598 8.02319 27.5132 8.02319 24.0065V23.9998Z" fill="#A259FF"/>
<path d="M8.02319 11.2864C8.02319 7.77977 10.8699 4.93311 14.3765 4.93311H20.7299V17.6464H14.3765C10.8699 17.6464 8.02319 14.7998 8.02319 11.2931V11.2864Z" fill="#F24E1E"/>
<path d="M20.6765 4.93311H27.0298C30.5365 4.93311 33.3832 7.77977 33.3832 11.2864C33.3832 14.7931 30.5365 17.6398 27.0298 17.6398H20.6765V4.93311Z" fill="#FF7262"/>
<path d="M33.4498 23.9998C33.4498 27.5065 30.6032 30.3532 27.0965 30.3532C23.5898 30.3532 20.6765 27.5065 20.6765 23.9998C20.6765 20.4931 23.5232 17.6465 27.0298 17.6465C30.5365 17.6465 33.3832 20.4931 33.3832 23.9998H33.4498Z" fill="#1ABCFE"/>
<path d="M40.3967 15.4668V28.7868H42.1101V22.4268H46.2301V20.7735H42.1101V17.1335H47.4634V15.4668H40.3967ZM50.5634 18.1735C51.1834 18.1735 51.6834 17.6735 51.6834 17.0535C51.6834 16.4335 51.1767 16.0001 50.5634 16.0001C49.9501 16.0001 49.4434 16.5001 49.4434 17.1201C49.4434 17.4201 49.5634 17.7001 49.7767 17.9201C49.9901 18.1401 50.2701 18.2535 50.5767 18.2535L50.5634 18.1735ZM49.6967 19.8535V28.7868H51.3434V19.8535H49.6434H49.6967ZM57.7767 19.5868C55.4967 19.5868 53.9101 21.5868 53.9101 23.8001C53.9101 26.0135 55.5101 28.0001 57.7767 28.0001C58.2484 28.0084 58.7166 27.9184 59.1516 27.7359C59.5866 27.5534 59.9788 27.2824 60.3034 26.9401V28.1268C60.2986 28.8398 60.022 29.5241 59.5301 30.0401C59.2815 30.2937 58.9848 30.4951 58.6574 30.6324C58.33 30.7698 57.9785 30.8404 57.6234 30.8401C57.0782 30.8229 56.5499 30.6468 56.1034 30.3335L55.2367 31.8201C55.9023 32.2482 56.671 32.4888 57.4618 32.5167C58.2526 32.5445 59.0363 32.3586 59.7303 31.9785C60.4244 31.5984 61.0031 31.0381 61.4054 30.3568C61.8078 29.6754 62.019 28.8981 62.0167 28.1068V19.8401H60.3034V20.6401C59.9788 20.2978 59.5866 20.0268 59.1516 19.8443C58.7166 19.6618 58.2484 19.5785 57.7767 19.5868ZM55.6301 23.8001C55.591 23.3667 55.674 22.931 55.8695 22.5422C56.0651 22.1535 56.3655 21.8272 56.7367 21.6001C57.4967 21.1335 58.4501 21.1335 59.2034 21.6001C59.9567 22.0668 60.3834 22.9201 60.3101 23.8001C60.3491 24.2336 60.2662 24.6693 60.0706 25.058C59.875 25.4468 59.5747 25.7731 59.2034 26.0001C58.4434 26.4668 57.4901 26.4668 56.7367 26.0001C55.9834 25.5335 55.5567 24.6801 55.6301 23.8001Z" fill="white"/>
<path d="M68.1966 21.3335C67.7039 21.3352 67.2318 21.5318 66.8833 21.8802C66.5349 22.2286 66.3384 22.7007 66.3366 23.1935V28.8468H64.6233V19.9135H66.3366V20.6668C66.8566 19.9735 67.6833 19.5735 68.55 19.5868C69.6433 19.5601 70.6633 20.1468 71.2033 21.1001C71.87 20.1668 72.83 19.6001 73.87 19.5868C75.8233 19.5868 77.0366 21.1601 77.0433 23.1068V28.7935H75.33V23.1268C75.3802 22.7738 75.3282 22.4138 75.1803 22.0894C75.0324 21.765 74.7946 21.4898 74.4952 21.2962C74.1958 21.1027 73.8472 20.9989 73.4906 20.9973C73.1341 20.9956 72.7845 21.0961 72.4833 21.2868C72.1837 21.4821 71.9466 21.7593 71.8 22.0855C71.6535 22.4117 71.6037 22.7731 71.6566 23.1268V28.7801H70.01V23.1335C70.0082 22.6407 69.8117 22.1686 69.4632 21.8202C69.1148 21.4718 68.6427 21.2752 68.15 21.2735L68.1966 21.3335ZM86.1966 20.8668C85.8067 20.4599 85.3376 20.137 84.8182 19.918C84.2989 19.699 83.7402 19.5886 83.1766 19.5935C80.6233 19.5935 78.8433 21.7535 78.8433 24.2601C78.8433 26.7668 80.6433 28.9268 83.1766 28.9268C83.7402 28.9317 84.2989 28.8212 84.8182 28.6023C85.3376 28.3833 85.8067 28.0604 86.1966 27.6535V28.6668H87.91V19.7335H86.1966V20.8668ZM80.53 24.3335C80.4433 23.2668 80.9633 22.2401 81.8766 21.6801C82.79 21.1201 83.8766 21.1201 84.85 21.6801C85.2957 21.9568 85.657 22.3505 85.8945 22.8184C86.132 23.2863 86.2365 23.8103 86.1966 24.3335C86.2833 25.4001 85.7633 26.4268 84.85 26.9868C83.9366 27.5468 82.85 27.5468 81.8766 26.9868C81.4308 26.7101 81.0695 26.3164 80.8321 25.8485C80.5946 25.3807 80.4901 24.8566 80.53 24.3335Z" fill="white"/>
</svg>
