<?xml version="1.0" encoding="utf-8"?>
<!-- Generator: Adobe Illustrator 26.5.0, SVG Export Plug-In . SVG Version: 6.00 Build 0)  -->
<svg version="1.1" id="Calque_1" xmlns="http://www.w3.org/2000/svg" xmlns:xlink="http://www.w3.org/1999/xlink" x="0px" y="0px"
	 viewBox="0 0 98 28" style="enable-background:new 0 0 98 28;" xml:space="preserve">
<style type="text/css">
	.st0{fill:#44D1FD;}
	.st1{fill:#050A11;}
	.st2{fill:#1FBCFD;}
	.st3{fill:#08589C;}
</style>
<g>
	<g>
		<path class="st0" d="M14,0.4l8.4,0L8.3,14.5l-3.7,3.7L0.5,14L14,0.4z M13.9,13c0.1-0.1,0.3-0.1,0.5-0.1l8,0l-7.3,7.3L10.9,16
			L13.9,13z"/>
		<path class="st1" d="M34.2,6.3l9.2,0l0,1.8c-2.4,0-4.8,0-7.2,0c-0.2,0.1-0.1,0.3-0.1,0.4l0,4.9c0.1,0.2,0.3,0.1,0.4,0.1l6.1,0v1.8
			c-1.9,0-3.8,0-5.7,0c-0.3,0-0.6,0-0.9,0l0,6.9c-0.6,0-1.2,0-1.8,0l0-15.6L34.2,6.3z M45.6,6.3h1.9l0,10.8l0,5.1
			c-0.6,0-1.2,0-1.8,0c0-0.3,0-0.5,0-0.8L45.6,6.3z M64,7.6l1.9,0l0,3.2c0.9,0,1.8,0,2.8,0c0,0.6,0,1.1,0,1.7c-0.9,0-1.8,0-2.7,0
			l0,6.4c0,0.6,0.1,1.3,0.7,1.6c0.7,0.4,1.5,0.2,2.1-0.2v1.8c-0.7,0.3-1.5,0.3-2.2,0.2c-1-0.2-2-0.9-2.3-1.9
			C63.9,20,64,19.4,64,18.8l0-6.2l0-0.1c-0.7,0-1.3,0-2,0c0-0.6,0-1.2,0-1.7c0.7,0,1.3,0,2,0L64,7.6z M72,7.6c0.6,0,1.3,0,1.9,0l0,0
			c0,1,0,2.1,0,3.1c0.9,0,1.8,0,2.7,0l0,1.7c-0.9,0-1.8,0-2.7,0l0,6.5c0,0.6,0.2,1.2,0.7,1.5c0.7,0.4,1.5,0.2,2.1-0.2l0,1.9
			c-0.7,0.3-1.4,0.4-2.1,0.3c-0.9-0.1-1.8-0.6-2.3-1.5c-0.2-0.4-0.3-0.9-0.3-1.4v-7c-0.7,0-1.3,0-2,0l0-1.8c0.6,0,1.3,0,1.9,0
			C72,9.8,71.9,8.7,72,7.6z M81.1,10.9c1.3-0.5,2.8-0.6,4.1-0.1c1.5,0.5,2.7,1.9,3.1,3.4c0.3,0.9,0.3,1.8,0.2,2.7l-9,0
			c0.1,1,0.4,1.9,1,2.6c0.9,1.1,2.6,1.5,3.9,1.1c1-0.3,1.7-1,2.2-1.9c0.5,0.2,1.1,0.5,1.6,0.8c-0.7,1.4-2.1,2.5-3.7,2.8
			c-1.3,0.2-2.7,0.3-3.9-0.4c-1.6-0.8-2.6-2.3-2.9-4c-0.2-1.3-0.2-2.7,0.3-3.9C78.7,12.6,79.8,11.5,81.1,10.9z M81.8,12.5
			c-1.1,0.5-1.8,1.6-2,2.8l6.9,0c-0.1-0.8-0.4-1.5-0.9-2.1C84.8,12.2,83.1,12,81.8,12.5z M92.7,12.7c0.7-1.7,2.9-2.7,4.7-1.9v2
			c-0.7-0.3-1.6-0.5-2.3-0.2c-1.1,0.3-1.8,1.3-2.1,2.3c-0.2,0.7-0.1,1.4-0.1,2.1c-0.1,0.9,0,1.9,0,2.8c0,0.8,0,1.6,0,2.4
			c-0.6,0-1.3,0-1.9,0c0-2.4,0-4.8,0-7.3l0-4.1c0.6,0,1.2,0,1.8,0C92.7,11.5,92.6,12.1,92.7,12.7z M50.2,10.8c0.6,0,1.3,0,1.9,0
			l0,6.7c0,0.8,0.1,1.7,0.7,2.4c0.7,0.8,2,1,3,0.6c1.3-0.5,2.3-1.9,2.2-3.3l0-6.5l1.9,0l0,11.3c-0.6,0-1.2,0-1.8,0l0-1.6
			c-0.4,0.5-0.8,1-1.4,1.3c-1.2,0.7-2.6,0.8-3.9,0.5c-0.8-0.3-1.6-0.8-2-1.6c-0.5-0.8-0.6-1.8-0.7-2.8L50.2,10.8z"/>
		<path class="st2" d="M6.7,20.2l4.2-4.2l4.2,4.2l0,0l-4.2,4.2L6.7,20.2z"/>
		<path class="st3" d="M10.9,24.4l4.2-4.2l7.3,7.3c-2.7,0-5.5,0-8.2,0c-0.2,0-0.3-0.1-0.4-0.2L10.9,24.4z"/>
	</g>
</g>
</svg>
