<svg width="98" height="28" viewBox="0 0 98 28" fill="none" xmlns="http://www.w3.org/2000/svg">
<g clip-path="url(#clip0_1449_688)">
<path d="M14.014 0.420886L22.4124 0.411621L8.32221 14.5094L4.65004 18.1649L0.471924 13.9772L14.014 0.420886ZM13.9359 13.0085C14.0449 12.8644 14.2454 12.9354 14.3976 12.9169L22.4052 12.919L15.1071 20.2175L10.9074 16.0391L13.9359 13.0085Z" fill="#44D1FD"/>
<path d="M34.2169 6.30127L43.3721 6.30436L43.3711 8.10892C40.9761 8.10892 38.5801 8.10171 36.1841 8.11201C36.001 8.17274 36.0874 8.4023 36.0669 8.54333L36.0741 13.397C36.1347 13.5792 36.3651 13.4917 36.507 13.5144L42.6523 13.5113V15.3138C40.7417 15.3127 38.832 15.3127 36.9214 15.3138C36.6376 15.3127 36.3507 15.2952 36.0699 15.3436L36.0484 22.1954C35.4324 22.1707 34.8174 22.1933 34.2015 22.1799L34.2004 6.59259L34.2169 6.30127ZM45.5923 6.30436H47.4721L47.4731 17.0885L47.4526 22.1666C46.8407 22.1552 46.2288 22.1522 45.618 22.1686C45.5707 21.9174 45.5902 21.6622 45.5902 21.4089L45.5923 6.30436ZM63.9912 7.64156L65.8772 7.64259L65.8803 10.8338C66.8027 10.8564 67.7302 10.7926 68.6506 10.8657C68.6249 11.438 68.6465 12.0104 68.6362 12.5827C67.7189 12.5848 66.8027 12.592 65.8864 12.5786L65.8792 18.9342C65.8988 19.523 66.0242 20.2344 66.596 20.538C67.249 20.9097 68.0511 20.7347 68.6691 20.3764V22.2252C67.9883 22.5341 67.2119 22.5711 66.4808 22.4713C65.4504 22.3138 64.4632 21.6107 64.1516 20.5885C63.9449 20.0285 63.9922 19.4242 63.9881 18.8395L63.984 12.6497L63.9377 12.5972C63.2868 12.5622 62.6338 12.6023 61.9818 12.5797C61.986 11.997 61.9592 11.4144 61.9962 10.8327C62.6585 10.8214 63.3238 10.8626 63.985 10.8122L63.9912 7.64156ZM71.9587 7.63539C72.586 7.657 73.2133 7.62818 73.8395 7.6498L73.8827 7.69715C73.9064 8.74509 73.8509 9.79612 73.9074 10.842C74.801 10.8255 75.6947 10.8389 76.5872 10.8338L76.5934 12.5694C75.6947 12.6033 74.7928 12.5827 73.894 12.5776L73.8838 19.0433C73.8827 19.6064 74.0452 20.2724 74.5892 20.5494C75.2566 20.9138 76.0659 20.7264 76.686 20.3538L76.6839 22.2129C76.0227 22.5114 75.2771 22.5691 74.5635 22.4867C73.637 22.3632 72.73 21.8392 72.295 20.9899C72.0852 20.5452 71.968 20.0532 71.9484 19.5622V12.5848C71.2975 12.5838 70.6476 12.5869 69.9977 12.5848L70.0018 10.8276C70.6425 10.8451 71.2831 10.8224 71.9238 10.8441C71.9916 9.77759 71.9186 8.70392 71.9587 7.63539ZM81.1129 10.8935C82.4148 10.353 83.9172 10.3427 85.2468 10.7957C86.7698 11.3217 87.9482 12.6517 88.3801 14.1948C88.6629 15.0502 88.6516 15.9592 88.6115 16.8486L79.6599 16.8579C79.7339 17.8122 80.0188 18.7849 80.681 19.5014C81.622 20.5998 83.2416 21.0074 84.6093 20.5761C85.5687 20.293 86.3173 19.5539 86.8099 18.7047C87.3549 18.9486 87.8845 19.2266 88.4274 19.4767C87.685 20.8932 86.3348 22.0183 84.7481 22.323C83.4452 22.567 82.0199 22.5732 80.825 21.9288C79.2743 21.1577 78.2069 19.5879 77.9025 17.8997C77.6814 16.6026 77.7503 15.2304 78.2377 13.9992C78.7488 12.6476 79.7823 11.4772 81.1129 10.8935ZM81.8214 12.521C80.7263 13.0274 80.0208 14.1526 79.8008 15.3138L86.6659 15.2922C86.5569 14.5335 86.2875 13.7624 85.7322 13.2138C84.7594 12.1699 83.0966 11.9661 81.8214 12.521ZM92.6868 12.6702C93.4035 10.9274 95.6052 10.0123 97.3462 10.7422V12.7763C96.615 12.488 95.7954 12.3099 95.0232 12.5374C93.9681 12.8514 93.1876 13.7933 92.8883 14.8299C92.6827 15.5299 92.7598 16.2608 92.768 16.9783C92.6878 17.9069 92.8081 18.8364 92.7475 19.7649C92.7968 20.5669 92.7043 21.3688 92.7721 22.1717C92.1325 22.2026 91.4929 22.1697 90.8543 22.1913C90.8173 19.7711 90.8492 17.3499 90.8389 14.9288L90.8533 10.8533C91.4528 10.8698 92.0534 10.8513 92.6539 10.8657C92.7084 11.4669 92.5871 12.0711 92.6868 12.6702ZM50.1684 10.8307C50.8059 10.8574 51.4486 10.7926 52.0831 10.8647L52.0739 17.6114C52.0677 18.436 52.1849 19.3367 52.7546 19.977C53.4899 20.7923 54.7352 20.9416 55.7409 20.6194C57.0849 20.1376 58.0228 18.7129 57.9683 17.2882L57.9888 10.8307L59.9087 10.8348L59.8974 22.1635C59.2886 22.1532 58.6809 22.1635 58.0732 22.1563L58.066 20.5442C57.6721 21.0394 57.2587 21.5407 56.6942 21.8526C55.5383 22.5824 54.0719 22.6792 52.7772 22.3055C51.9422 22.0533 51.2152 21.4676 50.7967 20.7017C50.3 19.8597 50.1745 18.8642 50.1458 17.9048L50.1684 10.8307Z" fill="white"/>
<path d="M6.72119 20.2247L10.9075 16.0391L15.1072 20.2174L15.1247 20.236L10.9086 24.4174L6.72119 20.2247Z" fill="#1FBCFD"/>
<path d="M10.9087 24.4178L15.1249 20.2363L22.4085 27.5349C19.6649 27.541 16.9224 27.5328 14.1798 27.539C14.0235 27.574 13.9268 27.4309 13.8271 27.3424L10.9087 24.4178Z" fill="#08589C"/>
</g>
<defs>
<clipPath id="clip0_1449_688">
<rect width="98" height="28" fill="white"/>
</clipPath>
</defs>
</svg>
