<?xml version="1.0" encoding="utf-8"?>
<!-- Generator: Adobe Illustrator 26.5.0, SVG Export Plug-In . SVG Version: 6.00 Build 0)  -->
<svg version="1.1" id="layer" xmlns="http://www.w3.org/2000/svg" xmlns:xlink="http://www.w3.org/1999/xlink" x="0px" y="0px"
	 viewBox="0 0 228.3 213.8" style="enable-background:new 0 0 228.3 213.8;" xml:space="preserve">
<style type="text/css">
	.st0{fill:#3880FF;}
</style>
<g id="icon">
	<path id="Shape" class="st0" d="M114.1,60.9c-25.5,0-46.2,20.7-46.2,46.2s20.7,46.2,46.2,46.2s46.2-20.7,46.2-46.2
		C160.2,81.5,139.5,60.9,114.1,60.9z"/>
	<circle id="Oval" class="st0" cx="180.3" cy="43.9" r="21.1"/>
	<path id="Shape_1_" class="st0" d="M206.2,65l-0.8-1.9l-1.4,1.7c-3.4,3.9-7.9,6.9-12.7,8.7l-1.4,0.6l0.6,1.4
		c4.3,10.1,6.3,20.8,6.3,31.7c0,45.6-37.1,82.8-82.8,82.8s-82.7-37.2-82.7-82.8s37.1-82.8,82.8-82.8c12.4,0,24.2,2.8,35.4,8l1.2,0.6
		l0.6-1.4c2.1-4.8,5.2-9,9.4-12.3l1.7-1.4l-1.9-1c-14.5-7.4-30-11.3-46.4-11.3C58.4,5.6,12.9,51.1,12.9,106.9
		s45.5,101.3,101.3,101.3s101.3-45.5,101.3-101.3C215.3,92.4,212.2,78.4,206.2,65z"/>
</g>
</svg>
