<?xml version="1.0" encoding="utf-8"?>
<!-- Generator: Adobe Illustrator 26.5.0, SVG Export Plug-In . SVG Version: 6.00 Build 0)  -->
<svg version="1.1" id="Calque_1" xmlns="http://www.w3.org/2000/svg" xmlns:xlink="http://www.w3.org/1999/xlink" x="0px" y="0px"
	 viewBox="0 0 77 26" style="enable-background:new 0 0 77 26;" xml:space="preserve">
<style type="text/css">
	.st0{fill:#050A11;}
	.st1{fill:url(#SVGID_1_);}
	.st2{fill:url(#SVGID_00000063617741306961635410000005029490581257691063_);}
	.st3{fill:url(#SVGID_00000071557846290972494410000009037557829581939340_);}
</style>
<path class="st0" d="M29.9,6.2h3v5.9l5.5-5.9h3.6l-5.6,5.7l5.8,7.8h-3.6L34.5,14l-1.6,1.6v4.2h-3V6.2z M40.8,14.6L40.8,14.6
	c0-3,2.4-5.5,5.7-5.5c3.2,0,5.6,2.4,5.6,5.4v0c0,3-2.4,5.4-5.7,5.4C43.2,20,40.8,17.6,40.8,14.6z M49.2,14.6L49.2,14.6
	c0-1.5-1.1-2.9-2.7-2.9c-1.7,0-2.7,1.3-2.7,2.8v0c0,1.5,1.1,2.9,2.7,2.9C48.1,17.5,49.2,16.2,49.2,14.6L49.2,14.6z"/>
<path class="st0" d="M52.9,16.8v-4.9h-1.2V9.4h1.2V6.7h3v2.7h2.5v2.5h-2.5v4.5c0,0.7,0.3,1,1,1c0.5,0,1-0.1,1.5-0.4v2.4
	C57.7,19.8,57,20,56,20C54.1,20,52.9,19.3,52.9,16.8L52.9,16.8z M59.2,5.6h3v14.2h-3V5.6z M63.2,5.6h3.1v2.6h-3.1L63.2,5.6z
	 M63.3,9.4h3v10.4h-3V9.4z M67.4,9.4h3v1.5c0.7-0.9,1.6-1.7,3.1-1.7c2.2,0,3.6,1.5,3.6,3.9v6.7h-3V14c0-1.4-0.7-2.1-1.8-2.1
	c-1.1,0-1.9,0.7-1.9,2.1v5.8h-3L67.4,9.4z"/>
<linearGradient id="SVGID_1_" gradientUnits="userSpaceOnUse" x1="-4.2074" y1="4.3565" x2="19.5987" y2="28.2828" gradientTransform="matrix(1 0 0 -1 0 28)">
	<stop  offset="0.108" style="stop-color:#C757BC"/>
	<stop  offset="0.173" style="stop-color:#CD5CA9"/>
	<stop  offset="0.492" style="stop-color:#E8744F"/>
	<stop  offset="0.716" style="stop-color:#F88316"/>
	<stop  offset="0.823" style="stop-color:#FF8900"/>
</linearGradient>
<path class="st1" d="M12.9,0L0,13.5v12.1l12.9-12.8L25.7,0L12.9,0z"/>
<linearGradient id="SVGID_00000095309489206190092860000008414937395279008655_" gradientUnits="userSpaceOnUse" x1="8.2364" y1="-2.2319" x2="19.84" y2="9.4303" gradientTransform="matrix(1 0 0 -1 0 28)">
	<stop  offset="0.296" style="stop-color:#00AFFF"/>
	<stop  offset="0.694" style="stop-color:#5282FF"/>
	<stop  offset="1" style="stop-color:#945DFF"/>
</linearGradient>
<path style="fill:url(#SVGID_00000095309489206190092860000008414937395279008655_);" d="M0,25.6l12.9-12.8l12.8,12.8H0z"/>
<linearGradient id="SVGID_00000060719683855301005730000015892503112778306750_" gradientUnits="userSpaceOnUse" x1="-0.3062" y1="20.9346" x2="7.8338" y2="29.1157" gradientTransform="matrix(1 0 0 -1 0 28)">
	<stop  offset="0.296" style="stop-color:#00AFFF"/>
	<stop  offset="0.694" style="stop-color:#5282FF"/>
	<stop  offset="1" style="stop-color:#945DFF"/>
</linearGradient>
<path style="fill:url(#SVGID_00000060719683855301005730000015892503112778306750_);" d="M0,0h12.9L0,13.5V0z"/>
</svg>
