<svg width="77" height="26" viewBox="0 0 77 26" fill="none" xmlns="http://www.w3.org/2000/svg">
<path d="M29.9302 6.17236H32.9365V12.1187L38.4834 6.17236H42.1128L36.5477 11.9141L42.3668 19.7442H38.7526L34.5183 13.9544L32.9365 15.5854V19.7442H29.9302V6.17236ZM40.7699 14.6224V14.5833C40.7699 11.5921 43.1895 9.16659 46.4559 9.16659C49.6981 9.16659 52.0996 11.556 52.0996 14.5833V14.6224C52.0996 17.6136 49.68 20.0391 46.4136 20.0391C43.1713 20.0391 40.7699 17.6497 40.7699 14.6224ZM49.1658 14.6224V14.5833C49.1658 13.0787 48.0528 11.7064 46.4438 11.7064C44.7441 11.7064 43.7278 13.0094 43.7278 14.5442V14.5833C43.7278 16.0879 44.8408 17.4602 46.4499 17.4602C48.1496 17.4602 49.1628 16.1571 49.1628 14.6224H49.1658Z" fill="white"/>
<path d="M52.9161 16.819V11.9139H51.667V9.38609H52.9161V6.72288H55.8801V9.38609H58.342V11.9139H55.8801V16.3676C55.8801 17.0477 56.1735 17.3787 56.8358 17.3787C57.3474 17.3808 57.8511 17.2534 58.2997 17.0086V19.3799C57.6736 19.75 56.9538 19.9818 55.9557 19.9818C54.141 19.9818 52.91 19.2595 52.91 16.8521L52.9161 16.819ZM59.1979 5.58838H62.1619V19.7711H59.1979V5.58838ZM63.2386 5.58838H66.3629V8.21247H63.2417L63.2386 5.58838ZM63.3173 9.359H66.2813V19.7711H63.3173V9.359ZM67.4154 9.359H70.3794V10.8335C71.063 9.96086 71.9431 9.1634 73.4462 9.1634C75.6934 9.1634 77 10.6379 77 13.0303V19.7711H74.036V13.9602C74.036 12.5609 73.3706 11.8417 72.2395 11.8417C71.1083 11.8417 70.3855 12.5639 70.3855 13.9602V19.7681H67.4215L67.4154 9.359Z" fill="white"/>
<path d="M12.9145 0.00601812L0 13.5086V25.5849L12.8903 12.7353L25.7141 0L12.9145 0.00601812Z" fill="url(#paint0_linear_1449_694)"/>
<path d="M0 25.5879L12.8903 12.7383L25.7141 25.5879H0Z" fill="url(#paint1_linear_1449_694)"/>
<path d="M0 0.00634766H12.9145L0 13.509V0.00634766Z" fill="url(#paint2_linear_1449_694)"/>
<defs>
<linearGradient id="paint0_linear_1449_694" x1="-4.325" y1="23.5265" x2="19.4811" y2="-0.399794" gradientUnits="userSpaceOnUse">
<stop offset="0.108" stop-color="#C757BC"/>
<stop offset="0.173" stop-color="#CD5CA9"/>
<stop offset="0.492" stop-color="#E8744F"/>
<stop offset="0.716" stop-color="#F88316"/>
<stop offset="0.823" stop-color="#FF8900"/>
</linearGradient>
<linearGradient id="paint1_linear_1449_694" x1="8.20843" y1="30.2041" x2="19.812" y2="18.5419" gradientUnits="userSpaceOnUse">
<stop offset="0.296" stop-color="#00AFFF"/>
<stop offset="0.694" stop-color="#5282FF"/>
<stop offset="1" stop-color="#945DFF"/>
</linearGradient>
<linearGradient id="paint2_linear_1449_694" x1="-0.305472" y1="7.06611" x2="7.83452" y2="-1.11499" gradientUnits="userSpaceOnUse">
<stop offset="0.296" stop-color="#00AFFF"/>
<stop offset="0.694" stop-color="#5282FF"/>
<stop offset="1" stop-color="#945DFF"/>
</linearGradient>
</defs>
</svg>
