<?xml version="1.0" encoding="utf-8"?>
<!-- Generator: Adobe Illustrator 26.5.0, SVG Export Plug-In . SVG Version: 6.00 Build 0)  -->
<svg version="1.1" id="Calque_1" xmlns="http://www.w3.org/2000/svg" xmlns:xlink="http://www.w3.org/1999/xlink" x="0px" y="0px"
	 viewBox="0 0 124 62" style="enable-background:new 0 0 124 62;" xml:space="preserve">
<style type="text/css">
	.st0{fill:#599636;}
	.st1{fill:#6CAC48;}
	.st2{fill:#C2BFBF;}
	.st3{fill:#050A11;}
</style>
<path class="st0" d="M16.7,5.3l1.1,2.1c0.2,0.4,0.5,0.7,0.9,1.1c0.9,0.9,1.8,1.9,2.6,3c1.9,2.5,3.2,5.3,4.1,8.3
	c0.6,1.8,0.9,3.7,0.9,5.6c0.1,5.7-1.9,10.6-5.8,14.7c-0.6,0.6-1.3,1.2-2.1,1.8c-0.4,0-0.6-0.3-0.7-0.6c-0.3-0.5-0.5-1.1-0.6-1.7
	c-0.1-0.7-0.2-1.4-0.2-2.1v-0.3C16.9,37.2,16.5,5.5,16.7,5.3L16.7,5.3z"/>
<path class="st1" d="M16.7,5.3c0-0.1-0.1,0-0.1,0c0,0.5-0.1,0.9-0.4,1.3c-0.3,0.4-0.6,0.7-1,1c-2,1.8-3.7,3.9-4.9,6.3
	c-1.7,3.2-2.6,6.7-2.9,10.3c-0.1,1.3,0.4,5.9,0.8,7.3C9.3,35,11.3,38,14,40.5c0.6,0.6,1.3,1.2,2,1.7c0.2,0,0.2-0.2,0.3-0.3
	c0.1-0.3,0.2-0.6,0.2-0.9c0.2-1.2,0.3-2.3,0.5-3.5L16.7,5.3L16.7,5.3z"/>
<path class="st2" d="M17.8,43.3c0-0.5,0.3-1,0.6-1.4c-0.3-0.1-0.5-0.3-0.6-0.6c-0.1-0.2-0.3-0.5-0.3-0.8c-0.3-1-0.4-2-0.5-3V37
	c-0.1,0.1-0.1,0.9-0.1,1c-0.1,1.1-0.2,2.1-0.4,3.1c-0.1,0.4-0.1,0.8-0.4,1.2c0,0,0,0.1,0,0.2c0.4,1.2,0.5,2.5,0.6,3.7v0.5
	c0,0.6,0,0.4,0.4,0.6c0.2,0.1,0.4,0.1,0.6,0.2c0.1,0,0.2-0.1,0.2-0.2l-0.1-0.8v-2.1C17.7,44,17.8,43.6,17.8,43.3L17.8,43.3z"/>
<path class="st3" d="M35.3,33.7v2.2c0,0.1,0,0.2,0,0.3c0,0.3,0.2,0.4,0.4,0.5c0.2,0.1,0.4,0.1,0.7,0.1c0.1,0,0.2,0.1,0.2,0.2
	c0,0.5,0,0.5-0.5,0.5c-1.1-0.1-2.2-0.1-3.3,0h-0.1c-0.3,0-0.4,0-0.4-0.4c0-0.1,0-0.1,0-0.2c0-0.1,0.1-0.2,0.2-0.2
	c0.2,0,0.4-0.1,0.7-0.1c0.3-0.1,0.5-0.3,0.5-0.6c0-0.3,0-0.7,0-1l0-3.9c0-0.1,0-0.2-0.1-0.3c-0.1-0.1-0.1-0.2-0.2-0.2
	c-0.3-0.1-0.5-0.3-0.8-0.3c-0.1,0-0.2,0-0.2-0.1c-0.2-0.1-0.2-0.3,0-0.4c0.1,0,0.2-0.1,0.2-0.1c0.9-0.1,1.7-0.3,2.6-0.6
	c0.2-0.1,0.2,0,0.2,0.1c0,0.1,0,0.2,0,0.3c0,0.2,0,0.4,0,0.5c0,0.1,0,0.1,0.1,0.2c0.1,0,0.1,0,0.2,0c0.3-0.2,0.6-0.4,0.9-0.6
	c0.5-0.3,1-0.5,1.5-0.6c0.7-0.1,1.2,0.1,1.7,0.5c0.2,0.2,0.4,0.4,0.5,0.6c0.1,0.2,0.2,0.2,0.3,0.1c0.5-0.4,1.1-0.8,1.7-1
	c0.6-0.3,1.3-0.3,2-0.1c0.7,0.2,1.1,0.7,1.4,1.4c0.2,0.5,0.3,1.1,0.3,1.6V36c0,0.3,0.1,0.4,0.4,0.5c0.3,0.1,0.6,0.2,0.9,0.2
	c0.2,0,0.2,0,0.2,0.2c0,0.5-0.1,0.5-0.5,0.5c-1.2-0.1-2.3-0.1-3.5,0c-0.2,0-0.2,0-0.2-0.2v-0.1c0-0.4,0-0.4,0.4-0.5l0.4-0.1
	c0.1,0,0.2-0.1,0.3-0.2c0.1-0.1,0.1-0.2,0.1-0.4l0-1.1l0-2.8c0-0.3-0.1-0.5-0.2-0.7c-0.4-0.9-1.2-1.2-1.9-1.1
	c-0.6,0.1-1.1,0.3-1.6,0.6c-0.1,0.1-0.2,0.2-0.2,0.3c0.1,0.9,0,1.8,0.1,2.8v2c0,0.4,0.1,0.5,0.5,0.6l0.7,0.1c0.1,0,0.2,0.1,0.2,0.2
	V37c0,0.4,0,0.4-0.4,0.4c-1.2-0.1-2.3,0-3.4,0c-0.4,0-0.4,0-0.4-0.4c0-0.2,0-0.2,0.3-0.3l0.5-0.1c0.4-0.1,0.6-0.2,0.6-0.7l0-1l0-2.9
	c0-0.4-0.1-0.7-0.3-1c-0.3-0.5-0.7-0.8-1.4-0.8c-0.6,0-1.2,0.2-1.7,0.5c-0.4,0.2-0.5,0.5-0.5,0.9L35.3,33.7L35.3,33.7z M62.5,33.8v2
	c0,0.1,0,0.3,0,0.4c0,0.1,0,0.2,0.1,0.3c0.1,0.1,0.1,0.1,0.2,0.1c0.2,0.1,0.5,0.1,0.8,0.1c0.1,0,0.2,0.1,0.2,0.2V37
	c0,0.5-0.1,0.6-0.6,0.5c-1.1-0.1-2.2-0.1-3.3,0l-0.4,0c-0.1,0-0.1,0-0.1-0.1c0-0.2,0-0.4,0-0.6c0-0.1,0.1-0.1,0.2-0.1
	c0.2,0,0.4-0.1,0.6-0.1c0.4-0.1,0.5-0.2,0.5-0.6l0-1.2v-3.5c0-0.3-0.1-0.4-0.3-0.5c-0.3-0.1-0.5-0.2-0.8-0.3c-0.1,0-0.2-0.1-0.2-0.1
	c-0.2-0.1-0.2-0.3,0-0.5c0.1-0.1,0.2-0.1,0.3-0.1c0.9-0.1,1.8-0.3,2.7-0.7c0.1,0,0.1,0,0.2,0.1c0,0.1,0.1,0.2,0,0.3l0,0.7
	c0,0.1,0,0.2,0,0.2c0.1,0.1,0.1-0.1,0.2-0.1c0.4-0.4,0.9-0.7,1.4-0.9c0.4-0.2,0.9-0.3,1.4-0.3c1,0.1,1.7,0.5,2.1,1.4
	c0.2,0.4,0.3,0.9,0.4,1.4l0,1.1l0,3.2c0,0.2,0.1,0.4,0.3,0.5c0.3,0.1,0.5,0.1,0.8,0.2c0.2,0,0.2,0.1,0.3,0.3v0.1
	c0,0.5-0.1,0.5-0.5,0.5c-1.1-0.1-2.2-0.1-3.2,0c-0.1,0-0.3,0-0.4,0c-0.1,0-0.1,0-0.2-0.1c0-0.2-0.1-0.4,0-0.6c0-0.1,0.1-0.1,0.2-0.1
	l0.7-0.1c0.2-0.1,0.4-0.2,0.4-0.4l0-0.4l0-3c0-0.3,0-0.7-0.1-1c-0.2-0.7-0.7-1.3-1.5-1.3c-0.7-0.1-1.3,0.1-1.8,0.5
	c-0.3,0.2-0.4,0.4-0.4,0.7L62.5,33.8C62.5,33.8,62.5,33.8,62.5,33.8L62.5,33.8z"/>
<path class="st2" d="M104.7,29.7c-0.2-1.1-0.5-2-1.2-2.8c-0.6-0.7-1.4-1.3-2.2-1.6c-0.9-0.4-1.9-0.5-2.9-0.5c-0.4,0-5.9,0.1-6.3,0
	c-0.1,0-0.2,0-0.2,0.1c-0.1,0.1-0.1,0.2-0.2,0.3c-0.2,0.4-0.2,0.4,0.2,0.4c0.3,0.1,0.7,0.1,1,0.2c0.3,0.1,0.5,0.3,0.6,0.6
	c0,0.2,0.1,5.2,0.1,7.6l-0.1,1.7c0,0.1,0,0.3-0.1,0.4c-0.1,0.2-0.2,0.3-0.3,0.4c-0.2,0.1-0.4,0.1-0.6,0.2c-0.4,0-0.4,0.1-0.6,0.5
	l0,0.2c0,0.2,0,0.2,0.2,0.2l4.3,0l1.7,0l1.2-0.1c1.3-0.2,2.5-0.8,3.5-1.7c0.6-0.5,1-1.1,1.4-1.8c0.4-0.8,0.6-1.7,0.6-2.6
	C104.8,30.7,104.8,30.2,104.7,29.7L104.7,29.7z M102.6,31.7c-0.1,0.9-0.2,1.8-0.7,2.6c-0.6,1.1-1.5,1.8-2.7,2
	c-0.5,0.1-1,0.2-1.6,0.1c-0.4,0-0.8-0.1-1.1-0.2c-0.6-0.2-0.9-0.6-0.9-1.3l0-8.7c0-0.5,0.2-0.6,0.6-0.6c0.6,0,1.1,0,1.7,0
	c0.6,0.1,1.2,0.2,1.7,0.4c0.4,0.2,0.8,0.4,1.1,0.7c0.8,0.7,1.3,1.5,1.6,2.5C102.6,30.1,102.6,30.9,102.6,31.7L102.6,31.7z
	 M116.7,33.1c0-0.1,0-0.2,0-0.2c-0.1-0.8-0.5-1.4-1.2-1.9c-0.4-0.3-0.9-0.5-1.4-0.6c-0.1,0-0.2-0.1-0.2-0.1c0-0.1,0.1-0.1,0.1-0.1
	c0.3-0.1,0.6-0.3,0.8-0.5c0.4-0.4,0.7-0.8,0.9-1.4c0.1-0.3,0.1-0.6,0.1-0.9c0-0.4-0.1-0.7-0.3-1.1c-0.2-0.3-0.4-0.6-0.7-0.8
	c-0.7-0.5-1.4-0.7-2.2-0.7c-1.6,0-3.1,0-4.7,0c-0.4,0-0.9,0-1.4,0c-0.1,0-0.2,0-0.3,0.1c-0.1,0.2-0.2,0.4-0.3,0.6
	c0,0.1,0,0.2,0.1,0.2l1,0.1c0.4,0.1,0.7,0.3,0.7,0.6c0,0.2,0,0.5,0,0.7l0,2.7l0,5.3c0,0.3,0,0.6-0.1,0.9c0,0.1-0.1,0.2-0.1,0.3
	c-0.1,0.1-0.2,0.1-0.3,0.2c-0.3,0.1-0.6,0.2-0.9,0.2c-0.1,0-0.2,0-0.2,0.1c-0.1,0-0.1,0.1-0.1,0.2c-0.1,0.1-0.1,0.3-0.1,0.4
	c0,0.2,0,0.2,0.2,0.2c0.1,0,4.9,0.1,5.8,0c0.5-0.1,1.1-0.1,1.6-0.3c0.9-0.3,1.7-0.7,2.4-1.4c0.5-0.6,0.9-1.3,0.9-2.1
	C116.7,33.5,116.7,33.3,116.7,33.1L116.7,33.1z M109.7,27.2l0-1.2c0-0.2,0.1-0.3,0.3-0.4c0.3-0.1,0.7,0,1,0c0.3,0,0.7,0.1,1,0.2
	c0.6,0.2,1.1,0.5,1.4,1.2c0.1,0.3,0.2,0.6,0.2,0.9c0,0.4,0,0.8-0.2,1.2c-0.2,0.5-0.6,0.9-1.2,1c-0.6,0.1-2.2,0.1-2.4,0.1
	c-0.2,0-0.2,0-0.2-0.2v-1.4C109.7,28.1,109.7,27.7,109.7,27.2L109.7,27.2z M114.4,35c-0.2,0.6-0.7,1.1-1.3,1.3
	c-0.3,0.1-0.7,0.2-1.1,0.2c-0.4,0-0.9,0-1.3-0.1c-0.6-0.1-0.9-0.7-0.9-1.1c-0.1-0.7,0-1.5,0-2v-1.9c0-0.2,0-0.3,0.3-0.3l1.4,0
	l0.9,0.1c0.6,0.1,1.2,0.4,1.7,0.9c0.4,0.4,0.6,0.9,0.6,1.4C114.6,34,114.6,34.5,114.4,35L114.4,35z"/>
<path class="st3" d="M77.7,30.6l0.4,0.1c0.4,0,0.9-0.1,1-0.7c0.1-0.3,0.1-0.6,0-0.8c-0.1,0-0.1,0.1-0.2,0.1
	c-0.2,0.2-0.5,0.3-0.7,0.3c-0.5,0.1-1,0-1.5-0.2L76,29.2C75.5,29,75,29,74.5,29c-0.7,0.1-1.4,0.3-2.1,0.6c-0.7,0.4-1.2,0.9-1.4,1.7
	c-0.1,0.4-0.1,0.9-0.1,1.4c0.1,1.1,0.7,1.8,1.7,2.2c0.1,0,0.1,0,0.2,0.1c0.1,0.1,0.1,0.1,0,0.2l-0.4,0.2L71.5,36
	c-0.2,0.1-0.2,0.2-0.2,0.5c0.1,0.3,0.2,0.5,0.5,0.7c0.2,0.2,0.4,0.3,0.7,0.4c0.2,0.1,0.2,0.1,0,0.2l-0.8,0.6
	c-0.3,0.2-0.5,0.4-0.8,0.7c-0.2,0.2-0.3,0.4-0.3,0.6c-0.1,0.2-0.1,0.5,0,0.7c0.1,0.5,0.4,1,0.7,1.3c0.4,0.3,0.8,0.6,1.3,0.7
	c0.8,0.2,1.6,0.2,2.5,0.1c1.2-0.2,2.2-0.7,3-1.6c0.6-0.6,0.9-1.3,0.9-2.1c0-0.5-0.1-1-0.4-1.3c-0.3-0.4-0.7-0.7-1.2-0.8l-0.8-0.1
	l-2.4-0.2c-0.3,0-0.5-0.1-0.7-0.2c-0.3-0.2-0.3-0.5-0.2-0.7c0.1-0.2,0.3-0.3,0.5-0.3l0.5,0c0.9-0.1,1.8-0.5,2.4-1.1
	c0.4-0.3,0.6-0.8,0.7-1.2c0.2-0.6,0.2-1.3,0-1.9C77.5,30.6,77.5,30.6,77.7,30.6L77.7,30.6z M74.2,37.8c0.1,0,0.2,0,0.3,0
	c0.6,0,1.2,0.1,1.8,0.2c0.2,0.1,0.4,0.1,0.6,0.2c0.6,0.3,0.8,0.9,0.7,1.5c-0.1,0.6-0.4,1.1-1,1.4c-0.4,0.2-0.8,0.3-1.2,0.3
	c-0.2,0-0.3,0-0.5,0c-0.5,0-1,0-1.5-0.2c-0.3-0.1-0.6-0.3-0.9-0.6c-0.5-0.5-0.7-1.4,0-2.2C73,38.1,73.5,37.8,74.2,37.8z M75.8,33.3
	c-0.3,0.8-1,1-1.6,0.9c-0.6-0.1-1.1-0.4-1.3-1c-0.4-0.7-0.5-1.5-0.3-2.3c0.2-0.6,0.5-1,1.2-1.1c0.8-0.1,1.6,0.1,2,1
	c0.2,0.4,0.3,0.9,0.3,1.5C76,32.6,76,33,75.8,33.3L75.8,33.3z M57.7,32.3c-0.1-0.8-0.4-1.5-1-2.1c-0.8-0.9-1.8-1.3-2.9-1.3
	c-1,0-1.9,0.3-2.8,0.8c-0.8,0.5-1.4,1.3-1.7,2.2c-0.2,0.8-0.2,1.7,0,2.5c0.5,2.3,2.3,3.3,4.4,3.1c0.6,0,1.2-0.2,1.8-0.5
	c0.8-0.4,1.4-1,1.9-1.8c0.3-0.7,0.5-1.4,0.5-2.2L57.7,32.3L57.7,32.3z M55.6,35.5c-0.1,0.3-0.3,0.6-0.6,0.8
	c-0.3,0.2-0.6,0.3-0.9,0.4c-0.6,0.1-1.2-0.1-1.8-0.4c-0.4-0.3-0.7-0.7-0.9-1.1c-0.6-1.2-0.7-2.5-0.4-3.8c0.1-0.4,0.3-0.8,0.6-1.1
	c0.5-0.5,1.2-0.6,1.8-0.5c0.7,0.1,1.2,0.5,1.6,1.1c0.4,0.5,0.6,1.2,0.7,1.8c0.1,0.3,0.1,0.7,0.1,0.9C55.9,34.4,55.8,35,55.6,35.5
	L55.6,35.5z M89.2,32.5c-0.1-0.8-0.4-1.6-1-2.2c-0.8-0.9-1.8-1.2-2.9-1.2c-1,0-1.9,0.3-2.7,0.7c-0.9,0.5-1.6,1.3-1.8,2.4
	c-0.3,1.1-0.2,2.4,0.3,3.4c0.5,1,1.3,1.7,2.4,1.9c1.2,0.3,2.3,0.2,3.4-0.4c1-0.5,1.6-1.2,2-2.2c0.2-0.6,0.3-1.2,0.3-1.9
	C89.2,32.9,89.2,32.7,89.2,32.5L89.2,32.5z M87.2,35.4c-0.2,0.8-0.7,1.3-1.5,1.4c-0.6,0.1-1.2-0.1-1.7-0.4c-0.4-0.3-0.8-0.7-1-1.2
	c-0.3-0.5-0.4-1-0.5-1.6c-0.1-0.7-0.1-1.3,0.1-2c0-0.1,0.1-0.3,0.1-0.4c0.4-1,1.3-1.5,2.4-1.2c0.7,0.2,1.2,0.5,1.6,1.1
	c0.4,0.6,0.6,1.2,0.7,1.9c0,0.3,0.1,0.6,0,0.8C87.4,34.3,87.3,34.9,87.2,35.4L87.2,35.4z"/>
</svg>
