<svg width="124" height="62" viewBox="0 0 124 62" fill="none" xmlns="http://www.w3.org/2000/svg">
<path d="M16.6852 5.32568L17.8116 7.44402C18.0568 7.82613 18.3422 8.18087 18.663 8.50215C19.6065 9.44558 20.5044 10.4345 21.3084 11.4937C23.218 14.0016 24.5065 16.7864 25.4272 19.8017C25.979 21.6431 26.2787 23.5299 26.3014 25.4395C26.3944 31.1466 24.4373 36.0477 20.4796 40.1211C19.8384 40.7668 19.1458 41.3595 18.4088 41.8933C18.0162 41.8933 17.8333 41.5833 17.6721 41.3177C17.3621 40.8011 17.1885 40.2358 17.0965 39.6613C16.958 38.971 16.8661 38.2808 16.9126 37.5667V37.2443C16.8898 37.1751 16.5447 5.48792 16.6821 5.32672L16.6852 5.32568Z" fill="#599636"/>
<path d="M16.6853 5.25765C16.6388 5.16465 16.5923 5.23492 16.5468 5.28038C16.5695 5.74022 16.4083 6.15458 16.1541 6.54622C15.8782 6.93888 15.5093 7.23648 15.1415 7.55888C13.0934 9.33105 11.4835 11.4711 10.1939 13.8643C8.49093 17.0862 7.594 20.5375 7.34187 24.1738C7.2282 25.4862 7.7552 30.1114 8.1706 31.4454C9.29693 34.9897 11.3223 37.9575 13.9573 40.5346C14.6021 41.1546 15.2923 41.7312 16.0053 42.283C16.212 42.283 16.2358 42.0991 16.2812 41.9606C16.3719 41.6667 16.441 41.3666 16.4879 41.0626C16.6946 39.9125 16.8103 38.7614 16.9477 37.6113L16.6946 5.25765H16.6853Z" fill="#6CAC48"/>
<path d="M17.8147 43.2965C17.8612 42.7674 18.1247 42.3303 18.3903 41.8932C18.1144 41.7796 17.9067 41.5481 17.7455 41.2939C17.607 41.0635 17.4923 40.7772 17.4003 40.5344C17.0779 39.5682 17.0077 38.5556 16.9167 37.5656V36.9663C16.8031 37.0593 16.7783 37.8405 16.7783 37.9562C16.709 39.0144 16.5716 40.0508 16.3649 41.0624C16.2957 41.4758 16.2513 41.8912 15.9971 42.259C15.9971 42.3055 15.9971 42.352 16.0198 42.4202C16.4331 43.6396 16.5489 44.8827 16.6191 46.1485V46.6083C16.6191 47.1601 16.5964 47.0454 17.0562 47.2283C17.2402 47.2976 17.4489 47.3213 17.6318 47.4588C17.7703 47.4588 17.793 47.3451 17.793 47.2521L17.7238 46.4926V44.3743C17.701 44.0064 17.7703 43.6375 17.8168 43.2924L17.8147 43.2965Z" fill="#C2BFBF"/>
<path d="M35.2892 33.6729V35.8645C35.2868 35.9513 35.2917 36.0381 35.304 36.124C35.3325 36.3836 35.4918 36.5419 35.7261 36.6147C35.9446 36.6722 36.1667 36.7156 36.3908 36.7445C36.5206 36.7592 36.5639 36.8162 36.5786 36.9555C36.5934 37.4462 36.5501 37.5042 36.0743 37.4746C34.9642 37.4166 33.8531 37.4029 32.7431 37.4746H32.6376C32.2915 37.4894 32.263 37.4599 32.263 37.1138C32.263 37.0557 32.2778 36.984 32.2778 36.926C32.2778 36.8204 32.3495 36.7677 32.4508 36.7677C32.683 36.7392 32.8982 36.6812 33.1156 36.6379C33.4184 36.5661 33.5904 36.3783 33.62 36.0755C33.6622 35.7442 33.6622 35.3981 33.6622 35.0657L33.6769 31.2017C33.6817 31.0896 33.6545 30.9785 33.5984 30.8814C33.5423 30.7842 33.4598 30.705 33.3604 30.653C33.0994 30.5081 32.8235 30.392 32.5374 30.3069C32.4508 30.2784 32.3643 30.2647 32.2926 30.2204C32.0815 30.1191 32.0763 29.9324 32.2778 29.8163C32.3495 29.7741 32.4361 29.7445 32.5226 29.7298C33.3977 29.6006 34.2574 29.3832 35.0887 29.0808C35.2618 29.0228 35.305 29.0386 35.3209 29.2106C35.3356 29.3161 35.3209 29.4428 35.3061 29.5419C35.2776 29.7298 35.2776 29.9165 35.2776 30.0906C35.2776 30.1624 35.2924 30.2352 35.3641 30.2784C35.4359 30.3217 35.5087 30.2784 35.5752 30.2362C35.878 30.0041 36.1808 29.7888 36.5122 29.6031C36.987 29.3436 37.4935 29.1125 38.0421 29.0407C38.7069 28.9542 39.282 29.1273 39.7874 29.5599C39.9963 29.7469 40.1804 29.96 40.335 30.194C40.4796 30.4051 40.4933 30.4103 40.6811 30.2658C41.2298 29.8617 41.8059 29.5018 42.4263 29.2423C43.0753 28.9679 43.739 28.9257 44.4016 29.1557C45.079 29.4005 45.5412 29.8764 45.8155 30.5253C46.0476 31.0445 46.1468 31.5805 46.1468 32.1397V36.0037C46.1468 36.2633 46.2523 36.4258 46.5077 36.5524C46.782 36.658 47.0849 36.7107 47.3729 36.7687C47.5607 36.8109 47.5607 36.8109 47.5607 37.0009C47.5323 37.4757 47.489 37.5052 47.0268 37.4757C45.8695 37.4108 44.7095 37.4108 43.5522 37.4757C43.3201 37.4905 43.3201 37.4905 43.3074 37.2594V37.1876C43.2926 36.7972 43.2926 36.7972 43.6683 36.7128L44.0428 36.6115C44.1697 36.5817 44.2829 36.5099 44.3641 36.4079C44.4452 36.3059 44.4897 36.1795 44.4902 36.0491L44.5324 34.9676L44.5039 32.1419C44.4929 31.8896 44.4394 31.6409 44.3457 31.4064C43.9848 30.5264 43.1924 30.2099 42.4274 30.2964C41.8502 30.3544 41.3458 30.5844 40.87 30.9168C40.7687 30.9886 40.6969 31.0751 40.7117 31.2196C40.8415 32.1429 40.7539 33.0662 40.7697 33.9884V35.9932C40.7697 36.3541 40.9143 36.5271 41.2604 36.6136L41.9251 36.7582C42.0264 36.773 42.0834 36.8162 42.0834 36.9312V37.0368C42.0686 37.4409 42.0412 37.4588 41.636 37.4546C40.4827 37.3966 39.3284 37.4124 38.1899 37.4546C37.7994 37.4694 37.7678 37.4261 37.7857 37.0325C37.8005 36.8004 37.8279 36.7877 38.0453 36.7445L38.5201 36.6579C38.9422 36.5714 39.0973 36.4132 39.1258 35.9658L39.168 34.9992L39.1395 32.1007C39.111 31.7398 39.034 31.3937 38.8367 31.0624C38.5486 30.5285 38.0981 30.2552 37.4808 30.2257C36.8604 30.1835 36.3127 30.4135 35.7925 30.7005C35.4317 30.9115 35.2734 31.1616 35.3019 31.5805V33.6856L35.2892 33.6729ZM62.4565 33.7605V35.7938C62.4588 35.9384 62.4683 36.0827 62.485 36.2264C62.4911 36.3221 62.5282 36.4133 62.5906 36.4862C62.653 36.559 62.7374 36.6097 62.831 36.6305C63.0798 36.703 63.3362 36.7466 63.595 36.7603C63.7395 36.7751 63.768 36.8321 63.7828 36.9481V37.0494C63.768 37.5538 63.711 37.6118 63.2204 37.5833C62.123 37.5116 61.0288 37.5253 59.9325 37.5833L59.5105 37.5981C59.4239 37.5981 59.4049 37.5559 59.3807 37.4968C59.3385 37.2971 59.3385 37.0908 59.3807 36.8911C59.3954 36.8046 59.4524 36.7856 59.5389 36.7614C59.75 36.7329 59.9293 36.6896 60.1298 36.6558C60.4907 36.5693 60.6205 36.4237 60.6342 36.0502L60.6764 34.8389V31.2914C60.6764 31.0318 60.5751 30.8736 60.3451 30.7575C60.0855 30.6129 59.8112 30.5127 59.5221 30.4114C59.4355 30.3829 59.349 30.3534 59.2773 30.3101C59.0894 30.1803 59.0662 29.9935 59.2488 29.849C59.3306 29.7817 59.4312 29.7412 59.5368 29.7329C60.4601 29.5884 61.3538 29.3868 62.2191 29.0407C62.3203 28.9985 62.3636 29.026 62.4069 29.1125C62.4501 29.199 62.4649 29.3003 62.4491 29.4005L62.4069 30.078C62.4069 30.1645 62.3647 30.289 62.4354 30.3228C62.5219 30.3808 62.5799 30.251 62.6517 30.2172C63.0774 29.8601 63.5477 29.5597 64.0508 29.3235C64.4982 29.1125 64.9583 28.9774 65.4785 29.007C66.445 29.065 67.1372 29.5557 67.5835 30.4061C67.8156 30.8535 67.9148 31.3431 67.9581 31.8485L68.0003 32.9037L68.0151 36.0903C68.0298 36.3351 68.1163 36.4944 68.3611 36.5809C68.6149 36.6655 68.8754 36.7283 69.1399 36.7687C69.372 36.7972 69.3847 36.8405 69.3994 37.0568V37.1285C69.3709 37.6192 69.3414 37.6329 68.8507 37.6034C67.7749 37.5457 66.6967 37.5457 65.6209 37.6034C65.4763 37.6181 65.3328 37.6034 65.1988 37.6181C65.1123 37.6181 65.0543 37.6034 65.0406 37.5168C65.0121 37.329 64.9825 37.1423 65.0258 36.9397C65.0406 36.8532 65.0838 36.8099 65.1841 36.7951L65.8488 36.6896C66.0809 36.6316 66.2097 36.4786 66.2392 36.2675L66.2677 35.8634L66.2529 32.8499C66.2529 32.5038 66.2382 32.1577 66.1664 31.8116C65.9934 31.073 65.431 30.5454 64.6681 30.4715C64.0033 30.3998 63.4019 30.5728 62.8511 30.9326C62.5768 31.1057 62.4607 31.3505 62.4607 31.6533V33.8312C62.4607 33.789 62.4607 33.789 62.4755 33.789L62.4565 33.7605Z" fill="white"/>
<path d="M104.69 29.6789C104.532 28.6259 104.142 27.6889 103.464 26.8669C102.874 26.1408 102.11 25.5753 101.243 25.223C100.336 24.8484 99.3681 24.7323 98.3879 24.7038C97.9837 24.6891 92.4758 24.7756 92.0717 24.7038C91.9704 24.6891 91.8986 24.7186 91.8395 24.8051C91.7678 24.9106 91.695 25.0214 91.6517 25.1364C91.4787 25.5269 91.4787 25.4973 91.8965 25.5543C92.2426 25.6123 92.5739 25.6408 92.9063 25.7421C93.2091 25.8434 93.4254 26.0165 93.4972 26.3478C93.5257 26.506 93.5552 31.5814 93.5552 33.947L93.4972 35.6353C93.4824 35.7651 93.4687 35.8949 93.4254 36.0099C93.3674 36.1829 93.2672 36.3264 93.0941 36.4003C92.9037 36.4899 92.6984 36.5435 92.4885 36.5586C92.098 36.6008 92.0411 36.6166 91.9113 37.0492L91.8691 37.2075C91.8406 37.3953 91.8543 37.4238 92.0421 37.4238L96.3535 37.466L98.0418 37.4375L99.2098 37.293C100.536 37.0482 101.719 36.4995 102.728 35.6205C103.304 35.1116 103.774 34.4942 104.112 33.8035C104.516 32.9963 104.689 32.1153 104.733 31.2226C104.804 30.7183 104.775 30.1991 104.69 29.68V29.6789ZM102.599 31.7259C102.541 32.6492 102.354 33.5429 101.878 34.3501C101.273 35.4032 100.407 36.1386 99.2109 36.3971C98.6917 36.5026 98.1726 36.5554 97.6281 36.4837C97.2377 36.4414 96.8642 36.3971 96.5033 36.2673C95.8544 36.0352 95.6233 35.6343 95.6096 35.0012L95.5948 26.3066C95.5948 25.7875 95.827 25.6735 96.2005 25.6577C96.7629 25.6155 97.3401 25.6292 97.9025 25.6862C98.5012 25.7441 99.0887 25.8862 99.6477 26.1083C100.063 26.2813 100.448 26.52 100.787 26.8152C101.566 27.48 102.085 28.3135 102.37 29.2948C102.602 30.0883 102.644 30.8955 102.602 31.7027L102.599 31.7259ZM116.675 33.1398C116.675 33.0533 116.675 32.9816 116.66 32.8951C116.53 32.1016 116.111 31.4959 115.464 31.0348C115.046 30.732 114.57 30.5304 114.079 30.3859C113.993 30.3574 113.921 30.3278 113.834 30.3141C113.849 30.2424 113.892 30.2276 113.936 30.2128C114.224 30.0683 114.498 29.91 114.743 29.6937C115.19 29.3191 115.481 28.8569 115.637 28.2945C115.723 27.9917 115.723 27.6889 115.695 27.3713C115.671 26.9997 115.564 26.6383 115.382 26.3137C115.2 25.9891 114.947 25.7097 114.642 25.4963C113.977 25.0056 113.199 24.8041 112.392 24.7893C110.835 24.7608 109.263 24.7893 107.707 24.7893C107.26 24.7893 106.813 24.8178 106.351 24.7471C106.265 24.7323 106.14 24.7049 106.077 24.8051C105.971 24.9929 105.845 25.1797 105.802 25.396C105.788 25.4973 105.817 25.5543 105.932 25.5691L106.927 25.7136C107.318 25.7717 107.592 25.988 107.619 26.3341C107.648 26.5732 107.662 26.8139 107.662 27.0547L107.633 29.7507L107.618 35.0856C107.618 35.4021 107.576 35.706 107.517 36.0225C107.503 36.1231 107.46 36.2173 107.394 36.2941C107.327 36.3708 107.24 36.4267 107.143 36.4552C106.854 36.5417 106.58 36.6282 106.277 36.6282C106.196 36.6205 106.115 36.6406 106.047 36.6851C105.979 36.7295 105.928 36.7958 105.903 36.873C105.845 37.0028 105.797 37.1474 105.773 37.2771C105.744 37.4502 105.788 37.5093 105.961 37.4882C106.091 37.4734 110.849 37.5895 111.743 37.5029C112.277 37.4449 112.798 37.3732 113.329 37.2149C114.236 36.9268 115.074 36.5079 115.737 35.801C116.286 35.2238 116.602 34.5316 116.631 33.7244C116.673 33.5366 116.673 33.3498 116.673 33.1472L116.675 33.1398ZM109.681 27.2309L109.723 26.0777C109.723 25.8613 109.81 25.7611 110.026 25.7168C110.372 25.645 110.718 25.6746 111.065 25.6883C111.411 25.7168 111.742 25.76 112.088 25.8613C112.721 26.0492 113.213 26.41 113.502 27.0146C113.633 27.2896 113.702 27.59 113.704 27.8946C113.718 28.2988 113.689 28.6881 113.53 29.0764C113.286 29.6103 112.897 29.9564 112.334 30.0577C111.77 30.159 110.171 30.1158 109.926 30.1158C109.71 30.1158 109.694 30.0873 109.694 29.871V28.513C109.66 28.0907 109.655 27.6666 109.679 27.2436L109.681 27.2309ZM114.366 34.9885C114.121 35.6374 113.674 36.0859 113.04 36.3285C112.694 36.4583 112.348 36.5396 111.985 36.5164C111.537 36.5016 111.091 36.5164 110.645 36.4298C110.039 36.3001 109.765 35.7229 109.721 35.305C109.65 34.5696 109.693 33.8194 109.679 33.2717V31.3682C109.679 31.1361 109.708 31.0654 109.953 31.0654L111.309 31.0802L112.233 31.1857C112.882 31.3302 113.472 31.5761 113.935 32.0794C114.309 32.4835 114.512 32.9731 114.555 33.507C114.597 34.0114 114.57 34.5021 114.382 34.9779L114.366 34.9885Z" fill="#C2BFBF"/>
<path d="M77.7279 30.6446L78.1025 30.7026C78.5066 30.7174 78.9825 30.5728 79.126 30.0104C79.2052 29.7418 79.2052 29.456 79.126 29.1874C79.0395 29.1874 78.9962 29.2591 78.953 29.2887C78.7367 29.4617 78.4919 29.563 78.2323 29.5915C77.7132 29.6495 77.194 29.62 76.6896 29.4332L75.9827 29.1884C75.4896 29.027 74.9707 28.959 74.4527 28.988C73.7173 29.046 73.0251 29.2908 72.3761 29.6369C71.684 30.0115 71.1944 30.5739 70.9622 31.3389C70.8324 31.7862 70.8177 32.2463 70.8757 32.7085C71.0203 33.7615 71.5679 34.497 72.5481 34.8863C72.6062 34.9011 72.6494 34.9285 72.7064 34.9443C72.8362 35.0161 72.851 35.0889 72.7349 35.1891L72.374 35.4339L71.5088 35.9678C71.2925 36.0976 71.264 36.2 71.3358 36.429C71.4216 36.6983 71.5814 36.9382 71.7969 37.1211C71.9947 37.2909 72.2189 37.4274 72.4606 37.5253C72.6188 37.597 72.6188 37.6308 72.4753 37.7574L71.6523 38.3483C71.378 38.5593 71.1036 38.7704 70.8736 39.0405C70.7136 39.2117 70.5983 39.4197 70.538 39.646C70.4776 39.8724 70.474 40.1102 70.5275 40.3383C70.6347 40.8389 70.8969 41.293 71.2767 41.6362C71.6517 41.9834 72.1077 42.2312 72.603 42.3569C73.4102 42.589 74.2469 42.6016 75.0689 42.4434C76.2507 42.2271 77.2848 41.7048 78.0972 40.8142C78.6596 40.2233 78.991 39.5311 79.0205 38.7039C79.052 38.2255 78.9128 37.7514 78.6276 37.3659C78.3424 36.9805 77.9298 36.7087 77.4631 36.5988L76.6844 36.4543L74.305 36.2432C74.0454 36.2285 73.7858 36.1852 73.5695 36.0554C73.2952 35.8824 73.2234 35.5511 73.3965 35.3347C73.5263 35.1765 73.6845 35.0752 73.8871 35.0604L74.3482 35.0182C75.2601 34.9254 76.1162 34.5354 76.7846 33.9082C77.1415 33.5778 77.3967 33.1525 77.5201 32.6821C77.6931 32.0616 77.6931 31.4159 77.5485 30.7828C77.5063 30.6245 77.5201 30.6097 77.7216 30.6382L77.7279 30.6446ZM74.1931 37.827C74.2797 37.8418 74.3662 37.827 74.4527 37.827C75.0584 37.8555 75.6788 37.8988 76.2697 38.0592C76.4626 38.1162 76.6507 38.1885 76.8321 38.2755C77.4093 38.592 77.6256 39.1407 77.5528 39.7316C77.4662 40.3805 77.1054 40.8416 76.543 41.1455C76.1684 41.3566 75.7495 41.4484 75.3169 41.4916C75.1586 41.5064 75.014 41.4916 74.8558 41.4916C74.3514 41.5064 73.8608 41.4494 73.3849 41.2468C73.0536 41.117 72.7792 40.9303 72.5344 40.6696C72.0301 40.1653 71.7958 39.242 72.5492 38.4918C73.0103 38.0697 73.5305 37.7711 74.1931 37.827ZM75.8371 33.3278C75.5342 34.0918 74.8705 34.3229 74.2079 34.2216C73.6022 34.135 73.1549 33.8037 72.8679 33.255C72.4933 32.5196 72.393 31.7567 72.6083 30.9622C72.7666 30.3713 73.1274 29.9239 73.7616 29.8226C74.5688 29.678 75.3443 29.9671 75.7516 30.7743C75.9626 31.1648 76.0544 31.6396 76.0544 32.317C76.0397 32.5913 75.9827 32.9659 75.8381 33.3268L75.8371 33.3278ZM57.6693 32.3465C57.5395 31.5678 57.2515 30.8609 56.7175 30.27C55.9241 29.39 54.9153 29.0038 53.7758 29.0006C52.7807 28.9858 51.8448 29.275 51.007 29.7941C50.1834 30.287 49.5797 31.0764 49.3198 32.0004C49.075 32.8372 49.0877 33.6887 49.2776 34.5381C49.782 36.8173 51.542 37.7964 53.646 37.6529C54.2664 37.6107 54.8573 37.4081 55.4186 37.1338C56.2554 36.7434 56.8611 36.124 57.2789 35.302C57.6102 34.6246 57.7537 33.9029 57.74 33.0809L57.6682 32.3455L57.6693 32.3465ZM55.6223 35.5479C55.5192 35.8723 55.3237 36.1597 55.0599 36.3748C54.796 36.59 54.4752 36.7235 54.1366 36.7592C53.5035 36.8457 52.9105 36.6875 52.3777 36.3118C51.993 36.0289 51.6815 35.658 51.4692 35.2303C50.8783 34.019 50.777 32.7507 51.0788 31.4528C51.1759 31.0511 51.3861 30.6857 51.6844 30.3998C52.2183 29.9091 52.8377 29.7941 53.531 29.9387C54.1957 30.0832 54.699 30.443 55.1137 30.9917C55.5284 31.5404 55.7194 32.1735 55.8344 32.8382C55.8924 33.1696 55.8924 33.5157 55.9061 33.732C55.9061 34.4241 55.8481 34.9982 55.6318 35.5489L55.6223 35.5479ZM89.1764 32.4626C89.0709 31.6259 88.7586 30.8619 88.1666 30.2278C87.3879 29.3773 86.3781 29.0164 85.2544 29.0017C84.2879 28.9869 83.3941 29.2612 82.5722 29.7371C81.6489 30.2858 81.0148 31.0635 80.77 32.1165C80.4776 33.2654 80.6002 34.4806 81.1161 35.5479C81.5909 36.5577 82.3991 37.2066 83.4669 37.4947C84.6487 37.8112 85.7746 37.6677 86.8698 37.1338C87.8216 36.6727 88.499 35.952 88.8884 34.9707C89.1205 34.3935 89.2049 33.7742 89.2197 33.0524C89.2345 32.9227 89.2049 32.6916 89.1775 32.4615L89.1764 32.4626ZM87.1864 35.3611C86.9543 36.1398 86.4657 36.6442 85.6437 36.7603C85.0381 36.8468 84.462 36.7022 83.9418 36.3561C83.4944 36.0533 83.1778 35.6492 82.9468 35.1744C82.6872 34.67 82.5426 34.1361 82.4856 33.5885C82.3991 32.911 82.3991 32.2484 82.5574 31.5699C82.5876 31.4361 82.6311 31.3057 82.6872 31.1806C83.0913 30.1708 83.985 29.7097 85.0381 29.9408C85.745 30.099 86.2779 30.4894 86.682 31.0803C87.0724 31.6575 87.2592 32.2917 87.3468 32.9796C87.389 33.254 87.4048 33.542 87.389 33.7868C87.389 34.3492 87.3468 34.8684 87.1779 35.3727L87.1864 35.3611Z" fill="white"/>
</svg>
