<svg width="44" height="46" viewBox="0 0 44 46" fill="none" xmlns="http://www.w3.org/2000/svg">
<g clip-path="url(#clip0_1449_779)">
<path d="M1.39224 33.0524C1.10985 32.4292 0.847165 31.8059 0.604181 31.176C0.354629 30.5527 0.151045 29.9161 0 29.2727H21.7767C22.6305 29.2727 23.4382 29.1052 24.1934 28.7634C24.9618 28.4082 25.6251 27.9324 26.1898 27.3427C26.7481 26.7596 27.1881 26.0761 27.5033 25.3054C27.8316 24.5213 28.0024 23.6836 28.0024 22.7856C28.0024 21.8808 27.8382 21.0364 27.5296 20.2657C27.2143 19.5018 26.7743 18.8316 26.2161 18.2552C25.671 17.6856 25.0209 17.2366 24.2722 16.9149C23.5367 16.5999 22.7355 16.4324 21.8818 16.4324H0.0525382C0.223285 15.7957 0.433433 15.1457 0.682984 14.5023C0.939105 13.8657 1.21493 13.2424 1.49731 12.6527H21.8818C23.2806 12.6527 24.5743 12.9274 25.7696 13.4569C26.9582 13.9796 27.9893 14.6967 28.8693 15.6014C29.7558 16.4994 30.4519 17.565 30.9445 18.7914C31.4501 20.0245 31.7063 21.3581 31.7063 22.7856C31.7063 24.2197 31.437 25.5533 30.9182 26.7797C30.406 28.0128 29.7033 29.1052 28.8167 30.0501C27.9367 30.9816 26.8925 31.7188 25.6908 32.2483C24.4824 32.7844 23.1755 33.0524 21.7767 33.0524H1.39224ZM37.9319 22.9732C37.9319 25.2249 37.5051 27.3561 36.671 29.3532C35.8436 31.3368 34.7075 33.0725 33.2561 34.5536C31.7982 36.0414 30.0973 37.2209 28.16 38.0921C26.2293 38.9499 24.1606 39.3788 21.9606 39.3788H5.93672C5.35881 38.8628 4.8006 38.2797 4.28179 37.6364C3.75642 36.9997 3.27045 36.3228 2.83702 35.6259H21.9606C23.6352 35.6259 25.2245 35.2975 26.7152 34.634C28.1994 33.9572 29.4997 33.0457 30.603 31.8998C31.6997 30.7605 32.5731 29.4202 33.2036 27.8788C33.8472 26.3441 34.1755 24.7089 34.1755 22.9732C34.1755 21.1705 33.8669 19.4883 33.2561 17.9336C32.6388 16.3654 31.7916 15.005 30.7081 13.859C29.6376 12.7197 28.3636 11.8217 26.8991 11.1783C25.4281 10.5216 23.8585 10.1865 22.197 10.1865H2.94209C3.39523 9.50961 3.88776 8.83946 4.41314 8.17599C4.93194 7.51923 5.50329 6.92949 6.1206 6.40676H22.197C24.397 6.40676 26.4591 6.84237 28.3701 7.69348C30.2943 8.55129 31.969 9.73747 33.3875 11.2319C34.7994 12.7197 35.9158 14.4688 36.7236 16.486C37.5248 18.4898 37.9319 20.6544 37.9319 22.9732ZM22.1182 0C24.0424 0 25.914 0.281468 27.7397 0.831003C29.5719 1.36713 31.2991 2.13783 32.9146 3.13637C34.5236 4.14161 36.0143 5.34121 37.3803 6.72844C38.7397 8.12238 39.9152 9.68386 40.9003 11.3928C41.8788 13.095 42.6406 14.9379 43.1857 16.9149C43.7242 18.8852 44 20.9225 44 23.0268C44 25.0842 43.7307 27.0813 43.2119 29.0047C42.6866 30.9347 41.9379 32.7509 40.9791 34.4464C40.0334 36.1486 38.8842 37.7101 37.5379 39.1375C36.1851 40.5516 34.6812 41.7713 33.0197 42.7832C31.3713 43.8019 29.5916 44.5994 27.6872 45.169C25.7761 45.7185 23.7863 46 21.7242 46C19.3928 46 17.1863 45.6716 15.1045 45.035C13.0358 44.3782 11.0985 43.4467 9.29911 42.2471H21.8293C24.3116 42.2471 26.6693 41.7512 28.8955 40.7459C31.1152 39.734 33.0722 38.3534 34.7534 36.6177C36.4478 34.8887 37.7875 32.8581 38.7725 30.5326C39.751 28.1938 40.2436 25.6941 40.2436 23.0268C40.2436 20.3529 39.7642 17.8465 38.8251 15.521C37.8925 13.1821 36.6054 11.1448 34.9636 9.40909C33.3349 7.68007 31.4108 6.31294 29.2108 5.3077C27.0042 4.30915 24.6334 3.80653 22.1182 3.80653H9.11522C10.7373 2.74097 12.4645 1.87646 14.2902 1.2331C16.1093 0.576342 18.0269 0.16084 20.043 0H22.1182ZM25.7696 23.0268C25.7696 23.5294 25.6711 24.0254 25.4806 24.5012C25.2836 24.9703 25.0143 25.3925 24.6663 25.7611C24.3313 26.123 23.9373 26.4111 23.4842 26.6189C23.0245 26.8199 22.5319 26.9138 22.0131 26.9138C21.4878 26.9138 20.9821 26.8199 20.5158 26.6189C20.0561 26.4111 19.6555 26.123 19.3075 25.7611C18.9528 25.3925 18.6836 24.9703 18.4931 24.5012C18.2961 24.0254 18.2042 23.5294 18.2042 23.0268C18.2042 22.4974 18.2961 21.9813 18.4931 21.4988C18.6836 21.023 18.9528 20.5874 19.3075 20.2121C19.6555 19.8435 20.0561 19.542 20.5158 19.3275C20.9821 19.1198 21.4878 19.0058 22.0131 19.0058C22.5319 19.0058 23.0245 19.1198 23.4842 19.3275C23.9373 19.542 24.3313 19.8435 24.6663 20.2121C25.0143 20.5874 25.2836 21.023 25.4806 21.4988C25.671 21.9813 25.7696 22.4974 25.7696 23.0268Z" fill="white"/>
</g>
<defs>
<clipPath id="clip0_1449_779">
<rect width="44" height="46" fill="white"/>
</clipPath>
</defs>
</svg>
