<?xml version="1.0" encoding="utf-8"?>
<!-- Generator: Adobe Illustrator 26.5.0, SVG Export Plug-In . SVG Version: 6.00 Build 0)  -->
<svg version="1.1" id="Calque_1" xmlns="http://www.w3.org/2000/svg" xmlns:xlink="http://www.w3.org/1999/xlink" x="0px" y="0px"
	 viewBox="0 0 44 46" style="enable-background:new 0 0 44 46;" xml:space="preserve">
<style type="text/css">
	.st0{fill:#050A11;}
</style>
<g>
	<g>
		<path class="st0" d="M1.4,33.1c-0.3-0.6-0.5-1.2-0.8-1.9c-0.2-0.6-0.5-1.3-0.6-1.9h21.8c0.9,0,1.7-0.2,2.4-0.5
			c0.8-0.4,1.4-0.8,2-1.4c0.6-0.6,1-1.3,1.3-2c0.3-0.8,0.5-1.6,0.5-2.5c0-0.9-0.2-1.7-0.5-2.5c-0.3-0.8-0.8-1.4-1.3-2
			c-0.5-0.6-1.2-1-1.9-1.3c-0.7-0.3-1.5-0.5-2.4-0.5H0.1c0.2-0.6,0.4-1.3,0.6-1.9c0.3-0.6,0.5-1.3,0.8-1.8h20.4
			c1.4,0,2.7,0.3,3.9,0.8c1.2,0.5,2.2,1.2,3.1,2.1c0.9,0.9,1.6,2,2.1,3.2c0.5,1.2,0.8,2.6,0.8,4c0,1.4-0.3,2.8-0.8,4
			c-0.5,1.2-1.2,2.3-2.1,3.3c-0.9,0.9-1.9,1.7-3.1,2.2c-1.2,0.5-2.5,0.8-3.9,0.8H1.4z M37.9,23c0,2.3-0.4,4.4-1.3,6.4
			c-0.8,2-2,3.7-3.4,5.2c-1.5,1.5-3.2,2.7-5.1,3.5c-1.9,0.9-4,1.3-6.2,1.3h-16c-0.6-0.5-1.1-1.1-1.7-1.7c-0.5-0.6-1-1.3-1.4-2H22
			c1.7,0,3.3-0.3,4.8-1c1.5-0.7,2.8-1.6,3.9-2.7c1.1-1.1,2-2.5,2.6-4c0.6-1.5,1-3.2,1-4.9c0-1.8-0.3-3.5-0.9-5
			c-0.6-1.6-1.5-2.9-2.5-4.1c-1.1-1.1-2.3-2-3.8-2.7c-1.5-0.7-3-1-4.7-1H2.9c0.5-0.7,0.9-1.3,1.5-2c0.5-0.7,1.1-1.2,1.7-1.8h16.1
			c2.2,0,4.3,0.4,6.2,1.3c1.9,0.9,3.6,2,5,3.5c1.4,1.5,2.5,3.2,3.3,5.3C37.5,18.5,37.9,20.7,37.9,23z M22.1,0c1.9,0,3.8,0.3,5.6,0.8
			c1.8,0.5,3.6,1.3,5.2,2.3c1.6,1,3.1,2.2,4.5,3.6c1.4,1.4,2.5,3,3.5,4.7c1,1.7,1.7,3.5,2.3,5.5c0.5,2,0.8,4,0.8,6.1
			c0,2.1-0.3,4.1-0.8,6c-0.5,1.9-1.3,3.7-2.2,5.4c-0.9,1.7-2.1,3.3-3.4,4.7c-1.4,1.4-2.9,2.6-4.5,3.6c-1.6,1-3.4,1.8-5.3,2.4
			c-1.9,0.5-3.9,0.8-6,0.8c-2.3,0-4.5-0.3-6.6-1c-2.1-0.7-4-1.6-5.8-2.8h12.5c2.5,0,4.8-0.5,7.1-1.5c2.2-1,4.2-2.4,5.9-4.1
			c1.7-1.7,3-3.8,4-6.1c1-2.3,1.5-4.8,1.5-7.5c0-2.7-0.5-5.2-1.4-7.5c-0.9-2.3-2.2-4.4-3.9-6.1c-1.6-1.7-3.6-3.1-5.8-4.1
			c-2.2-1-4.6-1.5-7.1-1.5h-13c1.6-1.1,3.3-1.9,5.2-2.6C16.1,0.6,18,0.2,20,0H22.1z M25.8,23c0,0.5-0.1,1-0.3,1.5
			c-0.2,0.5-0.5,0.9-0.8,1.3c-0.3,0.4-0.7,0.6-1.2,0.9c-0.5,0.2-1,0.3-1.5,0.3c-0.5,0-1-0.1-1.5-0.3c-0.5-0.2-0.9-0.5-1.2-0.9
			c-0.4-0.4-0.6-0.8-0.8-1.3c-0.2-0.5-0.3-1-0.3-1.5c0-0.5,0.1-1,0.3-1.5c0.2-0.5,0.5-0.9,0.8-1.3c0.3-0.4,0.7-0.7,1.2-0.9
			c0.5-0.2,1-0.3,1.5-0.3c0.5,0,1,0.1,1.5,0.3c0.5,0.2,0.8,0.5,1.2,0.9c0.3,0.4,0.6,0.8,0.8,1.3C25.7,22,25.8,22.5,25.8,23z"/>
	</g>
</g>
</svg>
