<svg width="152" height="30" viewBox="0 0 152 30" fill="none" xmlns="http://www.w3.org/2000/svg">
<path d="M127.517 0.0116257V4.79558H117.014V29.9651H111.762V4.79558H101.042V0.0116257H127.517ZM128.699 27.111C129.07 27.111 129.393 27.2418 129.667 27.5034C129.946 27.765 130.082 28.076 130.088 28.4393C130.085 28.6863 130.02 28.913 129.892 29.1164C129.762 29.3228 129.592 29.4827 129.384 29.6018C129.177 29.721 128.951 29.7849 128.702 29.7849C128.316 29.7849 127.989 29.6541 127.716 29.3926C127.443 29.131 127.306 28.8171 127.309 28.4422C127.306 28.0789 127.44 27.765 127.716 27.5063C127.992 27.2476 128.316 27.1139 128.702 27.1139L128.699 27.111ZM24.6164 29.9651L5.25162 6.40283V29.9535H0V0H6.56378L31.0288 29.7413V4.79558V0.0116257H57.5036V4.79558H36.2804V12.4918H53.3474V17.2757H36.2804V25.1812H57.5006V29.9651H24.6164ZM74.3301 17.2321L77.7708 21.4203L70.7202 30H63.8269L74.3301 17.2292V17.2321ZM70.7202 0.0261577L79.6055 10.8293L88.4641 0.0581283L95.3366 0.0465026L83.0462 15.0116L95.3544 29.9767H88.4611L63.8477 0.0261577H70.7202ZM137.661 17.1653H139.989V25.9426C139.986 26.7506 139.808 27.4394 139.457 28.0207C139.104 28.602 138.617 29.0438 137.991 29.3548C137.367 29.6629 136.64 29.8227 135.809 29.8227C135.052 29.8227 134.372 29.689 133.766 29.4274C133.161 29.1659 132.68 28.7764 132.329 28.2591C131.973 27.7446 131.798 27.1023 131.798 26.3321H134.128C134.131 26.6693 134.212 26.9599 134.36 27.204C134.508 27.4482 134.716 27.6342 134.98 27.765C135.248 27.8958 135.553 27.9597 135.898 27.9597C136.272 27.9597 136.592 27.8841 136.851 27.7301C137.109 27.579 137.311 27.3523 137.447 27.05C137.581 26.7506 137.655 26.3815 137.658 25.9426V17.1653H137.661ZM149.563 20.5978C149.506 20.0659 149.257 19.6503 148.823 19.3538C148.387 19.0544 147.82 18.9062 147.125 18.9062C146.639 18.9062 146.217 18.9789 145.87 19.1184C145.522 19.2637 145.249 19.4555 145.065 19.6997C144.881 19.9438 144.789 20.2228 144.78 20.5338C144.78 20.7954 144.845 21.0221 144.97 21.211C145.095 21.4028 145.261 21.5656 145.478 21.6964C145.692 21.8301 145.929 21.9405 146.19 22.0306C146.454 22.1207 146.716 22.1963 146.98 22.2573L148.194 22.548C148.681 22.6584 149.156 22.8066 149.607 22.9955C150.058 23.1816 150.468 23.417 150.827 23.7018C151.187 23.9866 151.472 24.3296 151.682 24.7307C151.893 25.1318 152 25.6026 152 26.1461C152 26.8785 151.807 27.5179 151.421 28.076C151.032 28.6282 150.474 29.0612 149.741 29.3722C149.011 29.6803 148.129 29.8401 147.09 29.8401C146.051 29.8401 145.211 29.689 144.474 29.3867C143.735 29.0874 143.156 28.6485 142.741 28.073C142.325 27.4976 142.099 26.7913 142.067 25.9659H144.373C144.406 26.399 144.549 26.7593 144.789 27.05C145.035 27.3377 145.356 27.5499 145.745 27.6952C146.14 27.8347 146.582 27.9074 147.069 27.9074C147.556 27.9074 148.025 27.8318 148.414 27.6836C148.797 27.5354 149.1 27.329 149.316 27.0616C149.536 26.7971 149.646 26.4861 149.652 26.1287C149.649 25.8031 149.548 25.5299 149.355 25.3178C149.159 25.1056 148.889 24.9254 148.544 24.783C148.197 24.6377 147.79 24.5098 147.327 24.3964L145.855 24.0331C144.792 23.7686 143.949 23.3676 143.331 22.827C142.714 22.2893 142.405 21.5743 142.405 20.6791C142.405 19.9438 142.613 19.2986 143.029 18.7464C143.441 18.1941 144.008 17.764 144.721 17.4588C145.439 17.1507 146.25 16.9996 147.155 16.9996C148.061 16.9996 148.877 17.1507 149.572 17.4588C150.266 17.764 150.81 18.1912 151.204 18.7318C151.599 19.2753 151.807 19.8944 151.816 20.5978H149.56H149.563Z" fill="#050A11"/>
</svg>
