<?xml version="1.0" encoding="utf-8"?>
<!-- Generator: Adobe Illustrator 26.5.0, SVG Export Plug-In . SVG Version: 6.00 Build 0)  -->
<svg version="1.1" id="Calque_1" xmlns="http://www.w3.org/2000/svg" xmlns:xlink="http://www.w3.org/1999/xlink" x="0px" y="0px"
	 viewBox="0 0 103 29" style="enable-background:new 0 0 103 29;" xml:space="preserve">
<style type="text/css">
	.st0{fill:#83CD29;}
	.st1{fill:#050A11;}
</style>
<path class="st0" d="M94.5,10.3c-0.2,0-0.5,0.1-0.7,0.2L87,14.4c-0.4,0.3-0.7,0.7-0.7,1.2v7.8c0,0.5,0.3,1,0.7,1.2l1.8,1
	c0.9,0.4,1.2,0.4,1.6,0.4c1.3,0,2-0.8,2-2.1v-7.7c0-0.1-0.1-0.2-0.2-0.2h-0.9c-0.1,0-0.2,0.1-0.2,0.2v7.7c0,0.6-0.6,1.2-1.6,0.7
	l-1.9-1.1c-0.1,0-0.1-0.1-0.1-0.2v-7.8c0-0.1,0-0.2,0.1-0.2l6.8-3.9c0,0,0.1,0,0.1,0c0,0,0.1,0,0.1,0l6.8,3.9c0.1,0,0.1,0.1,0.1,0.2
	v7.8c0,0.1,0,0.2-0.1,0.2l-6.8,3.9c-0.1,0-0.1,0-0.2,0l-1.7-1c0,0-0.1,0-0.1,0c0,0-0.1,0-0.1,0c-0.5,0.3-0.6,0.3-1,0.5
	c-0.1,0-0.3,0.1,0.1,0.3l2.3,1.3c0.2,0.1,0.5,0.2,0.7,0.2c0.2,0,0.5-0.1,0.7-0.2l6.8-3.9c0.4-0.3,0.7-0.7,0.7-1.2v-7.8
	c0-0.5-0.3-1-0.7-1.2l-6.8-3.9C95,10.3,94.7,10.3,94.5,10.3L94.5,10.3z"/>
<path class="st0" d="M96.3,15.9c-1.9,0-3.1,0.8-3.1,2.2c0,1.5,1.1,1.9,3,2.1c2.2,0.2,2.4,0.5,2.4,1c0,0.8-0.6,1.1-2,1.1
	c-1.8,0-2.2-0.4-2.3-1.3c0-0.1-0.1-0.2-0.2-0.2h-0.9c-0.1,0-0.2,0.1-0.2,0.2c0,1.1,0.6,2.5,3.6,2.5c2.2,0,3.4-0.8,3.4-2.3
	c0-1.5-1-1.9-3.1-2.1c-2.1-0.3-2.3-0.4-2.3-0.9c0-0.4,0.2-1,1.7-1c1.4,0,1.9,0.3,2.1,1.2c0,0.1,0.1,0.2,0.2,0.2h0.9
	c0.1,0,0.1,0,0.1-0.1c0,0,0.1-0.1,0.1-0.1C99.6,16.7,98.5,15.9,96.3,15.9z"/>
<path class="st1" d="M54.4,0c-0.1,0-0.2,0-0.2,0.1c-0.1,0-0.1,0.1-0.2,0.2C54,0.3,54,0.4,54,0.4v11.1c0,0.1-0.1,0.2-0.1,0.3
	c0,0-0.1,0-0.2,0c-0.1,0-0.1,0-0.2,0l-1.8-1c-0.1-0.1-0.3-0.1-0.4-0.1c-0.2,0-0.3,0-0.4,0.1l-7.2,4.2c-0.3,0.2-0.4,0.5-0.4,0.8V24
	c0,0.3,0.2,0.6,0.4,0.8l7.2,4.2C51,29,51.2,29,51.3,29c0.2,0,0.3,0,0.4-0.1l7.2-4.2c0.1-0.1,0.2-0.2,0.3-0.3
	c0.1-0.1,0.1-0.3,0.1-0.4V3.2c0-0.2,0-0.3-0.1-0.4c-0.1-0.1-0.2-0.2-0.3-0.3L54.7,0C54.6,0,54.5,0,54.4,0z M8,10.4
	c-0.1,0-0.3,0-0.4,0.1l-7.2,4.2c-0.1,0.1-0.2,0.2-0.3,0.3C0,15.1,0,15.3,0,15.4l0,11.2c0,0.2,0.1,0.3,0.2,0.4C0.3,27,0.4,27,0.4,27
	s0.2,0,0.2-0.1l4.3-2.5c0.3-0.2,0.4-0.4,0.4-0.8v-5.2c0-0.3,0.2-0.6,0.4-0.8l1.8-1.1c0.1-0.1,0.3-0.1,0.4-0.1c0.1,0,0.3,0,0.4,0.1
	l1.8,1.1c0.1,0.1,0.2,0.2,0.3,0.3c0.1,0.1,0.1,0.3,0.1,0.4v5.2c0,0.3,0.2,0.6,0.4,0.8l4.3,2.5c0.1,0,0.1,0.1,0.2,0.1
	c0.1,0,0.2,0,0.2-0.1c0.1,0,0.1-0.1,0.2-0.2c0-0.1,0.1-0.1,0.1-0.2l0-11.2c0-0.2,0-0.3-0.1-0.4s-0.2-0.2-0.3-0.3l-7.2-4.2
	C8.4,10.4,8.3,10.4,8,10.4L8,10.4z M72.9,10.5c-0.2,0-0.3,0-0.4,0.1l-7.2,4.2c-0.1,0.1-0.2,0.2-0.3,0.3c-0.1,0.1-0.1,0.3-0.1,0.4
	v8.3c0,0.3,0.2,0.6,0.4,0.8l7.2,4.1c0.3,0.2,0.6,0.2,0.9,0l4.3-2.4c0.1-0.1,0.2-0.2,0.2-0.4c0-0.1,0-0.2-0.1-0.2
	c0-0.1-0.1-0.1-0.2-0.2l-7.3-4.2c-0.1-0.1-0.2-0.2-0.2-0.4v-2.6c0-0.2,0.1-0.3,0.2-0.4l2.3-1.3c0.1,0,0.1-0.1,0.2-0.1
	c0.1,0,0.2,0,0.2,0.1l2.3,1.3c0.1,0,0.1,0.1,0.2,0.2s0.1,0.1,0.1,0.2v2.1c0,0.1,0,0.2,0.1,0.2c0,0.1,0.1,0.1,0.2,0.2
	c0.1,0.1,0.3,0.1,0.4,0l4.3-2.5c0.1-0.1,0.2-0.2,0.3-0.3c0.1-0.1,0.1-0.3,0.1-0.4v-2c0-0.3-0.2-0.6-0.4-0.8l-7.2-4.2
	C73.2,10.5,73,10.5,72.9,10.5z M51.3,16.7c0,0,0.1,0,0.1,0l2.5,1.4c0.1,0,0.1,0.1,0.1,0.2v2.9c0,0.1,0,0.1-0.1,0.2l-2.5,1.4
	c0,0-0.1,0-0.1,0c0,0-0.1,0-0.1,0l-2.5-1.4c-0.1,0-0.1-0.1-0.1-0.2v-2.9c0-0.1,0-0.1,0.1-0.2l2.5-1.4C51.2,16.7,51.3,16.7,51.3,16.7
	L51.3,16.7z"/>
<path class="st0" d="M29.7,10.5c-0.2,0-0.3,0-0.4,0.1l-7.2,4.1c-0.3,0.2-0.4,0.5-0.4,0.8v8.3c0,0.3,0.2,0.6,0.4,0.8l7.2,4.2
	c0.1,0.1,0.3,0.1,0.4,0.1c0.2,0,0.3,0,0.4-0.1l7.2-4.2c0.1-0.1,0.2-0.2,0.3-0.3c0.1-0.1,0.1-0.3,0.1-0.4v-8.3c0-0.3-0.2-0.6-0.4-0.8
	l-7.2-4.1C30,10.5,29.9,10.5,29.7,10.5z M72.8,17.9C72.8,17.9,72.8,17.9,72.8,17.9l-1.5,0.8c0,0,0,0-0.1,0.1c0,0,0,0.1,0,0.1v1.6
	c0,0.1,0,0.1,0.1,0.1l1.4,0.8c0.1,0,0.1,0,0.2,0l1.4-0.8c0,0,0,0,0.1-0.1c0,0,0-0.1,0-0.1v-1.6c0,0,0-0.1,0-0.1c0,0,0,0-0.1-0.1
	L72.8,17.9C72.9,17.9,72.9,17.9,72.8,17.9z"/>
</svg>
