<svg width="103" height="29" viewBox="0 0 103 29" fill="none" xmlns="http://www.w3.org/2000/svg">
<path d="M94.4703 10.293C94.2203 10.293 93.9772 10.3446 93.762 10.4664L86.9533 14.3983C86.5127 14.6523 86.2449 15.1317 86.2449 15.6418V23.4915C86.2449 24.0012 86.5127 24.48 86.9533 24.7346L88.7314 25.761C89.5954 26.1868 89.9138 26.1802 90.307 26.1802C91.5861 26.1802 92.3164 25.404 92.3164 24.0553V16.3066C92.3164 16.1971 92.2216 16.1188 92.1141 16.1188H91.2612C91.1519 16.1188 91.0589 16.1971 91.0589 16.3066V24.0553C91.0589 24.653 90.436 25.2543 89.4254 24.749L87.5749 23.6649C87.5095 23.6293 87.4592 23.5664 87.4592 23.4915V15.6416C87.4592 15.5673 87.5088 15.4915 87.5749 15.4537L94.3692 11.5365C94.3999 11.5185 94.4348 11.5091 94.4704 11.5091C94.5059 11.5091 94.5408 11.5185 94.5715 11.5365L101.366 15.4539C101.431 15.4929 101.482 15.5651 101.482 15.642V23.4917C101.482 23.5666 101.444 23.6434 101.38 23.6795L94.5715 27.597C94.5133 27.6318 94.4329 27.6318 94.3692 27.597L92.62 26.5563C92.5934 26.5418 92.5636 26.5343 92.5333 26.5343C92.503 26.5343 92.4732 26.5418 92.4466 26.5563C91.9638 26.8299 91.873 26.8617 91.4201 27.0188C91.3086 27.0578 91.1392 27.1182 91.478 27.3081L93.762 28.6523C93.9774 28.7765 94.2218 28.8414 94.4705 28.8403C94.7191 28.8419 94.9635 28.777 95.1787 28.6525L101.988 24.7348C102.428 24.4786 102.696 24.0014 102.696 23.4917V15.6418C102.696 15.1319 102.428 14.6533 101.988 14.3987L95.1787 10.4668C94.9653 10.3448 94.7206 10.2932 94.4705 10.2932L94.4703 10.293Z" fill="#83CD29"/>
<path d="M96.2913 15.9019C94.3525 15.9019 93.1978 16.727 93.1978 18.0993C93.1978 19.5877 94.3438 19.9968 96.2047 20.1808C98.4309 20.3988 98.6043 20.7257 98.6043 21.1639C98.6043 21.924 97.9983 22.2481 96.5662 22.2481C94.7666 22.2481 94.3712 21.7988 94.2388 20.9037C94.2231 20.8077 94.149 20.7301 94.0507 20.7301H93.1689C93.0604 20.7301 92.9666 20.8237 92.9666 20.9326C92.9666 22.0785 93.5898 23.4335 96.5662 23.4335C98.7206 23.4335 99.9633 22.5878 99.9633 21.106C99.9633 19.6373 98.9595 19.2429 96.8696 18.9667C94.7579 18.6872 94.5566 18.5504 94.5566 18.0559C94.5566 17.6476 94.7274 17.1015 96.2913 17.1015C97.6885 17.1015 98.2049 17.4029 98.4165 18.345C98.4349 18.4334 98.5129 18.5039 98.6043 18.5039H99.4863C99.5406 18.5039 99.5932 18.4706 99.6308 18.4316C99.6678 18.39 99.6939 18.3432 99.6887 18.2872C99.552 16.6649 98.4703 15.9019 96.2913 15.9019Z" fill="#83CD29"/>
<path d="M54.4416 9.33369e-05C54.3654 0.00014382 54.2907 0.0200173 54.2246 0.0577568C54.1589 0.0961866 54.1044 0.151063 54.0663 0.216981C54.0283 0.282898 54.0081 0.357582 54.0078 0.433674V11.4926C54.0078 11.6011 53.9573 11.6983 53.8633 11.7528C53.8172 11.7796 53.7648 11.7938 53.7115 11.7938C53.6582 11.7938 53.6058 11.7796 53.5597 11.7528L51.7527 10.712C51.6209 10.6358 51.4713 10.5956 51.319 10.5956C51.1667 10.5956 51.0171 10.6358 50.8853 10.712L43.6717 14.8753C43.4021 15.031 43.2382 15.3301 43.2382 15.6416V23.9682C43.2382 24.2792 43.4023 24.5641 43.6717 24.7198L50.8853 28.8833C51.017 28.9597 51.1667 29 51.319 29C51.4713 29 51.6209 28.9597 51.7527 28.8833L58.9662 24.7198C59.0983 24.6438 59.208 24.5343 59.2841 24.4023C59.3603 24.2703 59.4003 24.1206 59.4 23.9682V3.20936C59.3998 3.05341 59.3582 2.9003 59.2795 2.76567C59.2008 2.63104 59.0878 2.51972 58.952 2.44306L54.6583 0.0432907C54.591 0.00571904 54.5163 -0.000911253 54.4416 9.33369e-05ZM8.03753 10.394C7.9001 10.3994 7.77071 10.4235 7.64734 10.495L0.433585 14.6585C0.301443 14.7344 0.191733 14.8439 0.115585 14.9759C0.0394374 15.1079 -0.000438416 15.2577 3.6357e-06 15.4101L0.0144697 26.585C0.0144697 26.7403 0.094636 26.8847 0.23126 26.9607C0.296761 27 0.371736 27.0208 0.448151 27.0208C0.524566 27.0208 0.599541 27 0.665042 26.9607L4.94399 24.5033C5.21503 24.3421 5.39204 24.062 5.39204 23.7514V18.5328C5.39204 18.2213 5.55579 17.9356 5.82582 17.7809L7.64714 16.7257C7.77883 16.6491 7.9286 16.6092 8.08093 16.61C8.22961 16.61 8.3823 16.6472 8.51451 16.7257L10.336 17.7809C10.4683 17.8568 10.5781 17.9663 10.6543 18.0984C10.7305 18.2304 10.7704 18.3803 10.7698 18.5328V23.7512C10.7698 24.0618 10.9486 24.3439 11.2179 24.503L15.4968 26.9607C15.5623 27 15.6373 27.0208 15.7137 27.0208C15.7901 27.0208 15.8651 27 15.9306 26.9607C15.9965 26.9225 16.0513 26.8677 16.0894 26.8017C16.1274 26.7358 16.1475 26.6609 16.1476 26.5848L16.1616 15.4101C16.1625 15.2576 16.1228 15.1077 16.0466 14.9756C15.9704 14.8435 15.8605 14.7341 15.7281 14.6585L8.51451 10.495C8.39255 10.4235 8.26276 10.3996 8.12432 10.394H8.03753ZM72.8585 10.495C72.7078 10.495 72.5601 10.5332 72.4249 10.6108L65.2114 14.7742C65.0793 14.8502 64.9696 14.9597 64.8934 15.0917C64.8172 15.2237 64.7773 15.3734 64.7776 15.5258V23.8525C64.7776 24.1657 64.954 24.4494 65.2256 24.6043L72.3815 28.6809C72.6457 28.8316 72.9684 28.8431 73.2344 28.695L77.5712 26.281C77.7089 26.2046 77.8019 26.062 77.8025 25.9053C77.8032 25.8289 77.7835 25.7538 77.7454 25.6877C77.7073 25.6216 77.6521 25.5669 77.5857 25.5293L70.3287 21.3659C70.1929 21.2884 70.0975 21.1314 70.0975 20.9755V18.3736C70.0975 18.2179 70.1939 18.0753 70.3287 17.9977L72.5838 16.6966C72.6498 16.6584 72.7246 16.6383 72.8007 16.6383C72.8769 16.6383 72.9517 16.6584 73.0176 16.6966L75.2725 17.9977C75.3386 18.0357 75.3935 18.0904 75.4316 18.1564C75.4697 18.2224 75.4897 18.2973 75.4895 18.3734V20.4262C75.4893 20.5024 75.5093 20.5773 75.5473 20.6433C75.5854 20.7092 75.6403 20.764 75.7063 20.8019C75.8415 20.8801 76.0051 20.8803 76.1399 20.8019L80.4624 18.287C80.5943 18.2108 80.7038 18.1011 80.7799 17.9692C80.8561 17.8372 80.8962 17.6876 80.8962 17.5352V15.526C80.8962 15.2156 80.7315 14.9301 80.4624 14.7742L73.2923 10.6108C73.1605 10.5345 73.0108 10.4945 72.8585 10.495ZM51.29 16.7112C51.3277 16.7112 51.3719 16.7205 51.4057 16.74L53.8778 18.1711C53.9449 18.2099 53.9935 18.2816 53.9935 18.359V21.2213C53.9935 21.299 53.9453 21.3705 53.8778 21.4093L51.4057 22.8405C51.3727 22.8593 51.3353 22.8692 51.2973 22.8692C51.2593 22.8692 51.2219 22.8593 51.1889 22.8405L48.717 21.4093C48.6497 21.3703 48.6013 21.299 48.6013 21.2213V18.359C48.6013 18.2814 48.6499 18.2103 48.717 18.1711L51.1889 16.7402C51.2193 16.7213 51.2544 16.7113 51.2902 16.7114L51.29 16.7112Z" fill="white"/>
<path d="M29.7071 10.4517C29.5569 10.4517 29.4082 10.4898 29.2736 10.5674L22.06 14.7163C21.7902 14.8717 21.6262 15.1714 21.6262 15.4824V23.8091C21.6262 24.1205 21.7904 24.405 22.06 24.5609L29.2736 28.7242C29.4053 28.8007 29.5549 28.841 29.7072 28.841C29.8596 28.841 30.0092 28.8007 30.1409 28.7242L37.3545 24.5609C37.4865 24.4849 37.5962 24.3753 37.6723 24.2433C37.7484 24.1113 37.7884 23.9615 37.7881 23.8091V15.4824C37.7881 15.171 37.6241 14.8717 37.3545 14.7163L30.1409 10.5674C30.0091 10.4912 29.8594 10.4513 29.7071 10.4517ZM72.844 17.8822C72.8153 17.8822 72.7834 17.8822 72.7574 17.8967L71.3697 18.7062C71.3438 18.7206 71.3222 18.7415 71.3069 18.7669C71.2917 18.7923 71.2834 18.8212 71.2829 18.8508V20.4409C71.2829 20.5008 71.3175 20.5556 71.3697 20.5856L72.7574 21.3806C72.8095 21.4107 72.8649 21.4107 72.9164 21.3806L74.3041 20.5854C74.3299 20.5709 74.3515 20.55 74.3667 20.5246C74.3819 20.4993 74.3902 20.4705 74.3909 20.4409V18.8506C74.3902 18.8211 74.3819 18.7922 74.3667 18.7669C74.3515 18.7416 74.3299 18.7206 74.3041 18.7062L72.9164 17.8965C72.8907 17.8814 72.873 17.8822 72.844 17.8822Z" fill="#83CD29"/>
</svg>
