<svg width="34" height="34" viewBox="0 0 34 34" fill="none" xmlns="http://www.w3.org/2000/svg">
<path d="M20.84 24.1117C19.848 24.0397 19.152 23.7677 18.488 23.3917C16.952 22.5197 15.72 21.3037 14.584 19.9757C13.328 18.5117 12.112 17.0157 11.304 15.2397C10.92 14.3997 10.624 13.5437 10.6 12.6077C10.584 11.9517 10.808 11.3917 11.288 10.9437C11.88 10.3837 12.584 10.0237 13.392 9.89575C13.816 9.82375 14.16 9.96775 14.376 10.3677C14.848 11.2637 15.256 12.1837 15.512 13.1677C15.656 13.7437 15.56 13.9677 15.064 14.2877C15.016 14.3197 14.968 14.3437 14.928 14.3757C14.36 14.7197 14.296 14.9437 14.632 15.5277C15.048 16.2557 15.576 16.9037 16.112 17.5437C16.728 18.2717 17.312 19.0317 18.072 19.6317C18.504 19.9757 18.688 19.9597 19.08 19.5757C19.208 19.4557 19.336 19.3277 19.472 19.2237C19.736 19.0237 20.016 18.9597 20.336 19.1117C21.376 19.5837 22.296 20.2317 23.184 20.9437C23.352 21.0797 23.408 21.2717 23.408 21.4877C23.408 22.5677 21.712 24.1437 20.856 24.1037L20.84 24.1117Z" stroke="url(#paint0_linear_1428_497)" stroke-width="2" stroke-miterlimit="10"/>
<path d="M17 33C25.8366 33 33 25.8366 33 17C33 8.16344 25.8366 1 17 1C8.16344 1 1 8.16344 1 17C1 25.8366 8.16344 33 17 33Z" stroke="url(#paint1_linear_1428_497)" stroke-width="2" stroke-miterlimit="10"/>
<defs>
<linearGradient id="paint0_linear_1428_497" x1="23.408" y1="16.9948" x2="10.5992" y2="16.9948" gradientUnits="userSpaceOnUse">
<stop stop-color="#28C8D3"/>
<stop offset="0.5" stop-color="#9747FF"/>
<stop offset="1" stop-color="#7662F9"/>
</linearGradient>
<linearGradient id="paint1_linear_1428_497" x1="33" y1="17" x2="1" y2="17" gradientUnits="userSpaceOnUse">
<stop stop-color="#28C8D3"/>
<stop offset="0.5" stop-color="#9747FF"/>
<stop offset="1" stop-color="#7662F9"/>
</linearGradient>
</defs>
</svg>
