<svg width="45" height="43" viewBox="0 0 45 43" fill="none" xmlns="http://www.w3.org/2000/svg">
<g clip-path="url(#clip0_1449_769)">
<path d="M7.96875 0H37.0312C41.4375 0 45 3.49145 45 7.80983V35.1902C45 39.5085 41.4375 43 37.0312 43H7.96875C3.5625 43 0 39.5085 0 35.1902V7.80983C0 3.49145 3.5625 0 7.96875 0Z" fill="#001E36"/>
<path d="M10.125 30.155V11.246C10.125 11.1174 10.1812 11.0438 10.3125 11.0438C10.6312 11.0438 10.9312 11.0439 11.3625 11.0255C11.8125 11.0071 12.2812 11.0071 12.7875 10.9887C13.2937 10.9703 13.8375 10.9703 14.4187 10.952C15 10.9336 15.5625 10.9336 16.125 10.9336C17.6625 10.9336 18.9375 11.1174 19.9875 11.5033C20.925 11.8156 21.7875 12.3302 22.5 13.0101C23.1 13.5981 23.5687 14.3148 23.8687 15.105C24.15 15.8768 24.3 16.6669 24.3 17.4938C24.3 19.0742 23.925 20.3789 23.175 21.408C22.425 22.437 21.375 23.2088 20.1562 23.6498C18.8812 24.1092 17.475 24.2746 15.9375 24.2746C15.4875 24.2746 15.1875 24.2746 15 24.2562C14.8125 24.2379 14.55 24.2379 14.1937 24.2379V30.1366C14.2125 30.2652 14.1187 30.3755 13.9875 30.3938C13.9687 30.3938 13.95 30.3938 13.9125 30.3938H10.35C10.2 30.3938 10.125 30.3203 10.125 30.155ZM14.2125 14.5904V20.7648C14.475 20.7832 14.7187 20.8015 14.9437 20.8015H15.9375C16.6687 20.8015 17.4 20.6913 18.0937 20.4708C18.6937 20.3054 19.2187 19.9562 19.6312 19.4968C20.025 19.0374 20.2125 18.4127 20.2125 17.6041C20.2312 17.0344 20.0812 16.4648 19.7812 15.9686C19.4625 15.4909 19.0125 15.1233 18.4687 14.9212C17.775 14.6456 17.025 14.5353 16.2562 14.5537C15.7687 14.5537 15.3375 14.5537 14.9812 14.5721C14.6062 14.5537 14.3438 14.5721 14.2125 14.5904Z" fill="#31A8FF"/>
<path d="M36.0001 19.6437C35.4376 19.3497 34.8376 19.1476 34.2001 19.0189C33.5063 18.8719 32.8126 18.78 32.1001 18.78C31.7251 18.7617 31.3313 18.8168 30.9751 18.9087C30.7313 18.9638 30.5251 19.0924 30.3938 19.2762C30.3001 19.4232 30.2438 19.607 30.2438 19.7723C30.2438 19.9377 30.3188 20.1031 30.4313 20.2501C30.6001 20.4523 30.8251 20.6176 31.0688 20.7463C31.5001 20.9668 31.9501 21.1689 32.4001 21.3527C33.4126 21.6835 34.3876 22.1429 35.2876 22.6941C35.9063 23.08 36.4126 23.5946 36.7688 24.2194C37.0688 24.8074 37.2188 25.4506 37.2001 26.1121C37.2188 26.9758 36.9563 27.8394 36.4688 28.5561C35.9438 29.2911 35.2126 29.8608 34.3688 30.1916C33.4501 30.5775 32.3251 30.7796 30.9751 30.7796C30.1126 30.7796 29.2688 30.7061 28.4251 30.5407C27.7688 30.4305 27.1126 30.2283 26.5126 29.9527C26.3813 29.8792 26.2876 29.7506 26.3063 29.6035V26.4061C26.3063 26.351 26.3251 26.2775 26.3813 26.2407C26.4376 26.204 26.4938 26.2223 26.5501 26.2591C27.2813 26.6817 28.0501 26.9758 28.8751 27.1595C29.5876 27.3433 30.3376 27.4352 31.0876 27.4352C31.8001 27.4352 32.3063 27.3433 32.6438 27.1779C32.9438 27.0493 33.1501 26.7369 33.1501 26.4061C33.1501 26.1488 33.0001 25.91 32.7001 25.6711C32.4001 25.4322 31.7813 25.1565 30.8626 24.8074C29.9063 24.4766 29.0251 24.0356 28.2001 23.4843C27.6188 23.08 27.1313 22.5471 26.7751 21.9223C26.4751 21.3343 26.3251 20.6911 26.3438 20.048C26.3438 19.2578 26.5688 18.5044 26.9813 17.8245C27.4501 17.0894 28.1438 16.5014 28.9501 16.1339C29.8313 15.6929 30.9376 15.4907 32.2688 15.4907C33.0376 15.4907 33.8251 15.5458 34.5938 15.6561C35.1563 15.7296 35.7001 15.8766 36.2063 16.0788C36.2813 16.0971 36.3563 16.1706 36.3938 16.2441C36.4126 16.3176 36.4313 16.3911 36.4313 16.4647V19.46C36.4313 19.5335 36.3938 19.607 36.3376 19.6437C36.1688 19.6805 36.0751 19.6805 36.0001 19.6437Z" fill="#31A8FF"/>
</g>
<defs>
<clipPath id="clip0_1449_769">
<rect width="45" height="43" fill="white"/>
</clipPath>
</defs>
</svg>
