<?xml version="1.0" encoding="utf-8"?>
<!-- Generator: Adobe Illustrator 26.5.0, SVG Export Plug-In . SVG Version: 6.00 Build 0)  -->
<svg version="1.1" id="Calque_1" xmlns="http://www.w3.org/2000/svg" xmlns:xlink="http://www.w3.org/1999/xlink" x="0px" y="0px"
	 viewBox="0 0 71 62" style="enable-background:new 0 0 71 62;" xml:space="preserve">
<style type="text/css">
	.st0{fill:#050A11;}
	.st1{fill:#367FAF;}
	.st2{fill:none;stroke:#050A11;stroke-width:5.046;}
	.st3{fill:#417BA2;}
	.st4{fill:none;stroke:#050A11;stroke-width:1.682;stroke-linecap:round;stroke-linejoin:round;}
	.st5{fill:none;stroke:#050A11;stroke-width:1.682;stroke-linecap:round;stroke-linejoin:bevel;}
	.st6{fill:none;stroke:#050A11;stroke-width:1.682;stroke-linejoin:round;}
	.st7{fill:#050A11;stroke:#050A11;stroke-width:0.561;}
	.st8{fill:#050A11;stroke:#050A11;stroke-width:0.28;}
</style>
<g>
	<path class="st0" d="M7.6,51.6H4.5v-2.8h3.3c1.2,0,1.8,0.5,1.8,1.4C9.5,51.2,8.9,51.6,7.6,51.6 M9.8,48.8c-0.4-0.3-1-0.5-1.8-0.5
		l-4.4,0V55h0.9l0-2.9h3.3c0.8,0,1.5-0.2,2-0.5c0.5-0.3,0.7-0.8,0.7-1.4C10.4,49.6,10.2,49.2,9.8,48.8L9.8,48.8z M15.6,53.6
		c-0.1,0.2-0.2,0.4-0.4,0.6c-0.4,0.4-1,0.5-1.8,0.5c-0.7,0-1.3-0.2-1.7-0.5c-0.4-0.3-0.6-0.8-0.6-1.4c0-0.3,0.1-0.6,0.2-0.8
		c0.1-0.2,0.3-0.4,0.5-0.6c0.4-0.3,1-0.5,1.7-0.5c1.6,0,2.4,0.6,2.4,1.9C15.7,53.1,15.7,53.4,15.6,53.6 M15.8,51.1
		c-0.5-0.4-1.4-0.7-2.4-0.7c-1,0-1.8,0.2-2.3,0.7c-0.5,0.4-0.7,1-0.7,1.7c0,0.7,0.3,1.3,0.8,1.7c0.3,0.2,0.6,0.4,1,0.5
		c0.4,0.1,0.8,0.2,1.3,0.2c1.1,0,1.9-0.2,2.4-0.7c0.5-0.4,0.7-1,0.7-1.7C16.5,52.1,16.3,51.5,15.8,51.1L15.8,51.1z M22.5,53.8
		c0,0.9-0.9,1.4-2.7,1.4c-0.5,0-1,0-1.4-0.1c-0.4-0.1-0.7-0.2-0.9-0.3c-0.2-0.1-0.3-0.3-0.4-0.4c-0.1-0.2-0.2-0.4-0.2-0.7l0.8,0
		c0,0.4,0.1,0.6,0.4,0.8c0.3,0.2,0.9,0.3,1.7,0.3c1.3,0,1.9-0.3,1.9-0.9c0-0.3-0.2-0.6-0.6-0.7c-0.1,0-0.6-0.1-1.5-0.2l-1.7-0.3
		c-0.5-0.2-0.7-0.5-0.7-1c0-0.5,0.2-0.8,0.7-1c0.2-0.1,0.5-0.2,0.8-0.2c0.3-0.1,0.7-0.1,1.1-0.1c1.7,0,2.6,0.5,2.6,1.5h-0.8
		c0-0.7-0.6-1-1.8-1c-0.6,0-1.1,0.1-1.4,0.2c-0.3,0.1-0.5,0.4-0.5,0.6c0,0.3,0.2,0.5,0.6,0.6c0.2,0.1,0.8,0.1,1.7,0.2
		c0.8,0.1,1.3,0.2,1.6,0.3C22.2,53,22.5,53.3,22.5,53.8L22.5,53.8z M25.8,55l-0.3,0l-0.2,0c-0.5,0-0.9-0.1-1.2-0.2
		c-0.2-0.1-0.4-0.4-0.4-0.7v-3.1h-1v-0.5h1l0-1.4h0.8v1.4h1.3v0.5l-1.3,0v3c0,0.2,0.1,0.4,0.2,0.5c0.1,0.1,0.4,0.1,0.7,0.1
		c0,0,0.1,0,0.2,0c0.1,0,0.1,0,0.3-0.1L25.8,55L25.8,55z M31.1,54c-0.2,0.2-0.5,0.3-0.7,0.4c-0.3,0.1-0.6,0.1-0.9,0.1
		c-1.6,0-2.4-0.6-2.4-1.8c0-0.6,0.2-1,0.6-1.3c0.4-0.3,1-0.5,1.7-0.5c0.7,0,1.3,0.2,1.7,0.5c0.4,0.3,0.6,0.7,0.6,1.3
		C31.7,53.3,31.5,53.7,31.1,54 M32.4,50.6h-0.8l0,0.8c-0.3-0.3-0.6-0.5-0.7-0.6c-0.4-0.2-1-0.3-1.7-0.3c-1,0-1.7,0.2-2.3,0.6
		c-0.5,0.4-0.7,0.9-0.7,1.6c0,0.4,0.1,0.7,0.2,0.9c0.1,0.3,0.3,0.5,0.5,0.7c0.5,0.4,1.3,0.6,2.2,0.6c1.1,0,2-0.3,2.4-0.9v0.8
		c0,0.5-0.2,0.9-0.5,1.2c-0.4,0.3-0.9,0.4-1.7,0.4c-0.8,0-1.3-0.1-1.6-0.3c-0.2-0.1-0.4-0.4-0.5-0.7h-0.8c0.1,0.5,0.3,0.9,0.7,1.1
		c0.4,0.3,1.2,0.4,2.2,0.4c2,0,3-0.7,3-2L32.4,50.6L32.4,50.6z M36.5,51.1c-0.2,0-0.4,0-0.6-0.1c-1.3,0-1.9,0.6-1.9,1.9V55h-0.8
		l0-4.4l0.8,0v0.8h0c0.1-0.3,0.3-0.5,0.6-0.7c0.3-0.2,0.8-0.2,1.4-0.2h0.5L36.5,51.1L36.5,51.1z M37.3,52.5c0.1-0.5,0.3-0.9,0.6-1.2
		c0.2-0.2,0.5-0.3,0.7-0.4c0.3-0.1,0.6-0.1,0.9-0.1c0.7,0,1.2,0.2,1.7,0.5c0.4,0.3,0.6,0.7,0.6,1.1L37.3,52.5 M42,51.2
		c-0.3-0.2-0.6-0.4-1-0.5c-0.4-0.1-0.9-0.2-1.4-0.2c-1,0-1.8,0.2-2.3,0.6s-0.8,1-0.8,1.7c0,0.7,0.3,1.3,0.8,1.7
		c0.6,0.5,1.4,0.7,2.4,0.7c0.4,0,0.8,0,1.1-0.1c0.4-0.1,0.7-0.2,0.9-0.4c0.5-0.3,0.7-0.7,0.9-1.1h-0.8c-0.3,0.8-1,1.1-2.1,1.1
		c-0.8,0-1.4-0.2-1.8-0.6c-0.4-0.3-0.6-0.7-0.6-1.2h5.4C42.7,52.2,42.4,51.6,42,51.2L42,51.2z"/>
	<path class="st1" d="M50.7,53.2c0,1.3-1.2,2-3.5,2c-1.4,0-2.4-0.2-3.1-0.7c-0.5-0.4-0.8-0.9-0.8-1.7h0.9c0,1.2,1,1.8,2.9,1.8
		c0.9,0,1.6-0.1,2-0.4c0.4-0.2,0.5-0.6,0.5-1c0-0.5-0.2-0.8-0.7-1c-0.3-0.1-0.9-0.2-2-0.4c-1.3-0.2-2.2-0.4-2.6-0.5
		c-0.6-0.3-0.9-0.7-0.9-1.4c0-0.6,0.2-1.1,0.7-1.3c0.5-0.3,1.4-0.5,2.7-0.5c2.3,0,3.4,0.7,3.4,2.1h-1c0-1-0.9-1.5-2.6-1.5
		c-0.9,0-1.5,0.1-1.9,0.3c-0.4,0.2-0.6,0.5-0.6,1c0,0.4,0.2,0.8,0.7,0.9c0.3,0.1,1,0.3,2.3,0.4c1.2,0.2,2,0.3,2.4,0.6
		C50.5,52.1,50.7,52.6,50.7,53.2L50.7,53.2z M58.4,53.9c-0.4,0.3-0.8,0.5-1.2,0.6c-0.4,0.1-0.9,0.2-1.5,0.2c-1.1,0-2-0.3-2.7-0.8
		c-0.7-0.5-1-1.3-1-2.2c0-0.9,0.3-1.7,1-2.2c0.7-0.5,1.6-0.8,2.7-0.8c1.1,0,2.1,0.3,2.7,0.8c0.3,0.2,0.6,0.6,0.8,0.9
		c0.2,0.4,0.2,0.8,0.2,1.2C59.4,52.6,59.1,53.3,58.4,53.9 M58.9,54.3c0.5-0.3,0.9-0.7,1.1-1.1c0.2-0.4,0.4-1,0.4-1.5
		c0-1-0.4-1.9-1.2-2.5c-0.4-0.3-0.9-0.6-1.5-0.8c-0.6-0.2-1.2-0.3-2-0.3c-1.5,0-2.6,0.3-3.4,1c-0.8,0.6-1.2,1.5-1.2,2.6
		c0,0.5,0.1,1,0.3,1.4c0.2,0.4,0.5,0.8,0.9,1.1c0.8,0.6,2,1,3.4,1c0.5,0,1,0,1.5-0.1c0.4-0.1,0.8-0.2,1.1-0.3l1.4,0.9l0.6-0.5
		L58.9,54.3L58.9,54.3z M67.4,55H61v-6.7l0.9,0v6.2h5.6L67.4,55z"/>
	<path class="st0" d="M45,32.4c0.3-2.1,0.2-2.4,1.8-2.1l0.4,0c1.2,0.1,2.8-0.2,3.7-0.6c2-0.9,3.2-2.5,1.2-2.1
		c-4.5,0.9-4.8-0.6-4.8-0.6c4.8-7,6.7-15.9,5-18.1C47.6,3,39.5,5.8,39.3,5.9l0,0c-0.9-0.2-1.9-0.3-3-0.3c-2,0-3.6,0.5-4.8,1.4
		c0,0-14.5-5.9-13.8,7.4c0.1,2.8,4.1,21.5,8.8,15.9c1.7-2.1,3.4-3.8,3.4-3.8c0.8,0.5,1.8,0.8,2.9,0.7l0.1-0.1c0,0.3,0,0.5,0,0.8
		c-1.2,1.4-0.9,1.6-3.3,2.1c-2.5,0.5-1,1.4-0.1,1.6c1.1,0.3,3.8,0.7,5.6-1.8l-0.1,0.3c0.5,0.4,0.4,2.7,0.5,4.4
		c0.1,1.7,0.2,3.2,0.5,4.2c0.4,0.9,0.7,3.3,3.9,2.6C42.7,40.8,44.8,40,45,32.4"/>
	<path class="st2" d="M45,32.4c0.3-2.1,0.2-2.4,1.8-2.1l0.4,0c1.2,0.1,2.8-0.2,3.7-0.6c2-0.9,3.2-2.5,1.2-2.1
		c-4.5,0.9-4.8-0.6-4.8-0.6c4.8-7,6.7-15.9,5-18.1C47.6,3,39.5,5.8,39.3,5.9l0,0c-0.9-0.2-1.9-0.3-3-0.3c-2,0-3.6,0.5-4.8,1.4
		c0,0-14.5-5.9-13.8,7.4c0.1,2.8,4.1,21.5,8.8,15.9c1.7-2.1,3.4-3.8,3.4-3.8c0.8,0.5,1.8,0.8,2.9,0.7l0.1-0.1c0,0.3,0,0.5,0,0.8
		c-1.2,1.4-0.9,1.6-3.3,2.1c-2.5,0.5-1,1.4-0.1,1.6c1.1,0.3,3.8,0.7,5.6-1.8l-0.1,0.3c0.5,0.4,0.4,2.7,0.5,4.4
		c0.1,1.7,0.2,3.2,0.5,4.2c0.4,0.9,0.7,3.3,3.9,2.6C42.7,40.8,44.8,40,45,32.4"/>
	<path class="st3" d="M52.1,27.6c-4.5,0.9-4.8-0.6-4.8-0.6c4.8-7,6.7-15.9,5-18.1C47.6,3,39.5,5.8,39.3,5.9l0,0
		c-0.9-0.2-1.9-0.3-3-0.3c-2,0-3.6,0.5-4.8,1.4c0,0-14.5-5.9-13.8,7.4c0.1,2.8,4.1,21.5,8.8,15.9c1.7-2.1,3.4-3.8,3.4-3.8
		c0.8,0.5,1.8,0.8,2.9,0.7l0.1-0.1c0,0.3,0,0.5,0,0.8c-1.2,1.4-0.9,1.6-3.3,2.1c-2.5,0.5-1,1.4-0.1,1.6c1.1,0.3,3.8,0.7,5.6-1.8
		l-0.1,0.3c0.5,0.4,0.8,2.5,0.8,4.4c-0.1,1.9-0.1,3.2,0.3,4.2c0.4,1,0.7,3.3,3.9,2.6c2.7-0.6,4.1-2,4.2-4.5c0.1-1.7,0.4-1.5,0.5-3.1
		l0.2-0.7c0.3-2.4,0-3.1,1.7-2.8l0.4,0c1.2,0.1,2.8-0.2,3.7-0.6C52.8,28.8,54,27.2,52.1,27.6L52.1,27.6z"/>
	<path class="st4" d="M35.3,29c-0.1,4.4,0,8.8,0.5,9.9c0.4,1.1,1.4,3.2,4.6,2.5c2.7-0.6,3.6-1.7,4.1-4.1c0.3-1.8,0.9-6.8,1-7.8
		 M31.5,6.9c0,0-14.5-5.9-13.8,7.5c0.1,2.8,4.1,21.5,8.8,15.9c1.7-2.1,3.3-3.7,3.3-3.7 M39.3,5.8c-0.5,0.2,8-3.1,12.9,3.1
		C54,11.1,52,20,47.2,27"/>
	<path class="st5" d="M47.2,27c0,0,0.3,1.5,4.8,0.6c2-0.4,0.8,1.1-1.2,2.1c-1.6,0.8-5.3,1-5.4-0.1C45.3,26.8,47.4,27.7,47.2,27z
		 M47.2,27c-0.1-0.6-1.1-1.2-1.7-2.7C45,23,38.1,13,47.4,14.5c0.3-0.1-2.4-8.8-11.2-9c-8.7-0.1-8.4,10.7-8.4,10.7"/>
	<path class="st6" d="M32.9,27.9c-1.2,1.4-0.9,1.6-3.3,2.1c-2.5,0.5-1,1.4-0.1,1.6c1.1,0.3,3.8,0.7,5.6-1.8c0.5-0.8,0-2-0.7-2.3
		C34,27.4,33.5,27.2,32.9,27.9z"/>
	<path class="st4" d="M32.8,27.9c-0.1-0.8,0.3-1.7,0.7-2.8c0.6-1.7,2.1-3.3,0.9-8.6c-0.9-3.9-6.6-0.8-6.6-0.3c0,0.5,0.3,2.7-0.1,5.2
		c-0.5,3.3,2.1,6.1,5.1,5.8"/>
	<path class="st7" d="M31.5,16.1c0,0.2,0.3,0.7,0.8,0.7c0.5,0.1,0.9-0.3,0.9-0.5c0-0.2-0.3-0.4-0.8-0.4
		C31.9,15.8,31.5,15.9,31.5,16.1z"/>
	<path class="st8" d="M45.7,15.7c0,0.2-0.3,0.7-0.8,0.7c-0.5,0.1-0.9-0.3-0.9-0.5c0-0.2,0.3-0.4,0.8-0.4
		C45.3,15.5,45.7,15.6,45.7,15.7L45.7,15.7z"/>
	<path class="st4" d="M47.4,14.5c0.1,1.4-0.3,2.4-0.4,3.9c-0.1,2.2,1.1,4.7-0.6,7.2"/>
</g>
</svg>
