<svg width="71" height="62" viewBox="0 0 71 62" fill="none" xmlns="http://www.w3.org/2000/svg">
<path d="M7.43189 52.0416H4.34107V49.2318H7.60574C8.80014 49.2318 9.39866 49.7067 9.39866 50.6584C9.39866 51.5805 8.74506 52.0416 7.43786 52.0416M9.66342 49.2054C9.23874 48.8624 8.64553 48.6909 7.88244 48.6909L3.44727 48.7133V55.441H4.34107L4.33311 52.5798H7.63295C8.4604 52.5798 9.11267 52.4083 9.58711 52.0653C10.0615 51.7223 10.3004 51.2474 10.3004 50.6386C10.3004 50.0299 10.0881 49.555 9.66342 49.212V49.2054ZM15.4476 54.0176C15.3589 54.2418 15.2128 54.439 15.0236 54.5895C14.6235 54.9417 14.013 55.1172 13.1922 55.1172C12.4503 55.1172 11.881 54.9457 11.4842 54.6027C11.0874 54.2597 10.8883 53.802 10.8883 53.2275C10.8883 52.9287 10.9401 52.6629 11.0443 52.4314C11.146 52.2031 11.3006 52.0019 11.4955 51.8443C11.9069 51.5066 12.4709 51.3378 13.1922 51.3378C14.7874 51.3378 15.5849 51.9677 15.5849 53.2268C15.5849 53.5263 15.5385 53.7888 15.4489 54.0157M15.6108 51.5357C15.0667 51.0872 14.2598 50.8629 13.1922 50.8629C12.1836 50.8629 11.4032 51.0918 10.8538 51.5489C10.3575 51.9631 10.1093 52.5217 10.1093 53.2242C10.1093 53.9266 10.3655 54.4859 10.879 54.9147C11.1694 55.1496 11.5066 55.3207 11.8684 55.4166C12.2446 55.5202 12.6866 55.5716 13.1935 55.5716C14.2552 55.5716 15.0647 55.35 15.6201 54.9067C16.1165 54.5024 16.3646 53.9411 16.3646 53.2235C16.3646 52.5013 16.1138 51.9373 15.6115 51.533L15.6108 51.5357ZM22.3698 54.2116C22.3698 55.1165 21.4713 55.5683 19.6738 55.5683C19.1243 55.5683 18.6618 55.5366 18.2856 55.474C17.9094 55.4113 17.6041 55.3065 17.3699 55.1613C17.1888 55.0505 17.0381 54.9061 16.9386 54.728C16.826 54.5198 16.7555 54.2917 16.7309 54.0566L17.567 54.05C17.567 54.4061 17.713 54.668 18.0062 54.8368C18.3201 55.0393 18.8768 55.1402 19.6751 55.1402C20.9312 55.1402 21.5596 54.8566 21.5596 54.2828C21.5596 53.951 21.3492 53.7222 20.9279 53.5968C20.8416 53.5724 20.3347 53.5091 19.4037 53.399L17.6639 53.1219C17.1682 52.9439 16.9207 52.624 16.9207 52.1616C16.9207 51.7091 17.1423 51.3721 17.5856 51.1511C17.8045 51.0588 18.0779 50.9889 18.4064 50.9381C18.7348 50.8873 19.115 50.8622 19.5477 50.8622C21.2776 50.8622 22.1355 51.3516 22.1355 52.3311H21.3393C21.3393 51.6432 20.7315 51.2989 19.5145 51.2989C18.8961 51.2989 18.4342 51.3688 18.1303 51.508C17.8264 51.6471 17.6745 51.8615 17.6745 52.1504C17.6745 52.4142 17.8735 52.6147 18.2902 52.7348C18.5305 52.7974 19.0825 52.87 19.9465 52.9511C20.7202 53.0138 21.2504 53.1028 21.539 53.2182C22.0884 53.4108 22.3631 53.738 22.3631 54.1997L22.3698 54.2116ZM25.653 55.437L25.3126 55.4799L25.1003 55.4944C24.5562 55.4944 24.1633 55.4232 23.9225 55.2807C23.6816 55.1383 23.5615 54.8889 23.5615 54.5321V51.4651H22.5695V51.0139H23.5535L23.5615 49.5649H24.3246V51.0139H25.6517V51.4723L24.3246 51.4657V54.4497C24.3246 54.6719 24.3896 54.8256 24.521 54.91C24.6524 54.9945 24.8859 55.0367 25.221 55.0367C25.2688 55.0413 25.3226 55.04 25.3803 55.0321C25.438 55.0242 25.5263 55.0057 25.6444 54.978L25.6524 55.4384L25.653 55.437ZM30.9263 54.42C30.711 54.5774 30.4702 54.697 30.2143 54.7735C29.9475 54.8553 29.641 54.8962 29.2946 54.8962C27.7001 54.8962 26.9031 54.3026 26.9031 53.1153C26.9031 52.5626 27.1069 52.1293 27.5149 51.8173C27.923 51.5053 28.497 51.3556 29.2382 51.3556C29.9847 51.3556 30.552 51.5139 30.9369 51.8279C31.3217 52.1418 31.5168 52.5646 31.5168 53.0942C31.5168 53.6714 31.3197 54.1166 30.9249 54.4286M32.2786 51.0252H31.5188L31.5108 51.7837C31.1751 51.4756 30.9349 51.2811 30.7909 51.1993C30.3642 50.9882 29.8122 50.8827 29.1347 50.8827C28.142 50.8827 27.3849 51.0806 26.862 51.4961C26.3657 51.872 26.1175 52.4149 26.1175 53.1266C26.1175 53.4774 26.1805 53.7914 26.306 54.0678C26.4298 54.3423 26.618 54.5834 26.8547 54.7709C27.3855 55.1653 28.1181 55.3625 29.075 55.3625C30.2229 55.3625 31.0391 55.0789 31.5195 54.5051V55.2966C31.5195 55.7978 31.3443 56.1843 30.9886 56.4587C30.633 56.7331 30.0643 56.8703 29.2634 56.8703C28.5109 56.8703 27.9748 56.7766 27.6549 56.59C27.4147 56.4462 27.2568 56.1969 27.1586 55.8427H26.3743C26.4606 56.3374 26.6928 56.6962 27.071 56.9178C27.509 57.1724 28.2475 57.3003 29.2886 57.3003C31.2793 57.3003 32.2746 56.6329 32.2746 55.2979V51.0106L32.2786 51.0252ZM36.4039 51.4704C36.1922 51.4382 35.9784 51.4215 35.7642 51.4202C34.5114 51.4202 33.885 52.0402 33.885 53.2802V55.4357H33.1312L33.1233 51.0252L33.8864 51.0317V51.8186H33.9262C34.0425 51.5219 34.2568 51.2733 34.534 51.1135C34.8379 50.9585 35.2904 50.8807 35.8943 50.8807H36.4052V51.471L36.4039 51.4704ZM37.1125 52.9439C37.2088 52.4426 37.4244 52.0547 37.7602 51.7797C37.9791 51.6214 38.2267 51.5014 38.5034 51.4216C38.7801 51.3417 39.0926 51.3028 39.4323 51.3028C40.1091 51.3028 40.6625 51.4704 41.0912 51.8054C41.5199 52.1405 41.7348 52.5198 41.7348 52.9445H37.1033M41.8092 51.5838C41.5424 51.3424 41.212 51.1637 40.8165 51.0482C40.421 50.9328 39.9539 50.8741 39.4317 50.8741C38.4363 50.8741 37.6779 51.0812 37.1331 51.4954C36.5883 51.9096 36.3169 52.4729 36.3169 53.1859C36.3169 53.8989 36.5784 54.4642 37.1013 54.883C37.6666 55.3447 38.4649 55.5756 39.4947 55.5756C39.9061 55.5756 40.2857 55.5333 40.636 55.4436C40.9864 55.3539 41.2909 55.2412 41.5517 55.0875C42.0109 54.7907 42.3015 54.4233 42.4243 53.9873H41.6001C41.3175 54.7412 40.6134 55.1185 39.4881 55.1185C38.6931 55.1185 38.0813 54.9338 37.6567 54.5644C37.2884 54.2478 37.1046 53.8389 37.1046 53.3356H42.5457C42.5457 52.5877 42.3028 52.0007 41.8171 51.5759L41.8092 51.5838Z" fill="white"/>
<path d="M50.601 53.6268C50.601 54.9361 49.4305 55.591 47.0882 55.591C45.6847 55.591 44.6609 55.3654 44.0159 54.9143C43.4877 54.5436 43.2236 53.9777 43.2236 53.2179H44.1659C44.1659 54.4401 45.1393 55.0515 47.0875 55.0515C48.0211 55.0515 48.6966 54.9196 49.1133 54.6755C49.465 54.4546 49.6415 54.1083 49.6415 53.6367C49.6415 53.1704 49.4013 52.8432 48.9209 52.6559C48.6555 52.555 47.984 52.4277 46.9276 52.2734C45.5985 52.0907 44.7379 51.9079 44.3417 51.7259C43.7711 51.4568 43.4791 51.0004 43.4791 50.3553C43.4791 49.7617 43.722 49.3 44.2077 49.0137C44.7306 48.6919 45.6277 48.5303 46.8977 48.5303C49.1936 48.5303 50.3402 49.2175 50.3402 50.5928H49.3894C49.3894 49.5625 48.5374 49.048 46.8334 49.048C45.9787 49.048 45.3536 49.1516 44.9582 49.358C44.5839 49.5797 44.3975 49.9042 44.3975 50.3329C44.3975 50.7814 44.6377 51.096 45.1181 51.2787C45.3742 51.3843 46.1267 51.5313 47.3755 51.7193C48.55 51.8776 49.3422 52.0636 49.7536 52.2753C50.3143 52.5352 50.5944 52.9857 50.5944 53.6261L50.601 53.6268ZM58.2584 54.295C57.8972 54.5538 57.4932 54.7478 57.0647 54.8681C56.6214 54.9954 56.1244 55.066 55.5743 55.066C54.4463 55.066 53.5458 54.7936 52.8538 54.2481C52.1617 53.7027 51.8233 52.9685 51.8233 52.0603C51.8233 51.1138 52.1663 50.3764 52.8518 49.8474C53.5372 49.3185 54.4476 49.0546 55.5803 49.0546C56.7282 49.0546 57.632 49.3317 58.2889 49.8837C58.6172 50.1335 58.881 50.4572 59.0586 50.8282C59.2311 51.189 59.3068 51.5999 59.3068 52.0616C59.3068 53.0035 58.9598 53.7482 58.265 54.2956M58.766 54.7415C59.257 54.4288 59.6207 54.0503 59.8556 53.6057C60.0904 53.1611 60.2086 52.6473 60.2086 52.0656C60.2086 51.0221 59.8237 50.1858 59.0553 49.5553C58.6439 49.209 58.1476 48.9517 57.5663 48.7835C56.985 48.6154 56.3188 48.5309 55.573 48.5309C54.1211 48.5309 52.9818 48.8475 52.1544 49.4834C51.3269 50.1192 50.9135 50.9786 50.9135 52.0656C50.9007 52.5609 51.0078 53.0519 51.2257 53.4975C51.4435 53.9431 51.7659 54.3301 52.1657 54.6261C52.9997 55.2751 54.1417 55.5996 55.5876 55.5996C56.0828 55.6048 56.5777 55.5702 57.0673 55.496C57.488 55.4268 57.8463 55.3212 58.1403 55.1781L59.5337 56.0488L60.115 55.5673L58.7667 54.7428L58.766 54.7415ZM67.2621 55.4274H60.821V48.6998L61.7062 48.6853V54.8655H67.2701L67.2621 55.4274Z" fill="#367FAF"/>
<path d="M44.8203 32.7511C45.0738 30.6504 44.9981 30.3424 46.5721 30.6827L46.9715 30.7177C48.1819 30.7724 49.7585 30.5244 50.6954 30.0944C52.698 29.171 53.8851 27.6289 51.911 28.0339C47.4075 28.9573 47.0976 27.4416 47.0976 27.4416C51.8533 20.4277 53.8413 11.5234 52.1253 9.34285C47.4447 3.39811 39.3434 6.20987 39.2073 6.28243L39.1642 6.29034C38.2737 6.10698 37.2784 5.99749 36.1596 5.97902C34.1225 5.94604 32.5751 6.50998 31.402 7.39447C31.402 7.39447 16.9498 1.47545 17.6213 14.8384C17.7647 17.6746 21.7208 36.3485 26.4386 30.7098C28.1638 28.6479 29.8293 26.904 29.8293 26.904C30.6568 27.4515 31.6475 27.7285 32.6866 27.6296L32.7662 27.5616C32.741 27.8175 32.753 28.0682 32.7981 28.3643C31.5825 29.7145 31.9401 29.9513 29.5095 30.4486C27.0511 30.9525 28.4956 31.8489 29.4385 32.083C30.5818 32.3666 33.2274 32.769 35.0137 30.2824L34.9427 30.566C35.4204 30.9452 35.3873 33.2913 35.4549 34.9673C35.5226 36.6433 35.6354 38.2078 35.9858 39.1306C36.3361 40.0533 36.7356 42.4284 39.9293 41.7477C42.5987 41.1792 44.6392 40.3607 44.8263 32.7485" fill="white"/>
<path d="M44.8203 32.7511C45.0738 30.6504 44.9981 30.3424 46.5721 30.6827L46.9715 30.7177C48.1819 30.7724 49.7585 30.5244 50.6954 30.0944C52.698 29.171 53.8851 27.6289 51.911 28.0339C47.4075 28.9573 47.0976 27.4416 47.0976 27.4416C51.8533 20.4277 53.8413 11.5234 52.1253 9.34285C47.4447 3.39811 39.3434 6.20987 39.2073 6.28243L39.1642 6.29034C38.2737 6.10698 37.2784 5.99749 36.1596 5.97902C34.1225 5.94604 32.5751 6.50998 31.402 7.39447C31.402 7.39447 16.9498 1.47545 17.6213 14.8384C17.7647 17.6746 21.7208 36.3485 26.4386 30.7098C28.1638 28.6479 29.8293 26.904 29.8293 26.904C30.6568 27.4515 31.6475 27.7285 32.6866 27.6296L32.7662 27.5616C32.741 27.8175 32.753 28.0682 32.7981 28.3643C31.5825 29.7145 31.9401 29.9513 29.5095 30.4486C27.0511 30.9525 28.4956 31.8489 29.4385 32.083C30.5818 32.3666 33.2274 32.769 35.0137 30.2824L34.9427 30.566C35.4204 30.9452 35.3873 33.2913 35.4549 34.9673C35.5226 36.6433 35.6354 38.2078 35.9858 39.1306C36.3361 40.0533 36.7356 42.4284 39.9293 41.7477C42.5987 41.1792 44.6392 40.3607 44.8263 32.7485" stroke="white" stroke-width="5.046"/>
<path d="M51.9116 28.0341C47.4075 28.9575 47.0976 27.4418 47.0976 27.4418C51.8532 20.4272 53.8413 11.523 52.126 9.3431C47.4453 3.39901 39.3433 6.21012 39.208 6.28267L39.1642 6.29059C38.2737 6.10723 37.2783 5.99774 36.1583 5.97927C34.1212 5.94629 32.5751 6.51023 31.4006 7.39472C31.4006 7.39472 16.9471 1.47635 17.6186 14.8387C17.7613 17.6748 21.7174 36.3487 26.4359 30.7107C28.1611 28.6488 29.82 26.9049 29.82 26.9049C30.6475 27.4524 31.6382 27.7294 32.6773 27.6305L32.7582 27.5625C32.733 27.8184 32.745 28.0691 32.7914 28.3652C31.5758 29.7154 31.9328 29.9522 29.5029 30.4495C27.0437 30.9534 28.4876 31.8498 29.4312 32.0839C30.5745 32.3675 33.2201 32.7699 35.0063 30.2833L34.9353 30.5669C35.4118 30.9461 35.7462 33.0337 35.6898 34.9254C35.6334 36.817 35.5969 38.1164 35.9718 39.1315C36.3467 40.1465 36.7216 42.4293 39.916 41.7487C42.5854 41.1801 43.9683 39.7066 44.1607 37.249C44.2974 35.5012 44.6053 35.7597 44.6252 34.1978L44.8734 33.4591C45.1587 31.0912 44.9185 30.3261 46.5634 30.6823L46.9629 30.7173C48.1732 30.772 49.7564 30.524 50.6874 30.094C52.6893 29.1706 53.8771 27.6285 51.903 28.0335L51.9116 28.0341Z" fill="#417BA2"/>
<path d="M35.2079 29.3921C35.0838 33.7994 35.2391 38.2304 35.6724 39.3161C36.1057 40.4017 37.0353 42.4926 40.231 41.8126C42.8998 41.244 43.8713 40.1438 44.2919 37.714C44.6025 35.9331 45.201 30.9626 45.2773 29.9455M31.3859 7.29703C31.3859 7.29703 16.9224 1.42681 17.5953 14.7832C17.7386 17.6194 21.6947 36.2939 26.4205 30.6552C28.1457 28.5934 29.7051 26.9761 29.7051 26.9761M39.1919 6.22456C38.6909 6.38088 47.2374 3.11928 52.094 9.28762C53.8093 11.4669 51.8286 20.3711 47.0656 27.3863" stroke="white" stroke-width="1.682" stroke-linecap="round" stroke-linejoin="round"/>
<path d="M47.0657 27.3855C47.0657 27.3855 47.3755 28.9025 51.8797 27.9778C53.8531 27.5728 52.6654 29.1149 50.6641 30.0389C49.0211 30.7974 45.3384 30.9907 45.2781 29.944C45.1228 27.2423 47.2156 28.0622 47.0657 27.3855ZM47.0657 27.3855C46.929 26.776 45.9927 26.1778 45.3736 24.6858C44.8328 23.3832 37.9597 13.3939 47.28 14.878C47.6217 14.808 44.8494 6.06604 36.127 5.92424C27.4046 5.78243 27.6999 16.5843 27.6999 16.5843" stroke="white" stroke-width="1.682" stroke-linecap="round" stroke-linejoin="bevel"/>
<path d="M32.7679 28.3103C31.5523 29.6604 31.9099 29.8972 29.4794 30.3945C27.0209 30.8984 28.4654 31.7948 29.4077 32.0289C30.551 32.3125 33.1966 32.7162 34.9828 30.2283C35.527 29.4711 34.9795 28.2628 34.233 27.9541C33.8721 27.8057 33.389 27.619 32.7679 28.3103Z" stroke="white" stroke-width="1.682" stroke-linejoin="round"/>
<path d="M32.6877 28.2866C32.5656 27.4931 32.9505 26.5486 33.3625 25.4438C33.9823 23.7863 35.4129 22.1275 34.2683 16.8694C33.4156 12.9502 27.6965 16.0535 27.6925 16.5858C27.6885 17.118 27.9579 19.2795 27.5969 21.7964C27.1344 25.0811 29.7004 27.8605 32.6545 27.5762" stroke="white" stroke-width="1.682" stroke-linecap="round" stroke-linejoin="round"/>
<path d="M31.3275 16.5045C31.301 16.6859 31.662 17.1706 32.1304 17.2353C32.5989 17.2999 32.9997 16.922 33.0262 16.7406C33.0528 16.5592 32.6918 16.3594 32.2233 16.2941C31.7549 16.2288 31.3528 16.3231 31.3275 16.5045Z" fill="white" stroke="white" stroke-width="0.561"/>
<path d="M45.6024 16.1343C45.6276 16.3157 45.268 16.7939 44.7995 16.8652C44.331 16.9364 43.9303 16.5519 43.9037 16.3705C43.8772 16.1891 44.2388 15.9892 44.7079 15.9239C45.1771 15.8586 45.5772 15.9536 45.6037 16.135L45.6024 16.1343Z" fill="white" stroke="white" stroke-width="0.28"/>
<path d="M47.2799 14.8779C47.3569 16.3013 46.9714 17.2722 46.9229 18.7872C46.8499 20.9902 47.9793 23.5111 46.2793 26.036" stroke="white" stroke-width="1.682" stroke-linecap="round" stroke-linejoin="round"/>
</svg>
