<svg width="181" height="48" viewBox="0 0 181 48" fill="none" xmlns="http://www.w3.org/2000/svg">
<path d="M173.678 6.57256C174.435 7.33233 175.33 7.71221 176.361 7.71221C177.392 7.71221 178.336 7.33233 179.093 6.57256C179.849 5.8128 180.229 4.91435 180.229 3.88022C180.229 2.8461 179.849 1.9386 179.093 1.16377C178.336 0.385912 177.425 0 176.361 0C175.297 0 174.435 0.388927 173.678 1.16377C172.921 1.94162 172.541 2.8461 172.541 3.88022C172.541 4.91435 172.921 5.8128 173.678 6.57256ZM92.0937 16.4977C92.0937 16.5761 92.0304 16.6425 91.949 16.6425H86.6276V26.7365C86.6276 27.5776 86.8386 28.1927 87.2577 28.5816C87.6768 28.9705 88.2888 29.1876 89.0968 29.2358C89.7963 29.2781 90.6405 29.2781 91.6294 29.2358L91.8706 29.2238H91.9429C92.0243 29.2147 92.0937 29.2811 92.0937 29.3625V34.7592C92.0937 34.8316 92.0394 34.8949 91.967 34.9009L91.8706 34.913C87.7009 35.3592 84.7553 34.9461 83.0278 33.6738C81.27 32.3804 80.3927 30.068 80.3927 26.7334V16.6425H76.3286C76.2502 16.6425 76.1838 16.5791 76.1838 16.4977V10.7694C76.1838 10.691 76.2472 10.6246 76.3286 10.6246H80.3927V6.61779C80.3927 6.50322 80.459 6.40071 80.5645 6.35549L86.4286 3.76566C86.5251 3.72345 86.6306 3.79279 86.6306 3.89831V10.6277H91.952C92.0304 10.6277 92.0967 10.691 92.0967 10.7724V16.5008L92.0937 16.4977ZM103.406 14.7973C103.985 13.2446 104.946 12.0809 106.282 11.303C107.506 10.5915 108.86 10.2086 110.34 10.1483H110.44C110.494 10.1453 110.557 10.1422 110.608 10.1422C110.69 10.1422 110.753 10.2056 110.753 10.287V16.8716C110.753 17.0103 110.633 17.1158 110.497 17.1037C108.697 16.9409 107.084 17.3389 105.652 18.2946C104.153 19.2986 103.403 20.9629 103.403 23.2934V34.7472C103.403 34.8255 103.339 34.8919 103.258 34.8919H97.3065C97.2281 34.8919 97.1618 34.8286 97.1618 34.7472V10.7694C97.1618 10.691 97.2251 10.6246 97.3065 10.6246H103.258C103.336 10.6246 103.403 10.688 103.403 10.7694V14.7973H103.406ZM124.878 9.94326C128.264 9.94326 130.89 11.1251 132.762 13.4858V10.7663C132.762 10.688 132.825 10.6216 132.907 10.6216H138.858C138.937 10.6216 139.003 10.6849 139.003 10.7663V34.7411C139.003 34.8195 138.94 34.8858 138.858 34.8858H132.907C132.828 34.8858 132.762 34.8225 132.762 34.7411V32.0216C130.893 34.3823 128.264 35.5642 124.878 35.5642C121.492 35.5642 118.89 34.3281 116.584 31.8528C114.278 29.3775 113.126 26.3445 113.126 22.7537C113.126 19.1629 114.278 16.1299 116.584 13.6546C118.89 11.1794 121.655 9.94326 124.878 9.94326ZM126.039 15.9128C124.103 15.9128 122.508 16.552 121.251 17.8303C119.994 19.1087 119.364 20.7488 119.364 22.7567C119.364 24.7647 119.994 26.4139 121.251 27.7073C122.508 28.9675 124.103 29.6007 126.039 29.6007C127.974 29.6007 129.578 28.9615 130.851 27.6832C132.123 26.4048 132.762 24.7647 132.762 22.7567C132.762 20.7488 132.126 19.1087 130.851 17.8303C129.578 16.552 127.974 15.9128 126.039 15.9128ZM157.753 9.94326C161.009 9.94326 163.789 11.1794 166.095 13.6546C168.402 16.1299 169.553 19.1629 169.553 22.7537C169.553 26.3445 168.402 29.3775 166.095 31.8528C163.789 34.3281 161.009 35.5642 157.753 35.5642C154.497 35.5642 151.756 34.3823 149.917 32.0216V44.4462C149.917 44.5246 149.854 44.5909 149.772 44.5909H143.821C143.743 44.5909 143.676 44.5276 143.676 44.4462V10.7663C143.676 10.688 143.74 10.6216 143.821 10.6216H149.772C149.851 10.6216 149.917 10.6849 149.917 10.7663V13.4858C151.756 11.1251 154.367 9.94326 157.753 9.94326ZM156.592 15.9128C154.657 15.9128 153.062 16.552 151.805 17.8303C150.547 19.1087 149.917 20.7488 149.917 22.7567C149.917 24.7647 150.544 26.4139 151.805 27.7073C153.062 28.9675 154.657 29.6007 156.592 29.6007C158.528 29.6007 160.132 28.9615 161.404 27.6832C162.676 26.4048 163.316 24.7647 163.316 22.7567C163.316 20.7488 162.679 19.1087 161.404 17.8303C160.132 16.552 158.528 15.9128 156.592 15.9128ZM173.413 34.8858C173.334 34.8858 173.268 34.8225 173.268 34.7411V10.7694C173.268 10.691 173.331 10.6246 173.413 10.6246H179.364C179.442 10.6246 179.509 10.688 179.509 10.7694V34.7441C179.509 34.8225 179.445 34.8889 179.364 34.8889H173.413V34.8858ZM62.0528 19.0906C61.1996 18.6866 60.7715 18.162 60.7715 17.5138C60.7715 16.8656 61.0368 16.4133 61.5704 16.0576C62.1011 15.7018 62.7704 15.5239 63.5784 15.5239C65.1251 15.5239 66.2918 16.1299 67.0817 17.3389C67.136 17.4233 67.2446 17.4565 67.335 17.4173L72.5991 15.0807C72.6775 15.0445 72.7076 14.9511 72.6654 14.8757L72.5569 14.6918C72.5297 14.6466 72.5026 14.6044 72.4815 14.5682C71.58 13.1451 70.4133 12.0839 68.948 11.2789C67.335 10.3895 65.5471 9.94326 63.5784 9.94326C60.9675 9.94326 58.7816 10.6307 57.0269 12.0055C55.2692 13.3803 54.3919 15.2646 54.3919 17.6585C54.3919 19.2443 54.82 20.5619 55.6732 21.6141C56.5264 22.6663 57.5666 23.4351 58.7937 23.9205C59.9243 24.3697 61.0549 24.7466 62.1855 25.0571L62.4689 25.1325C63.693 25.4551 64.7331 25.8199 65.5894 26.2239C66.4426 26.6279 66.8707 27.1555 66.8707 27.8007C66.8707 29.1906 65.7582 29.8871 63.5332 29.8871C61.3081 29.8871 59.9484 29.1032 59.1314 27.5324C59.062 27.3967 58.8992 27.3364 58.7605 27.3967L53.5115 29.7303C53.4361 29.7635 53.406 29.8509 53.4392 29.9233L53.4995 30.0469C55.3325 33.7251 58.6791 35.5642 63.5302 35.5642C66.3039 35.5642 68.6163 34.8919 70.4705 33.5502C72.3247 32.2086 73.2503 30.2911 73.2503 27.8007C73.2503 26.1516 72.8222 24.7768 71.969 23.6763C71.1157 22.5758 70.0756 21.792 68.8485 21.3216C67.7179 20.8875 66.5873 20.5257 65.4567 20.2302L65.1733 20.1579C63.9492 19.8503 62.9091 19.4946 62.0528 19.0906Z" fill="#050A11"/>
<path d="M39.7663 7.71216H13.1836V21.2673H26.7388V34.8195H40.2909V8.23977C40.2909 7.95034 40.0557 7.71216 39.7633 7.71216H39.7663Z" fill="#8B74F9"/>
<path d="M26.8471 21.2673H26.2109V21.9035H26.8471V21.2673Z" fill="#8B74F9"/>
<path d="M13.1836 21.2673H26.2111C26.5006 21.2673 26.7388 21.5025 26.7388 21.7949V34.8225H13.7112C13.4218 34.8225 13.1836 34.5873 13.1836 34.2949V21.2673Z" fill="#433884"/>
<path d="M26.7388 34.8194H40.2909L27.188 47.9223C27.0222 48.0882 26.7388 47.9706 26.7388 47.7354V34.8164V34.8194Z" fill="#433884"/>
<path d="M13.1835 21.2673H0.264493C0.0293282 21.2673 -0.0882544 20.9839 0.0775672 20.8181L13.1835 7.71216V21.2673Z" fill="#433884"/>
</svg>
