<svg width="181" height="48" viewBox="0 0 181 48" fill="none" xmlns="http://www.w3.org/2000/svg">
<path d="M173.678 6.57256C174.434 7.33233 175.33 7.71221 176.361 7.71221C177.392 7.71221 178.336 7.33233 179.092 6.57256C179.849 5.8128 180.229 4.91435 180.229 3.88022C180.229 2.8461 179.849 1.9386 179.092 1.16377C178.336 0.385912 177.425 0 176.361 0C175.297 0 174.434 0.388927 173.678 1.16377C172.921 1.94162 172.541 2.8461 172.541 3.88022C172.541 4.91435 172.921 5.8128 173.678 6.57256ZM92.0934 16.4977C92.0934 16.5761 92.0301 16.6425 91.9487 16.6425H86.6273V26.7365C86.6273 27.5776 86.8384 28.1927 87.2575 28.5816C87.6765 28.9705 88.2886 29.1876 89.0966 29.2358C89.796 29.2781 90.6402 29.2781 91.6291 29.2358L91.8703 29.2238H91.9427C92.0241 29.2147 92.0934 29.2811 92.0934 29.3625V34.7592C92.0934 34.8316 92.0392 34.8949 91.9668 34.9009L91.8703 34.913C87.7007 35.3592 84.7551 34.9461 83.0275 33.6738C81.2698 32.3804 80.3925 30.068 80.3925 26.7334V16.6425H76.3283C76.2499 16.6425 76.1836 16.5791 76.1836 16.4977V10.7694C76.1836 10.691 76.2469 10.6246 76.3283 10.6246H80.3925V6.61779C80.3925 6.50322 80.4588 6.40071 80.5643 6.35549L86.4284 3.76566C86.5248 3.72345 86.6304 3.79279 86.6304 3.89831V10.6277H91.9517C92.0301 10.6277 92.0964 10.691 92.0964 10.7724V16.5008L92.0934 16.4977ZM103.405 14.7973C103.984 13.2446 104.946 12.0809 106.282 11.303C107.506 10.5915 108.859 10.2086 110.34 10.1483H110.439C110.494 10.1453 110.557 10.1422 110.608 10.1422C110.69 10.1422 110.753 10.2056 110.753 10.287V16.8716C110.753 17.0103 110.632 17.1158 110.497 17.1037C108.697 16.9409 107.084 17.3389 105.652 18.2946C104.153 19.2986 103.402 20.9629 103.402 23.2934V34.7472C103.402 34.8255 103.339 34.8919 103.258 34.8919H97.3062C97.2279 34.8919 97.1615 34.8286 97.1615 34.7472V10.7694C97.1615 10.691 97.2248 10.6246 97.3062 10.6246H103.258C103.336 10.6246 103.402 10.688 103.402 10.7694V14.7973H103.405ZM124.878 9.94326C128.264 9.94326 130.89 11.1251 132.762 13.4858V10.7663C132.762 10.688 132.825 10.6216 132.907 10.6216H138.858C138.937 10.6216 139.003 10.6849 139.003 10.7663V34.7411C139.003 34.8195 138.94 34.8858 138.858 34.8858H132.907C132.828 34.8858 132.762 34.8225 132.762 34.7411V32.0216C130.893 34.3823 128.264 35.5642 124.878 35.5642C121.492 35.5642 118.89 34.3281 116.584 31.8528C114.277 29.3775 113.126 26.3445 113.126 22.7537C113.126 19.1629 114.277 16.1299 116.584 13.6546C118.89 11.1794 121.655 9.94326 124.878 9.94326ZM126.039 15.9128C124.103 15.9128 122.508 16.552 121.251 17.8303C119.994 19.1087 119.364 20.7488 119.364 22.7567C119.364 24.7647 119.994 26.4139 121.251 27.7073C122.508 28.9675 124.103 29.6007 126.039 29.6007C127.974 29.6007 129.578 28.9615 130.85 27.6832C132.123 26.4048 132.762 24.7647 132.762 22.7567C132.762 20.7488 132.126 19.1087 130.85 17.8303C129.578 16.552 127.974 15.9128 126.039 15.9128ZM157.753 9.94326C161.009 9.94326 163.789 11.1794 166.095 13.6546C168.402 16.1299 169.553 19.1629 169.553 22.7537C169.553 26.3445 168.402 29.3775 166.095 31.8528C163.789 34.3281 161.009 35.5642 157.753 35.5642C154.497 35.5642 151.756 34.3823 149.917 32.0216V44.4462C149.917 44.5246 149.854 44.5909 149.772 44.5909H143.821C143.742 44.5909 143.676 44.5276 143.676 44.4462V10.7663C143.676 10.688 143.739 10.6216 143.821 10.6216H149.772C149.851 10.6216 149.917 10.6849 149.917 10.7663V13.4858C151.756 11.1251 154.367 9.94326 157.753 9.94326ZM156.592 15.9128C154.656 15.9128 153.061 16.552 151.804 17.8303C150.547 19.1087 149.917 20.7488 149.917 22.7567C149.917 24.7647 150.544 26.4139 151.804 27.7073C153.061 28.9675 154.656 29.6007 156.592 29.6007C158.528 29.6007 160.132 28.9615 161.404 27.6832C162.676 26.4048 163.315 24.7647 163.315 22.7567C163.315 20.7488 162.679 19.1087 161.404 17.8303C160.132 16.552 158.528 15.9128 156.592 15.9128ZM173.412 34.8858C173.334 34.8858 173.268 34.8225 173.268 34.7411V10.7694C173.268 10.691 173.331 10.6246 173.412 10.6246H179.364C179.442 10.6246 179.509 10.688 179.509 10.7694V34.7441C179.509 34.8225 179.445 34.8889 179.364 34.8889H173.412V34.8858ZM62.0526 19.0906C61.1994 18.6866 60.7712 18.162 60.7712 17.5138C60.7712 16.8656 61.0366 16.4133 61.5702 16.0576C62.1008 15.7018 62.7701 15.5239 63.5781 15.5239C65.1248 15.5239 66.2916 16.1299 67.0815 17.3389C67.1358 17.4233 67.2443 17.4565 67.3348 17.4173L72.5988 15.0807C72.6772 15.0445 72.7074 14.9511 72.6652 14.8757L72.5566 14.6918C72.5295 14.6466 72.5024 14.6044 72.4813 14.5682C71.5798 13.1451 70.413 12.0839 68.9477 11.2789C67.3348 10.3895 65.5469 9.94326 63.5781 9.94326C60.9672 9.94326 58.7814 10.6307 57.0267 12.0055C55.269 13.3803 54.3916 15.2646 54.3916 17.6585C54.3916 19.2443 54.8197 20.5619 55.673 21.6141C56.5262 22.6663 57.5664 23.4351 58.7934 23.9205C59.924 24.3697 61.0546 24.7466 62.1852 25.0571L62.4686 25.1325C63.6927 25.4551 64.7329 25.8199 65.5891 26.2239C66.4423 26.6279 66.8705 27.1555 66.8705 27.8007C66.8705 29.1906 65.7579 29.8871 63.5329 29.8871C61.3079 29.8871 59.9482 29.1032 59.1311 27.5324C59.0618 27.3967 58.899 27.3364 58.7603 27.3967L53.5113 29.7303C53.4359 29.7635 53.4057 29.8509 53.4389 29.9233L53.4992 30.0469C55.3323 33.7251 58.6789 35.5642 63.5299 35.5642C66.3037 35.5642 68.6161 34.8919 70.4703 33.5502C72.3245 32.2086 73.2501 30.2911 73.2501 27.8007C73.2501 26.1516 72.8219 24.7768 71.9687 23.6763C71.1155 22.5758 70.0753 21.792 68.8483 21.3216C67.7177 20.8875 66.5871 20.5257 65.4565 20.2302L65.173 20.1579C63.949 19.8503 62.9088 19.4946 62.0526 19.0906Z" fill="white"/>
<path d="M39.7662 7.71223H13.1835V21.2674H26.7386V34.8195H40.2908V8.23985C40.2908 7.95041 40.0556 7.71223 39.7632 7.71223H39.7662Z" fill="#8B74F9"/>
<path d="M26.8472 21.2674H26.2111V21.9035H26.8472V21.2674Z" fill="#8B74F9"/>
<path d="M13.1835 21.2674H26.211C26.5004 21.2674 26.7386 21.5025 26.7386 21.795V34.8225H13.7111C13.4217 34.8225 13.1835 34.5874 13.1835 34.2949V21.2674Z" fill="#433884"/>
<path d="M26.7386 34.8195H40.2908L27.1879 47.9224C27.0221 48.0882 26.7386 47.9706 26.7386 47.7355V34.8165V34.8195Z" fill="#433884"/>
<path d="M13.1835 21.2674H0.264493C0.0293282 21.2674 -0.0882544 20.984 0.0775672 20.8182L13.1835 7.71225V21.2674Z" fill="#433884"/>
</svg>
