<svg width="92" height="92" viewBox="0 0 92 92" fill="none" xmlns="http://www.w3.org/2000/svg">
<path opacity="0.6" d="M20.3339 49.2489L24.9938 25.9528C25.1206 25.319 25.4259 24.7346 25.8739 24.2687C26.3218 23.8027 26.8937 23.4746 27.522 23.3229L70.3727 12.0646C70.9372 11.9282 71.5273 11.939 72.0864 12.0962C72.6455 12.2534 73.1548 12.5517 73.5655 12.9623C73.9762 13.373 74.2744 13.8823 74.4316 14.4414C74.5888 15.0005 74.5997 15.5907 74.4632 16.1552L63.2049 59.0058C63.0533 59.6342 62.7251 60.206 62.2592 60.654C61.7932 61.1019 61.2088 61.4073 60.575 61.534L37.279 66.1939M73.5414 12.9865L48.8491 37.6788M28.1054 77.3539C28.7409 77.9893 29.6028 78.3462 30.5014 78.3462C31.4001 78.3462 32.2619 77.9893 32.8975 77.3539L38.2724 71.979C38.9078 71.3434 39.2647 70.4816 39.2647 69.5829C39.2647 68.6843 38.9078 67.8224 38.2724 67.1869L19.3414 48.2559C18.7059 47.6205 17.844 47.2636 16.9454 47.2636C16.0467 47.2636 15.1849 47.6205 14.5494 48.2559L9.17439 53.6309C8.53905 54.2664 8.18213 55.1282 8.18213 56.0269C8.18213 56.9255 8.53905 57.7874 9.17439 58.4229L28.1054 77.3539ZM37.2789 42.4708C37.2789 46.2142 40.3136 49.2488 44.057 49.2488C47.8004 49.2488 50.835 46.2142 50.835 42.4708C50.835 38.7274 47.8004 35.6928 44.057 35.6928C40.3136 35.6928 37.2789 38.7274 37.2789 42.4708Z" stroke="url(#paint0_linear_1228_1342)" stroke-width="2.51528" stroke-linecap="round" stroke-linejoin="round"/>
<defs>
<linearGradient id="paint0_linear_1228_1342" x1="74.5581" y1="45.158" x2="8.18213" y2="45.158" gradientUnits="userSpaceOnUse">
<stop stop-color="#28C8D3"/>
<stop offset="0.5" stop-color="#9747FF"/>
<stop offset="1" stop-color="#7662F9"/>
</linearGradient>
</defs>
</svg>
