<svg width="220" height="40" viewBox="0 0 220 40" fill="none" xmlns="http://www.w3.org/2000/svg">
<mask id="mask0_15_82" style="mask-type:luminance" maskUnits="userSpaceOnUse" x="0" y="0" width="220" height="40">
<path d="M220 0H0V40H220V0Z" fill="white"/>
</mask>
<g mask="url(#mask0_15_82)">
<path d="M19.9999 40C31.0459 40 39.9999 31.046 39.9999 20V6C39.9999 4.409 39.368 2.88299 38.243 1.75699C37.117 0.631989 35.5909 0 33.9999 0H20.9999V8.77399C20.9999 10.776 21.1219 12.85 22.1719 14.554C22.9239 15.775 23.9289 16.82 25.1199 17.619C26.3119 18.417 27.6609 18.95 29.0759 19.181L29.459 19.243C29.617 19.297 29.754 19.399 29.851 19.535C29.948 19.67 29.9999 19.833 29.9999 20C29.9999 20.167 29.948 20.33 29.851 20.465C29.754 20.601 29.617 20.703 29.459 20.757L29.0759 20.819C27.0079 21.157 25.0989 22.136 23.6169 23.617C22.1359 25.099 21.1569 27.008 20.8189 29.076L20.7569 29.459C20.7029 29.617 20.6009 29.754 20.4649 29.851C20.3299 29.948 20.1669 30 19.9999 30C19.8329 30 19.6699 29.948 19.5349 29.851C19.3989 29.754 19.297 29.617 19.243 29.459L19.1809 29.076C18.9499 27.661 18.4169 26.312 17.6189 25.121C16.8199 23.929 15.7749 22.924 14.5539 22.172C12.8499 21.122 10.7759 21 8.77393 21H0.0239258C0.546926 31.581 9.28994 40 19.9999 40Z" fill="white"/>
<path d="M0 19H8.77399C10.776 19 12.85 18.878 14.554 17.828C15.886 17.007 17.007 15.886 17.828 14.554C18.878 12.85 19 10.776 19 8.77399V0H6C4.409 0 2.88299 0.631989 1.75699 1.75699C0.631989 2.88299 0 4.409 0 6V19ZM46.455 2C46.455 2.53 46.244 3.039 45.869 3.414C45.494 3.789 44.985 4 44.455 4C43.925 4 43.416 3.789 43.041 3.414C42.666 3.039 42.455 2.53 42.455 2C42.455 1.47 42.666 0.960999 43.041 0.585999C43.416 0.210999 43.925 0 44.455 0C44.985 0 45.494 0.210999 45.869 0.585999C46.244 0.960999 46.455 1.47 46.455 2ZM211.711 12.104C217.302 12.104 220 16.009 220 20.532V29.027H214.149V21.54C214.149 19.49 213.401 17.798 211.256 17.798C209.111 17.798 208.396 19.49 208.396 21.54V29.026H202.545V21.54C202.545 19.49 201.83 17.798 199.684 17.798C197.539 17.798 196.791 19.49 196.791 21.54V29.026H190.941V20.531C190.941 16.008 193.638 12.103 199.229 12.103C202.285 12.103 204.495 13.307 205.503 15.292C206.575 13.307 208.916 12.102 211.711 12.102V12.104ZM180.427 23.82C182.312 23.82 183.125 22.095 183.125 20.044V12.754H188.975V20.76C188.975 25.544 186.18 29.515 180.427 29.515C174.673 29.515 171.878 25.545 171.878 20.76V12.754H177.729V20.044C177.729 22.094 178.541 23.82 180.427 23.82ZM163.275 29.547C159.602 29.547 157.229 28.278 155.831 25.805L160.057 23.429C160.642 24.47 161.519 24.991 162.982 24.991C164.185 24.991 164.737 24.568 164.737 24.047C164.737 22.062 156.156 24.08 156.156 17.767C156.156 14.707 158.756 12.234 163.177 12.234C167.045 12.234 169.158 14.121 170.101 15.944L165.875 18.352C165.518 17.376 164.412 16.79 163.307 16.79C162.462 16.79 162.007 17.148 162.007 17.636C162.007 19.654 170.588 17.799 170.588 23.917C170.588 27.334 167.24 29.547 163.275 29.547ZM142.833 36.512H136.982V20.858C136.982 15.878 140.72 12.266 145.921 12.266C150.992 12.266 154.86 16.139 154.86 20.858C154.86 26.065 151.414 29.515 146.246 29.515C145.043 29.515 143.841 29.157 142.833 28.603V36.512ZM145.921 24.015C147.774 24.015 149.009 22.583 149.009 20.89C149.009 19.166 147.774 17.766 145.921 17.766C144.068 17.766 142.833 19.166 142.833 20.891C142.833 22.583 144.068 24.015 145.921 24.015ZM131.121 11.03C129.203 11.03 127.611 9.43501 127.611 7.51501C127.611 5.59501 129.203 4 131.121 4C133.039 4 134.632 5.59501 134.632 7.51501C134.632 9.43501 133.039 11.03 131.121 11.03ZM128.196 12.754H134.047V29.027H128.196V12.754ZM116.97 29.515C111.899 29.515 108.031 25.61 108.031 20.858C108.031 16.139 111.899 12.234 116.97 12.234C122.041 12.234 125.909 16.139 125.909 20.858C125.909 25.61 122.041 29.515 116.97 29.515ZM116.97 24.015C118.823 24.015 120.058 22.583 120.058 20.89C120.058 19.166 118.823 17.734 116.97 17.734C115.117 17.734 113.882 19.166 113.882 20.89C113.882 22.583 115.117 24.015 116.97 24.015ZM96.983 37C92.953 37 90.027 35.21 88.532 32.02L93.375 29.417C93.895 30.524 94.87 31.663 96.885 31.663C98.999 31.663 100.396 30.328 100.559 27.985C99.779 28.669 98.543 29.189 96.691 29.189C92.172 29.189 88.531 25.707 88.531 20.825C88.531 16.107 92.4 12.266 97.471 12.266C102.672 12.266 106.41 15.879 106.41 20.858V27.302C106.41 33.16 102.346 37 96.983 37ZM97.373 23.69C99.128 23.69 100.461 22.485 100.461 20.695C100.461 18.938 99.129 17.766 97.373 17.766C95.65 17.766 94.285 18.938 94.285 20.696C94.285 22.486 95.65 23.689 97.373 23.689V23.69ZM78.607 29.515C73.536 29.515 69.667 25.61 69.667 20.858C69.667 16.139 73.536 12.234 78.607 12.234C83.677 12.234 87.546 16.139 87.546 20.858C87.546 25.61 83.678 29.515 78.607 29.515ZM78.607 24.015C80.46 24.015 81.695 22.583 81.695 20.89C81.695 19.166 80.46 17.734 78.607 17.734C76.754 17.734 75.519 19.166 75.519 20.89C75.519 22.583 76.754 24.015 78.607 24.015ZM59.013 7.06V23.494H68.7V29.027H58.2C54.495 29.027 53 27.074 53 23.982V7.06H59.013Z" fill="white"/>
</g>
</svg>
