<svg width="176" height="40" viewBox="0 0 176 40" fill="none" xmlns="http://www.w3.org/2000/svg">
<mask id="mask0_15_141" style="mask-type:luminance" maskUnits="userSpaceOnUse" x="0" y="0" width="176" height="40">
<path d="M176 0H0V40H176V0Z" fill="white"/>
</mask>
<g mask="url(#mask0_15_141)">
<path fill-rule="evenodd" clip-rule="evenodd" d="M15 28C13.6739 28 12.4021 27.473 11.4645 26.536C10.5268 25.598 10 24.326 10 23V0H0V23C0 31.284 6.716 38 15 38H26V28H15ZM45 10C43.8181 10 42.6478 10.233 41.5558 10.685C40.4639 11.137 39.4718 11.8 38.636 12.636C37.8003 13.472 37.1374 14.464 36.6851 15.556C36.2328 16.648 36 17.818 36 19C36 20.182 36.2328 21.352 36.6851 22.444C37.1374 23.536 37.8003 24.528 38.636 25.364C39.4718 26.2 40.4639 26.863 41.5558 27.315C42.6478 27.767 43.8181 28 45 28C47.3869 28 49.6761 27.052 51.364 25.364C53.0518 23.676 54 21.387 54 19C54 16.613 53.0518 14.324 51.364 12.636C49.6761 10.948 47.3869 10 45 10ZM26 19C26 8.507 34.507 0 45 0C55.493 0 64 8.507 64 19C64 29.493 55.493 38 45 38C34.507 38 26 29.493 26 19ZM153 10C150.613 10 148.324 10.948 146.636 12.636C144.948 14.324 144 16.613 144 19C144 21.387 144.948 23.676 146.636 25.364C148.324 27.052 150.613 28 153 28C155.387 28 157.676 27.052 159.364 25.364C161.052 23.676 162 21.387 162 19C162 16.613 161.052 14.324 159.364 12.636C157.676 10.948 155.387 10 153 10ZM134 19C134 8.507 142.507 0 153 0C163.493 0 172 8.507 172 19C172 29.493 163.493 38 153 38C142.507 38 134 29.493 134 19ZM85 0C74.507 0 66 8.507 66 19C66 29.493 74.507 38 85 38H113C114.969 38 116.868 37.7 118.654 37.144L124 40L129.768 29.196C131.233 26.446 132 23.377 132 20.261V19C132 8.507 123.493 0 113 0H85ZM122 19C122 16.613 121.052 14.324 119.364 12.636C117.676 10.948 115.387 10 113 10H85C83.818 10 82.648 10.233 81.556 10.685C80.464 11.137 79.4718 11.8 78.636 12.636C77.8003 13.472 77.1374 14.464 76.6851 15.556C76.2328 16.648 76 17.818 76 19C76 20.182 76.2328 21.352 76.6851 22.444C77.1374 23.536 77.8003 24.528 78.636 25.364C79.4718 26.2 80.464 26.863 81.556 27.315C82.648 27.767 83.818 28 85 28H113C115.375 28 117.654 27.061 119.339 25.389C121.025 23.716 121.982 21.445 122 19.07V19Z" fill="white"/>
<path d="M176 2.5C176 3.163 175.737 3.79901 175.268 4.26801C174.799 4.73701 174.163 5 173.5 5C172.837 5 172.201 4.73701 171.732 4.26801C171.263 3.79901 171 3.163 171 2.5C171 1.837 171.263 1.20099 171.732 0.731995C172.201 0.262995 172.837 0 173.5 0C174.163 0 174.799 0.262995 175.268 0.731995C175.737 1.20099 176 1.837 176 2.5Z" fill="white"/>
</g>
</svg>
