<svg width="76" height="67" viewBox="0 0 76 67" fill="none" xmlns="http://www.w3.org/2000/svg">
<path fill-rule="evenodd" clip-rule="evenodd" d="M0.0419922 7.45201C0.452992 3.40101 3.87497 0.239014 8.03497 0.239014H67.965C72.403 0.239014 76 3.83602 76 8.27402V58.56C76 62.997 72.403 66.595 67.965 66.595H8.03497C3.59797 66.595 0 62.997 0 58.56V8.27402C0 7.99702 0.0139922 7.72301 0.0419922 7.45201ZM1.67401 22.713L28.681 31.847C29.417 31.101 30.418 30.452 31.622 29.946C31.899 29.83 32.185 29.722 32.478 29.623L21.219 18.198H30.033L34.98 29.016C35.634 28.913 36.306 28.848 36.986 28.822C37.213 28.813 37.439 28.809 37.666 28.809V18.198H45.298L40.35 29.016C41.113 29.136 41.853 29.306 42.555 29.526C43.459 29.809 44.283 30.168 45.001 30.589L66.152 18.198H74.326V22.487L43.365 32.958C42.714 32.298 41.743 31.765 40.576 31.428C39.409 31.091 38.097 30.964 36.806 31.063C35.515 31.163 34.304 31.484 33.326 31.987C32.347 32.49 31.645 33.151 31.308 33.888C30.971 34.624 31.015 35.403 31.433 36.125C31.851 36.847 32.626 37.48 33.659 37.944C34.691 38.409 35.936 38.683 37.235 38.733C37.956 38.76 38.677 38.718 39.368 38.61C39.921 38.523 40.455 38.394 40.956 38.224L51.217 48.635H43.955L40.35 40.756C38.589 41.032 36.737 41.031 34.98 40.756L31.376 48.635H24.114L32.478 40.149C31.695 39.884 30.972 39.559 30.33 39.183L14.194 48.635H1.67401V47.058L28.681 37.924C28.059 37.294 27.634 36.6 27.43 35.876C27.188 35.019 27.264 34.145 27.645 33.313L1.67401 29.236V22.713ZM74.326 47.285L37.666 34.886L74.326 40.64V47.285ZM74.326 50.309H1.67401V58.56C1.67401 62.073 4.52197 64.921 8.03497 64.921H67.965C71.478 64.921 74.326 62.073 74.326 58.56V50.309ZM19.503 10.247V4.12102H16.097V9.94101C16.097 10.984 15.131 11.683 13.504 11.683C11.801 11.683 10.873 11.009 10.873 9.92902V4.12102H7.42902V9.92902C7.42902 12.954 9.90801 14.237 13.364 14.237C17.063 14.237 19.503 12.941 19.503 10.247ZM30.974 14.097V11.441H24.899V4.12102H21.455V14.097H30.974ZM41.21 4.12102V6.62401H36.99V14.097H33.508V6.62401H29.301V4.12102H41.21ZM54.1 7.15802C54.1 6.25602 53.884 5.60801 53.427 5.13701C52.83 4.50201 51.8 4.12102 50.224 4.12102H42.281V14.097H45.674V10.577H48.763L51.241 14.097H55.028L52.016 10.03C52.69 9.92901 53.236 9.52202 53.592 9.03902C53.91 8.59402 54.1 7.93402 54.1 7.15802ZM65.002 12.255H59.613L58.686 14.097H55.089L60.414 4.12102H64.519L69.552 14.097H65.879L65.002 12.255Z" fill="white"/>
</svg>
