<svg width="167" height="41" viewBox="0 0 167 41" fill="none" xmlns="http://www.w3.org/2000/svg">
<mask id="mask0_15_41" style="mask-type:luminance" maskUnits="userSpaceOnUse" x="0" y="0" width="167" height="41">
<path d="M167 0H0V41H167V0Z" fill="white"/>
</mask>
<g mask="url(#mask0_15_41)">
<path d="M48.6311 28.7938H60.5831V25.1938H52.8791V11.6338H48.6311V28.7938Z" fill="white"/>
<path d="M67.6641 26.3937C65.9601 26.3937 65.0721 24.9057 65.0721 22.6737C65.0721 20.4417 65.9601 18.9297 67.6641 18.9297C69.3681 18.9297 70.2801 20.4417 70.2801 22.6737C70.2801 24.9057 69.3681 26.3937 67.6641 26.3937ZM67.688 29.1777C71.648 29.1777 74.2401 26.3697 74.2401 22.6737C74.2401 18.9777 71.648 16.1697 67.688 16.1697C63.752 16.1697 61.1121 18.9777 61.1121 22.6737C61.1121 26.3697 63.752 29.1777 67.688 29.1777Z" fill="white"/>
<path d="M81.0941 33.0418C82.9181 33.0418 84.5261 32.6338 85.6061 31.6738C86.5901 30.7858 87.2381 29.4418 87.2381 27.5938V16.5058H83.4941V17.8258H83.4461C82.7261 16.7938 81.6221 16.1458 79.9901 16.1458C76.9421 16.1458 74.8301 18.6898 74.8301 22.2898C74.8301 26.0578 77.3981 28.1218 80.1581 28.1218C81.6461 28.1218 82.5821 27.5218 83.3021 26.7058H83.3981V27.9298C83.3981 29.4178 82.7021 30.2818 81.0461 30.2818C79.7501 30.2818 79.1021 29.7298 78.8861 29.0818H75.0941C75.4781 31.6498 77.7101 33.0418 81.0941 33.0418ZM81.0701 25.2178C79.6061 25.2178 78.6461 24.0178 78.6461 22.1698C78.6461 20.2978 79.6061 19.0978 81.0701 19.0978C82.7021 19.0978 83.5661 20.4898 83.5661 22.1458C83.5661 23.8738 82.7741 25.2178 81.0701 25.2178Z" fill="white"/>
<path d="M94.937 26.3937C93.233 26.3937 92.345 24.9057 92.345 22.6737C92.345 20.4417 93.233 18.9297 94.937 18.9297C96.641 18.9297 97.553 20.4417 97.553 22.6737C97.553 24.9057 96.641 26.3937 94.937 26.3937ZM94.961 29.1777C98.921 29.1777 101.513 26.3697 101.513 22.6737C101.513 18.9777 98.921 16.1697 94.961 16.1697C91.025 16.1697 88.385 18.9777 88.385 22.6737C88.385 26.3697 91.025 29.1777 94.961 29.1777Z" fill="white"/>
<path d="M102.655 28.7938H106.567V16.5058H102.655V28.7938ZM102.655 14.8018H106.567V11.6338H102.655V14.8018Z" fill="white"/>
<path d="M108.264 32.8498H112.176V27.5218H112.224C112.992 28.5538 114.12 29.1778 115.704 29.1778C118.92 29.1778 121.056 26.6338 121.056 22.6498C121.056 18.9538 119.064 16.1458 115.8 16.1458C114.12 16.1458 112.92 16.8898 112.08 17.9938H112.008V16.5058H108.264V32.8498ZM114.696 26.1538C113.016 26.1538 112.056 24.7858 112.056 22.7938C112.056 20.8018 112.92 19.2898 114.624 19.2898C116.304 19.2898 117.096 20.6818 117.096 22.7938C117.096 24.8818 116.184 26.1538 114.696 26.1538Z" fill="white"/>
<path d="M127.426 29.1778C130.642 29.1778 133.018 27.7858 133.018 25.0978C133.018 21.9538 130.474 21.4018 128.314 21.0418C126.754 20.7538 125.362 20.6338 125.362 19.7698C125.362 19.0018 126.106 18.6418 127.066 18.6418C128.146 18.6418 128.89 18.9778 129.034 20.0818H132.634C132.442 17.6578 130.57 16.1458 127.09 16.1458C124.186 16.1458 121.786 17.4898 121.786 20.0818C121.786 22.9618 124.066 23.5378 126.202 23.8978C127.834 24.1858 129.322 24.3058 129.322 25.4098C129.322 26.2018 128.578 26.6338 127.402 26.6338C126.106 26.6338 125.29 26.0338 125.146 24.8098H121.45C121.57 27.5218 123.826 29.1778 127.426 29.1778Z" fill="white"/>
<path d="M138.331 29.1536C140.035 29.1536 141.115 28.4816 142.003 27.2816H142.075V28.7936H145.819V16.5056H141.907V23.3696C141.907 24.8336 141.091 25.8416 139.747 25.8416C138.499 25.8416 137.899 25.0976 137.899 23.7536V16.5056H134.011V24.5696C134.011 27.3056 135.499 29.1536 138.331 29.1536Z" fill="white"/>
<path d="M147.521 28.7938H151.433V21.9058C151.433 20.4418 152.153 19.4098 153.377 19.4098C154.553 19.4098 155.105 20.1778 155.105 21.4978V28.7938H159.017V21.9058C159.017 20.4418 159.713 19.4098 160.961 19.4098C162.137 19.4098 162.689 20.1778 162.689 21.4978V28.7938H166.601V20.8018C166.601 18.0418 165.209 16.1458 162.425 16.1458C160.841 16.1458 159.521 16.8178 158.561 18.3058H158.513C157.889 16.9858 156.665 16.1458 155.057 16.1458C153.281 16.1458 152.105 16.9858 151.337 18.2578H151.265V16.5058H147.521V28.7938Z" fill="white"/>
<path fill-rule="evenodd" clip-rule="evenodd" d="M8.65405 3.8916C7.22405 4.892 5.93007 6.0747 4.80707 7.4061C9.39607 6.9801 15.2271 7.6758 21.9961 11.0604C29.2241 14.6746 35.0451 14.7968 39.0961 14.0154C38.7291 12.9025 38.266 11.8329 37.718 10.8161C33.08 11.3052 27.1351 10.6578 20.2071 7.1937C15.8071 4.9939 11.9291 4.0877 8.65405 3.8916ZM35.0091 6.9604C31.3471 2.8687 26.0251 0.293701 20.1011 0.293701C18.3621 0.293701 16.6741 0.515801 15.0651 0.933201C17.2441 1.5278 19.5591 2.3977 21.9961 3.616C27.0681 6.1523 31.4481 6.9689 35.0091 6.9604ZM39.9621 17.9218C35.0681 18.8882 28.3101 18.6897 20.2071 14.6381C12.6311 10.8503 6.60206 10.898 2.53506 11.8017C2.32506 11.8483 2.12007 11.8973 1.92007 11.9483C1.38807 13.1062 0.963051 14.3238 0.658051 15.5882C0.984051 15.5012 1.32006 15.4185 1.66806 15.3413C6.60106 14.245 13.5711 14.2926 21.9961 18.5048C29.5711 22.2926 35.6011 22.2449 39.6681 21.3412C39.8071 21.3103 39.9441 21.2783 40.0791 21.2453C40.0941 20.93 40.1011 20.6127 40.1011 20.2937C40.1011 19.4912 40.0541 18.6997 39.9621 17.9218ZM39.4261 25.466C34.5801 26.3133 28.0181 25.9881 20.2071 22.0825C12.6311 18.2947 6.60206 18.3424 2.53506 19.2461C1.63306 19.4466 0.821065 19.6909 0.104065 19.9488C0.102065 20.0635 0.101074 20.1785 0.101074 20.2937C0.101074 31.3394 9.05607 40.2937 20.1011 40.2937C29.3591 40.2937 37.1471 34.0046 39.4261 25.466Z" fill="white"/>
</g>
</svg>
