<svg width="169" height="40" viewBox="0 0 169 40" fill="none" xmlns="http://www.w3.org/2000/svg">
<mask id="mask0_15_97" style="mask-type:luminance" maskUnits="userSpaceOnUse" x="0" y="0" width="169" height="40">
<path d="M169 0H0V40H169V0Z" fill="white"/>
</mask>
<g mask="url(#mask0_15_97)">
<path fill-rule="evenodd" clip-rule="evenodd" d="M10.01 2.5V40H0V2.5H10.01Z" fill="white"/>
<path fill-rule="evenodd" clip-rule="evenodd" d="M15.02 2.5H36.3C43.22 2.5 48.8199 8.096 48.8199 15C48.8199 21.904 43.22 27.5 36.3 27.5H25.04V40H15.02V2.5ZM25.04 17.5H36.3C37.69 17.5 38.8101 16.381 38.8101 15C38.8101 13.619 37.69 12.5 36.3 12.5H25.04V17.5Z" fill="white"/>
<path fill-rule="evenodd" clip-rule="evenodd" d="M86.38 2.5V21.875C86.38 26.362 90.02 30 94.51 30C99.01 30 102.65 26.362 102.65 21.875V2.5H112.67V21.875C112.67 31.885 104.54 40 94.51 40C84.49 40 76.36 31.885 76.36 21.875V2.5H86.38Z" fill="white"/>
<path fill-rule="evenodd" clip-rule="evenodd" d="M52.58 20C52.58 10.335 60.42 2.5 70.1 2.5H72.61V12.5H70.1C65.96 12.5 62.59 15.858 62.59 20V21.25C62.59 31.605 54.1901 40 43.8101 40H42.5601V30H43.8101C48.6501 30 52.58 26.083 52.58 21.25V20Z" fill="white"/>
<path d="M169 3.75C169 5.821 167.32 7.5 165.24 7.5C163.17 7.5 161.49 5.821 161.49 3.75C161.49 1.679 163.17 0 165.24 0C167.32 0 169 1.679 169 3.75Z" fill="white"/>
<path d="M123.42 40L128.2 20.018L131.75 32.039C133.87 39.209 144.04 39.209 146.16 32.039L149.71 20.018L154.49 40H164.79L157.27 8.57901C155.49 1.10701 144.94 0.831005 142.76 8.199L138.96 21.083L135.15 8.199C132.97 0.831005 122.43 1.10701 120.64 8.57901L113.12 40H123.42Z" fill="white"/>
</g>
</svg>
