<svg width="100" height="40" viewBox="0 0 100 40" fill="none" xmlns="http://www.w3.org/2000/svg">
<mask id="mask0_15_87" style="mask-type:luminance" maskUnits="userSpaceOnUse" x="0" y="0" width="100" height="40">
<path d="M100 0H0V40H100V0Z" fill="white"/>
</mask>
<g mask="url(#mask0_15_87)">
<path d="M4.77003 4.23499C5.03003 3.00099 6.26001 2 7.51301 2H14.325L8.65998 28.823H1.84803C0.59403 28.823 -0.211982 27.823 0.0490185 26.588L4.77003 4.23499ZM27.48 4.23499C27.74 3.00099 28.97 2 30.22 2H37.03L31.37 28.823H24.555C23.301 28.823 22.495 27.823 22.756 26.588L27.48 4.23499ZM72.89 4.23499C73.15 3.00099 74.38 2 75.64 2H82.45L76.78 28.823H69.97C68.72 28.823 67.9101 27.823 68.1701 26.588L72.89 4.23499ZM39.3 2H46.12C47.37 2 48.18 2.99999 47.91 4.23499L43.19 26.588C42.93 27.823 41.7 28.823 40.45 28.823H33.64L39.3 2ZM84.72 2H91.53C92.78 2 93.59 2.99999 93.33 4.23499L88.61 26.588C88.35 27.823 87.12 28.823 85.87 28.823H79.0501L84.72 2ZM50.19 4.23499C50.45 3.00099 51.6701 2 52.9301 2H59.74L54.07 28.823H47.26C46.01 28.823 45.2 27.823 45.46 26.588L50.18 4.23499H50.19ZM62.01 2H68.82C70.08 2 70.88 2.99999 70.62 4.23499L63.54 37.765C63.28 38.999 62.0501 40 60.8001 40H53.98L62.01 2ZM12.819 19.882H21.902L20.486 26.588C20.225 27.823 18.996 28.823 17.743 28.823H10.93L12.818 19.883L12.819 19.882ZM44.52 31.059H53.6L51.71 40H44.9C43.65 40 42.84 39 43.1 37.765L44.52 31.059ZM69.1701 33.138L68.02 38.584C67.97 38.818 67.9 38.882 67.66 38.882H67.14C66.9 38.882 66.85 38.818 66.9 38.584L68.0501 33.138C68.1001 32.905 68.17 32.84 68.41 32.84H68.9301C69.1701 32.84 69.2201 32.905 69.1701 33.138ZM70.6899 36.812H70.58C70.47 36.812 70.43 36.844 70.4 36.957L70.0601 38.584C70.0101 38.818 69.9299 38.882 69.6899 38.882H69.1701C68.9301 38.882 68.8801 38.818 68.9301 38.584L70.08 33.138C70.13 32.905 70.21 32.84 70.45 32.84H71.53C72.77 32.84 73.24 33.283 73.01 34.37L72.82 35.281C72.59 36.369 71.9299 36.812 70.6899 36.812ZM71 34.113L70.7 35.539C70.68 35.652 70.7 35.684 70.82 35.684H70.99C71.39 35.684 71.6099 35.523 71.6899 35.112L71.8101 34.54C71.9001 34.13 71.75 33.968 71.35 33.968H71.1801C71.0701 33.968 71.03 34 71 34.113ZM74.74 34.991L75.59 35.926C76.04 36.409 76.1 36.699 75.98 37.239L75.95 37.384C75.74 38.399 75.23 38.963 74.04 38.963C72.85 38.963 72.56 38.488 72.84 37.19L72.87 37.03C72.92 36.796 73 36.731 73.24 36.731H73.79C74.03 36.731 74.08 36.796 74.03 37.029L73.96 37.384C73.89 37.706 73.99 37.835 74.28 37.835C74.57 37.835 74.72 37.715 74.78 37.425L74.82 37.271C74.86 37.045 74.84 36.933 74.59 36.667L73.79 35.805C73.34 35.33 73.29 35.055 73.4 34.515L73.4399 34.339C73.6499 33.324 74.16 32.759 75.35 32.759C76.54 32.759 76.8301 33.235 76.5601 34.532L76.52 34.693C76.47 34.927 76.39 34.991 76.16 34.991H75.6C75.36 34.991 75.31 34.927 75.36 34.693L75.4301 34.339C75.5001 34.016 75.4 33.888 75.11 33.888C74.83 33.888 74.67 34.008 74.61 34.298L74.58 34.435C74.53 34.669 74.56 34.782 74.74 34.991ZM79.53 33.138C79.58 32.905 79.66 32.84 79.9 32.84H80.4201C80.6601 32.84 80.71 32.905 80.66 33.138L79.8101 37.191C79.5301 38.488 79.04 38.963 77.85 38.963C76.67 38.963 76.37 38.488 76.65 37.19L77.5 33.138C77.55 32.905 77.63 32.84 77.87 32.84H78.39C78.63 32.84 78.68 32.905 78.63 33.138L77.74 37.384C77.67 37.706 77.78 37.835 78.09 37.835C78.39 37.835 78.57 37.706 78.64 37.384L79.53 33.138ZM82.9399 36.417C82.9399 36.482 82.96 36.497 83 36.497C83.04 36.497 83.07 36.482 83.1 36.417L84.52 33.05C84.59 32.88 84.67 32.84 84.87 32.84H85.6701C85.9001 32.84 85.96 32.905 85.91 33.138L84.76 38.584C84.71 38.818 84.63 38.882 84.39 38.882H84.01C83.78 38.882 83.72 38.818 83.77 38.584L84.33 35.974C84.34 35.902 84.33 35.885 84.28 35.885C84.25 35.885 84.2099 35.902 84.1899 35.958L83.0501 38.617C82.9601 38.81 82.86 38.882 82.62 38.882H82.4C82.15 38.882 82.08 38.81 82.08 38.617L82.0501 35.957C82.0501 35.901 82.03 35.885 81.99 35.885C81.94 35.885 81.92 35.902 81.91 35.974L81.36 38.584C81.31 38.818 81.23 38.882 80.99 38.882H80.62C80.38 38.882 80.33 38.818 80.38 38.584L81.53 33.138C81.58 32.905 81.66 32.84 81.89 32.84H82.57C82.86 32.84 82.95 32.905 82.95 33.187L82.9399 36.417ZM100 2C100 3.105 99.11 4 98.01 4C97.75 3.999 97.49 3.94701 97.25 3.84601C97.01 3.74501 96.79 3.59699 96.61 3.41199C96.42 3.22599 96.2701 3.006 96.1801 2.763C96.0801 2.521 96.03 2.262 96.03 2C96.03 0.895 96.92 0 98.01 0C99.11 0 100 0.895 100 2Z" fill="white"/>
</g>
</svg>
