<svg width="202" height="40" viewBox="0 0 202 40" fill="none" xmlns="http://www.w3.org/2000/svg">
<mask id="mask0_15_65" style="mask-type:luminance" maskUnits="userSpaceOnUse" x="0" y="0" width="202" height="40">
<path d="M202 0H0V40H202V0Z" fill="white"/>
</mask>
<g mask="url(#mask0_15_65)">
<path fill-rule="evenodd" clip-rule="evenodd" d="M25.5601 11.685C23.9101 10.587 21.98 10 20 10V0C23.96 0 27.82 1.173 31.11 3.371C34.4 5.568 36.96 8.69199 38.48 12.346C39.99 16.001 40.39 20.022 39.62 23.902C38.84 27.781 36.94 31.345 34.14 34.142C31.35 36.939 27.78 38.844 23.9 39.616C20.02 40.387 16 39.991 12.35 38.478C8.68998 36.964 5.57 34.4 3.37 31.111C1.17 27.822 0 23.956 0 20H10C10 21.978 10.5899 23.911 11.6899 25.556C12.7799 27.2 14.35 28.482 16.17 29.239C18 29.996 20.01 30.194 21.95 29.808C23.89 29.422 25.6699 28.47 27.0699 27.071C28.4699 25.673 29.4201 23.891 29.8101 21.951C30.1901 20.011 30 18 29.24 16.173C28.48 14.346 27.2001 12.784 25.5601 11.685Z" fill="white"/>
<path fill-rule="evenodd" clip-rule="evenodd" d="M10 0C10 1.313 9.73999 2.614 9.23999 3.827C8.73999 5.04 7.99995 6.142 7.06995 7.071C6.13995 8 5.03996 8.736 3.82996 9.239C2.60996 9.741 1.31 10 0 10V20C2.63 20 5.23002 19.483 7.65002 18.478C10.08 17.473 12.28 15.999 14.14 14.142C16 12.285 17.47 10.08 18.48 7.65401C19.48 5.22701 20 2.626 20 0H10Z" fill="white"/>
<path d="M125.62 14.453H120.77V29.865H125.62V14.453Z" fill="white"/>
<path d="M121.31 11.567C121.81 12.074 122.45 12.328 123.21 12.328C123.97 12.328 124.59 12.074 125.08 11.567C125.57 11.038 125.81 10.404 125.81 9.664C125.81 8.903 125.57 8.268 125.08 7.761C124.59 7.254 123.97 7 123.21 7C122.45 7 121.81 7.254 121.31 7.761C120.82 8.268 120.58 8.903 120.58 9.664C120.58 10.404 120.82 11.038 121.31 11.567Z" fill="white"/>
<path d="M51.16 29.865V7.47595H56.14V25.489H66.0601V29.865H51.16Z" fill="white"/>
<path fill-rule="evenodd" clip-rule="evenodd" d="M75.03 30.214C73.44 30.214 72 29.865 70.71 29.167C69.45 28.448 68.44 27.476 67.7 26.249C66.96 25.023 66.59 23.649 66.59 22.127C66.59 20.605 66.96 19.241 67.7 18.036C68.44 16.831 69.45 15.879 70.71 15.182C71.98 14.463 73.42 14.104 75.03 14.104C76.63 14.104 78.07 14.452 79.34 15.15C80.61 15.848 81.61 16.81 82.35 18.036C83.09 19.241 83.46 20.605 83.46 22.127C83.46 23.649 83.09 25.023 82.35 26.249C81.61 27.476 80.61 28.448 79.34 29.167C78.07 29.865 76.63 30.214 75.03 30.214ZM75.03 25.806C75.73 25.806 76.34 25.658 76.87 25.362C77.4 25.044 77.7999 24.611 78.0699 24.061C78.3699 23.491 78.52 22.846 78.52 22.127C78.52 21.408 78.3699 20.784 78.0699 20.256C77.7799 19.706 77.36 19.283 76.84 18.987C76.33 18.67 75.73 18.512 75.03 18.512C74.35 18.512 73.75 18.67 73.22 18.987C72.69 19.283 72.28 19.706 71.98 20.256C71.69 20.806 71.54 21.44 71.54 22.159C71.54 22.856 71.69 23.491 71.98 24.061C72.28 24.611 72.69 25.044 73.22 25.362C73.75 25.658 74.35 25.806 75.03 25.806Z" fill="white"/>
<path fill-rule="evenodd" clip-rule="evenodd" d="M87.3101 35.89C88.6001 36.482 90.09 36.778 91.78 36.778C93.43 36.778 94.8999 36.45 96.1899 35.795C97.4699 35.14 98.49 34.231 99.23 33.068C99.97 31.905 100.34 30.531 100.34 28.945V14.453H95.58V15.488C95.23 15.19 94.83 14.94 94.38 14.738C93.55 14.336 92.6101 14.135 91.5601 14.135C90.1401 14.135 88.88 14.474 87.78 15.15C86.68 15.806 85.8201 16.715 85.1801 17.877C84.5501 19.019 84.23 20.309 84.23 21.746C84.23 23.163 84.5501 24.453 85.1801 25.615C85.8201 26.778 86.68 27.698 87.78 28.374C88.88 29.051 90.1401 29.389 91.5601 29.389C92.5901 29.389 93.53 29.188 94.38 28.787C94.79 28.592 95.16 28.363 95.49 28.099V29.072C95.49 30.15 95.1399 30.985 94.4399 31.577C93.7599 32.169 92.82 32.465 91.62 32.465C90.65 32.465 89.81 32.296 89.11 31.958C88.44 31.62 87.82 31.123 87.27 30.467L84.29 33.448C85.03 34.505 86.0401 35.319 87.3101 35.89ZM94.22 24.632C93.73 24.928 93.15 25.076 92.47 25.076C91.8 25.076 91.21 24.928 90.7 24.632C90.21 24.336 89.8301 23.935 89.5601 23.427C89.2801 22.899 89.15 22.338 89.15 21.746C89.15 21.112 89.2801 20.541 89.5601 20.034C89.8301 19.527 90.22 19.125 90.73 18.829C91.24 18.533 91.82 18.385 92.47 18.385C93.15 18.385 93.73 18.533 94.22 18.829C94.73 19.125 95.11 19.527 95.36 20.034C95.64 20.541 95.77 21.112 95.77 21.746C95.77 22.381 95.64 22.951 95.36 23.459C95.11 23.945 94.73 24.336 94.22 24.632Z" fill="white"/>
<path fill-rule="evenodd" clip-rule="evenodd" d="M110.55 30.214C108.96 30.214 107.53 29.865 106.24 29.167C104.97 28.448 103.96 27.476 103.22 26.249C102.48 25.023 102.11 23.649 102.11 22.127C102.11 20.605 102.48 19.241 103.22 18.036C103.96 16.831 104.97 15.879 106.24 15.182C107.51 14.463 108.94 14.104 110.55 14.104C112.16 14.104 113.59 14.452 114.86 15.15C116.13 15.848 117.14 16.81 117.88 18.036C118.62 19.241 118.99 20.605 118.99 22.127C118.99 23.649 118.62 25.023 117.88 26.249C117.14 27.476 116.13 28.448 114.86 29.167C113.59 29.865 112.16 30.214 110.55 30.214ZM110.55 25.806C111.25 25.806 111.86 25.658 112.39 25.362C112.92 25.044 113.32 24.611 113.59 24.061C113.89 23.491 114.04 22.846 114.04 22.127C114.04 21.408 113.89 20.784 113.59 20.256C113.3 19.706 112.89 19.283 112.36 18.987C111.85 18.67 111.25 18.512 110.55 18.512C109.87 18.512 109.27 18.67 108.74 18.987C108.21 19.283 107.8 19.706 107.51 20.256C107.21 20.806 107.06 21.44 107.06 22.159C107.06 22.856 107.21 23.491 107.51 24.061C107.8 24.611 108.21 25.044 108.74 25.362C109.27 25.658 109.87 25.806 110.55 25.806Z" fill="white"/>
<path fill-rule="evenodd" clip-rule="evenodd" d="M137.28 30.182C136.25 30.182 135.29 29.981 134.43 29.579C133.97 29.368 133.56 29.116 133.19 28.822V36.366H128.4V14.453H133.25V15.516C133.61 15.228 134 14.979 134.43 14.77C135.29 14.347 136.25 14.135 137.28 14.135C138.74 14.135 140.03 14.484 141.15 15.182C142.29 15.88 143.18 16.831 143.81 18.036C144.47 19.241 144.8 20.615 144.8 22.159C144.8 23.702 144.47 25.076 143.81 26.281C143.18 27.486 142.29 28.438 141.15 29.135C140.03 29.833 138.74 30.182 137.28 30.182ZM136.39 25.806C137.09 25.806 137.69 25.647 138.2 25.33C138.73 25.013 139.14 24.579 139.44 24.03C139.73 23.48 139.88 22.856 139.88 22.159C139.88 21.44 139.73 20.806 139.44 20.256C139.14 19.706 138.73 19.283 138.2 18.987C137.69 18.67 137.1 18.512 136.42 18.512C135.75 18.512 135.15 18.67 134.62 18.987C134.11 19.283 133.71 19.706 133.41 20.256C133.12 20.806 132.97 21.44 132.97 22.159C132.97 22.856 133.11 23.48 133.38 24.03C133.68 24.579 134.09 25.013 134.62 25.33C135.15 25.647 135.74 25.806 136.39 25.806Z" fill="white"/>
<path d="M149.55 29.8961C150.43 30.1291 151.33 30.2451 152.24 30.2451C154.16 30.2451 155.69 29.8011 156.81 28.9131C157.95 28.0251 158.52 26.8311 158.52 25.3301C158.52 24.3571 158.34 23.5751 157.98 22.9831C157.62 22.3701 157.16 21.8841 156.59 21.5241C156.01 21.1651 155.41 20.8791 154.78 20.6681C154.14 20.4571 153.54 20.2771 152.97 20.1291C152.4 19.9811 151.93 19.8121 151.57 19.6221C151.22 19.4311 151.04 19.1781 151.04 18.8601C151.04 18.5641 151.17 18.3421 151.45 18.1941C151.72 18.0251 152.13 17.9411 152.68 17.9411C153.26 17.9411 153.84 18.0571 154.43 18.2901C155.04 18.5221 155.59 18.9241 156.08 19.4951L158.84 16.7041C158.14 15.8161 157.23 15.1501 156.11 14.7061C155.01 14.2411 153.81 14.0081 152.49 14.0081C151.25 14.0081 150.16 14.2201 149.23 14.6431C148.3 15.0661 147.58 15.6471 147.07 16.3871C146.56 17.1061 146.31 17.9621 146.31 18.9561C146.31 19.8861 146.49 20.6581 146.85 21.2711C147.21 21.8631 147.67 22.3281 148.24 22.6661C148.82 23.0041 149.42 23.2691 150.05 23.4591C150.69 23.6491 151.29 23.8291 151.86 23.9981C152.43 24.1461 152.9 24.3261 153.26 24.5371C153.64 24.7271 153.83 25.0131 153.83 25.3931C153.83 25.6891 153.67 25.9221 153.35 26.0911C153.05 26.2601 152.62 26.3451 152.05 26.3451C151.23 26.3451 150.46 26.1971 149.77 25.9011C149.07 25.5841 148.47 25.1501 147.96 24.6001L145.2 27.3911C145.73 27.9621 146.36 28.4691 147.1 28.9131C147.86 29.3361 148.68 29.6641 149.55 29.8961Z" fill="white"/>
<path d="M167.37 30.214C165.95 30.214 164.69 29.928 163.6 29.357C162.52 28.765 161.67 27.962 161.06 26.947C160.44 25.911 160.14 24.727 160.14 23.395V14.453H164.99V23.332C164.99 23.861 165.07 24.315 165.24 24.696C165.43 25.076 165.71 25.372 166.07 25.584C166.43 25.795 166.86 25.901 167.37 25.901C168.09 25.901 168.66 25.679 169.08 25.235C169.5 24.77 169.71 24.135 169.71 23.332V14.453H174.57V23.364C174.57 24.717 174.26 25.911 173.65 26.947C173.03 27.962 172.19 28.765 171.11 29.357C170.03 29.928 168.78 30.214 167.37 30.214Z" fill="white"/>
<path d="M181.83 14.453H176.98V29.865H181.83V20.858C181.83 20.33 181.94 19.886 182.15 19.527C182.38 19.167 182.69 18.892 183.07 18.702C183.45 18.491 183.88 18.385 184.37 18.385C185.07 18.385 185.65 18.607 186.11 19.051C186.6 19.474 186.84 20.076 186.84 20.858V29.865H191.69V20.858C191.69 20.33 191.8 19.886 192.01 19.527C192.24 19.167 192.55 18.892 192.93 18.702C193.31 18.491 193.75 18.385 194.23 18.385C194.93 18.385 195.51 18.607 195.98 19.051C196.46 19.474 196.7 20.076 196.7 20.858V29.865H201.56V20.319C201.56 19.03 201.28 17.93 200.73 17.021C200.2 16.091 199.47 15.383 198.54 14.897C197.64 14.389 196.59 14.135 195.4 14.135C194.2 14.135 193.11 14.4 192.14 14.928C191.51 15.265 190.95 15.7 190.48 16.232C190.04 15.675 189.5 15.219 188.87 14.865C188.03 14.379 187.06 14.135 185.99 14.135C184.84 14.135 183.82 14.379 182.91 14.865C182.51 15.067 182.15 15.309 181.83 15.592V14.453Z" fill="white"/>
</g>
</svg>
